<svg id="Capa_1" data-name="Capa 1" xmlns="http://www.w3.org/2000/svg" viewBox="0 0 477.56 98.87"><defs><style>.cls-1{fill:#faeb15;}.cls-2{fill:#704790;}</style></defs><title>landing-svg</title><rect class="cls-1" x="15.06" y="23.97" width="414.92" height="57.76" rx="28.88" ry="28.88"/><path class="cls-2" d="M67.17,45.28a4.94,4.94,0,0,0-5-4c-4.51,0-6.21,3.84-6.21,7.84,0,3.81,1.7,7.65,6.21,7.65,3.07,0,4.8-2.11,5.18-5.12h4.86c-0.51,5.7-4.45,9.34-10,9.34-7.07,0-11.23-5.28-11.23-11.87,0-6.78,4.16-12.06,11.23-12.06,5,0,9.25,2.94,9.86,8.22H67.17Z"/><path class="cls-2" d="M82.4,43.45c5.22,0,8.58,3.46,8.58,8.74s-3.36,8.7-8.58,8.7-8.54-3.46-8.54-8.7S77.22,43.45,82.4,43.45Zm0,14c3.1,0,4-2.66,4-5.28s-0.93-5.31-4-5.31-4,2.66-4,5.31S79.33,57.47,82.4,57.47Z"/><path class="cls-2" d="M93.12,43.9h4.32v2.3h0.1a5.9,5.9,0,0,1,5.06-2.75c4.83,0,6,2.72,6,6.82V60.45h-4.54V51.1c0-2.72-.8-4.06-2.91-4.06-2.46,0-3.52,1.38-3.52,4.74v8.67H93.12V43.9Z"/><path class="cls-2" d="M120.45,60.45h-5.06L109.73,43.9h4.77L118,55.2H118l3.49-11.29H126Z"/><path class="cls-2" d="M130.88,53.28c0.13,2.88,1.54,4.19,4.06,4.19a3.74,3.74,0,0,0,3.58-2.14h4c-1.28,3.9-4,5.57-7.74,5.57-5.22,0-8.45-3.58-8.45-8.7,0-5,3.42-8.74,8.45-8.74,5.63,0,8.35,4.74,8,9.82H130.88Zm7.39-2.88c-0.42-2.3-1.41-3.52-3.62-3.52a3.58,3.58,0,0,0-3.78,3.52h7.39Z"/><path class="cls-2" d="M144.7,43.9H149V47h0.06a5.85,5.85,0,0,1,5.28-3.52,3.4,3.4,0,0,1,1,.16v4.22a8.32,8.32,0,0,0-1.63-.16c-3.33,0-4.48,2.4-4.48,5.31v7.46H144.7V43.9Z"/><path class="cls-2" d="M159.87,55.07c0,2,1.7,2.78,3.49,2.78,1.31,0,3-.51,3-2.11,0-1.37-1.89-1.86-5.15-2.56-2.62-.58-5.25-1.5-5.25-4.42,0-4.22,3.65-5.31,7.2-5.31s6.94,1.22,7.29,5.28h-4.32C166,47,164.64,46.49,163,46.49c-1,0-2.53.19-2.53,1.54,0,1.63,2.56,1.86,5.15,2.46s5.25,1.57,5.25,4.64c0,4.35-3.78,5.76-7.55,5.76s-7.58-1.44-7.78-5.82h4.32Z"/><path class="cls-2" d="M172.54,49c0.26-4.26,4.06-5.54,7.78-5.54,3.29,0,7.26.74,7.26,4.7v8.61a8.47,8.47,0,0,0,.58,3.68h-4.61a6.76,6.76,0,0,1-.32-1.6,7.59,7.59,0,0,1-5.57,2c-3.14,0-5.63-1.57-5.63-5,0-3.74,2.82-4.64,5.63-5s5.38-.32,5.38-2.18-1.34-2.24-2.94-2.24-2.85.7-3,2.5h-4.54ZM183,52.35c-0.77.67-2.37,0.7-3.78,1s-2.69.77-2.69,2.43,1.31,2.11,2.78,2.11C182.91,57.85,183,55,183,54v-1.7Z"/><path class="cls-2" d="M206.56,62.53c-1,2.66-2.56,3.74-5.7,3.74a27.13,27.13,0,0,1-2.78-.16V62.37a24.23,24.23,0,0,0,2.66.16,2.14,2.14,0,0,0,1.57-3.1L196.48,43.9h4.86l3.74,11.33h0.06l3.62-11.33h4.7Z"/><path class="cls-2" d="M222.3,43.9h4.32v2.3h0.1a5.9,5.9,0,0,1,5.06-2.75c4.83,0,6,2.72,6,6.82V60.45h-4.54V51.1c0-2.72-.8-4.06-2.91-4.06-2.46,0-3.52,1.38-3.52,4.74v8.67H222.3V43.9Z"/><path class="cls-2" d="M240.28,49c0.26-4.26,4.06-5.54,7.78-5.54,3.29,0,7.26.74,7.26,4.7v8.61a8.47,8.47,0,0,0,.58,3.68h-4.61a6.76,6.76,0,0,1-.32-1.6,7.59,7.59,0,0,1-5.57,2c-3.14,0-5.63-1.57-5.63-5,0-3.74,2.82-4.64,5.63-5s5.38-.32,5.38-2.18-1.34-2.24-2.94-2.24-2.85.7-3,2.5h-4.54Zm10.5,3.36c-0.77.67-2.37,0.7-3.78,1s-2.69.77-2.69,2.43,1.31,2.11,2.78,2.11c3.55,0,3.68-2.82,3.68-3.81v-1.7Z"/><path class="cls-2" d="M267.2,60.45h-5.06L256.48,43.9h4.77l3.49,11.29h0.06l3.49-11.29h4.51Z"/><path class="cls-2" d="M277.63,53.28c0.13,2.88,1.54,4.19,4.06,4.19a3.74,3.74,0,0,0,3.58-2.14h4c-1.28,3.9-4,5.57-7.74,5.57-5.22,0-8.45-3.58-8.45-8.7,0-5,3.42-8.74,8.45-8.74,5.63,0,8.35,4.74,8,9.82H277.63ZM285,50.4c-0.42-2.3-1.41-3.52-3.62-3.52a3.58,3.58,0,0,0-3.78,3.52H285Z"/><path class="cls-2" d="M307.35,59.39c0,2.72-1,7.33-8.58,7.33-3.26,0-7.07-1.54-7.3-5.31H296c0.42,1.7,1.79,2.27,3.39,2.27,2.53,0,3.68-1.73,3.65-4.1V57.41H303A5.59,5.59,0,0,1,298,60c-5,0-7.07-3.78-7.07-8.32,0-4.29,2.46-8.19,7.1-8.19A5.15,5.15,0,0,1,303,46.11H303V43.9h4.32V59.39ZM303,52c0-2.69-.93-5.09-3.87-5.09-2.56,0-3.68,2.24-3.68,4.7s0.9,5,3.68,5C301.75,56.54,303,54.33,303,52Z"/><path class="cls-2" d="M310,49c0.26-4.26,4.06-5.54,7.78-5.54,3.3,0,7.26.74,7.26,4.7v8.61a8.47,8.47,0,0,0,.58,3.68H321a6.76,6.76,0,0,1-.32-1.6,7.59,7.59,0,0,1-5.57,2c-3.14,0-5.63-1.57-5.63-5,0-3.74,2.82-4.64,5.63-5s5.38-.32,5.38-2.18-1.34-2.24-2.94-2.24-2.85.7-3,2.5H310Zm10.5,3.36c-0.77.67-2.37,0.7-3.78,1s-2.69.77-2.69,2.43,1.31,2.11,2.78,2.11c3.55,0,3.68-2.82,3.68-3.81v-1.7Z"/><path class="cls-2" d="M339.61,53.28c0.13,2.88,1.54,4.19,4.06,4.19a3.74,3.74,0,0,0,3.58-2.14h4c-1.28,3.9-4,5.57-7.74,5.57-5.22,0-8.45-3.58-8.45-8.7,0-5,3.42-8.74,8.45-8.74,5.63,0,8.35,4.74,8,9.82H339.61ZM347,50.4c-0.42-2.3-1.41-3.52-3.62-3.52a3.58,3.58,0,0,0-3.78,3.52H347Z"/><path class="cls-2" d="M353.43,43.9h4.32v2.3h0.1a5.9,5.9,0,0,1,5.06-2.75c4.83,0,6,2.72,6,6.82V60.45h-4.54V51.1c0-2.72-.8-4.06-2.91-4.06C359,47,358,48.41,358,51.77v8.67h-4.54V43.9Z"/><circle class="cls-2" cx="422.53" cy="49.44" r="39.97"/><path class="cls-1" d="M410,53.36H397.51L399,46.08l15.5-14.56h7.75L419.12,46.7h3.52l-1.25,6.65h-3.56l-1.21,5.4h-7.75Zm1.61-6.65L413.29,39h-0.08l-7.83,7.75h6.22Z"/><path class="cls-1" d="M442.77,56.06L442.69,56a9,9,0,0,1-7.56,3.45c-9.79,0-11.35-8.3-11.35-11.78,0-8.77,5-17.5,16-17.5,6.26,0,11.51,3.17,11.59,10.45H443.2c-0.23-2.58-1.76-3.48-4-3.48-4.74,0-6.85,5.05-6.85,9.87,0,3.29,1.41,5.48,4.89,5.48,2.31,0,4.27-.82,5.13-3.09H438.5l1.25-6h11.43L448,58.76h-5.44Z"/><path class="cls-1" d="M430,60.94h1.36L430,67.55h3.93l-0.24,1.18h-5.29Z"/><path class="cls-1" d="M433.81,60.94h6.41L440,62.12H437.5l-1.37,6.61h-1.36l1.37-6.61h-2.56Z"/><path class="cls-1" d="M441,60.94h5.67l-0.24,1.18h-4.33l-0.43,2h4l-0.23,1.11h-4L441,67.55h4.36l-0.24,1.18h-5.7Z"/><path class="cls-1" d="M409.33,32.61H394.8a1.09,1.09,0,1,1,0-2.18h14.53A1.09,1.09,0,1,1,409.33,32.61Z"/><path class="cls-1" d="M406.58,36.13h-9a1.09,1.09,0,1,1,0-2.18h9A1.09,1.09,0,0,1,406.58,36.13Z"/><path class="cls-1" d="M425.68,64.78H409.26a1.09,1.09,0,1,1,0-2.18h16.43A1.09,1.09,0,0,1,425.68,64.78Z"/><path class="cls-1" d="M425.68,68.3h-10.2a1.09,1.09,0,0,1,0-2.18h10.2A1.09,1.09,0,0,1,425.68,68.3Z"/></svg>