<svg id="Capa_1" data-name="Capa 1" xmlns="http://www.w3.org/2000/svg" viewBox="0 0 273.03 180.52"><defs><style>.cls-1{fill:#1d1612;}.cls-2{fill:#e2d335;}.cls-3{fill:#ab391b;}.cls-4{fill:#704790;}.cls-5{fill:#faeb15;}.cls-6{fill:#c43d27;}</style></defs><title>landing-svg</title><path class="cls-1" d="M252.46,59.94a2.54,2.54,0,0,1-1.27,2.22,2.54,2.54,0,0,1-1.29.35,2.45,2.45,0,0,1-1.27-.35,2.38,2.38,0,0,1-.94-0.94,2.5,2.5,0,0,1-.35-1.28,2.56,2.56,0,0,1,.35-1.29,2.33,2.33,0,0,1,.94-0.93,2.41,2.41,0,0,1,1.27-.34,2.49,2.49,0,0,1,1.29.34,2.44,2.44,0,0,1,.94.93,2.56,2.56,0,0,1,.33,1.29m-0.49,0a2.06,2.06,0,0,0-2.08-2.07,2.06,2.06,0,0,0-2.06,2.07,2.07,2.07,0,0,0,4.14,0m-3.24-1.38H250a1.11,1.11,0,0,1,.75.22,0.68,0.68,0,0,1,.24.56,0.71,0.71,0,0,1-.18.47,1.05,1.05,0,0,1-.56.3,0.84,0.84,0,0,1,.23.12,1.82,1.82,0,0,1,.22.29s0.14,0.28.45,0.79H250.3a6.83,6.83,0,0,0-.53-0.93,0.37,0.37,0,0,0-.27-0.16h-0.08V61.3h-0.69V58.56Zm0.69,1.18h0.28a0.72,0.72,0,0,0,.42-0.1,0.28,0.28,0,0,0,.11-0.24,0.28,0.28,0,0,0-.11-0.24,0.59,0.59,0,0,0-.39-0.1h-0.32v0.69Z"/><path class="cls-1" d="M164.3,143.32a4.38,4.38,0,0,0-1.33-1.11,3.62,3.62,0,0,0-1.74-.42h-0.48a3.08,3.08,0,0,0-.52.07l-0.26,0v0a0.55,0.55,0,0,0-.28-0.48,1.09,1.09,0,0,0-1.26.11,1.34,1.34,0,0,0-.47.86q-0.33,1.65-.73,3.7c-0.26,1.36-.51,2.77-0.75,4.19s-0.44,2.82-.62,4.13a26.61,26.61,0,0,0-.27,3.48c0,0.31,0,.71.05,1.19s0.09,1,.17,1.48a10.41,10.41,0,0,0,.31,1.42,2.51,2.51,0,0,0,.51,1,2.71,2.71,0,0,0,.3.26,0.74,0.74,0,0,0,.46.15,0.72,0.72,0,0,0,.57-0.25,0.86,0.86,0,0,0,.21-0.58,0.79,0.79,0,0,0-.29-0.69,1.64,1.64,0,0,1-.1-0.38c-0.06-.3-0.12-0.68-0.17-1.1s-0.11-.91-0.15-1.41-0.06-1-.06-1.43,0-.71,0-1.12,0.08-.84.14-1.26,0.13-.87.21-1.29,0.15-.71.24-1h0.46a7.63,7.63,0,0,0,2.54-.44,7.18,7.18,0,0,0,2.22-1.26,6.33,6.33,0,0,0,1.57-2,5.68,5.68,0,0,0,.6-2.61,5.34,5.34,0,0,0-.29-1.72,5,5,0,0,0-.84-1.53m-5.66,7.9a0.25,0.25,0,0,1-.29-0.31,1.1,1.1,0,0,1,0-.18c0-.06,0-0.14,0-0.23s0.08-.56.16-1l0.21-1.35c0.08-.48.16-1,0.25-1.49s0.19-1,.29-1.43,0.2-.8.3-1.1a1.18,1.18,0,0,1,.22-0.48,1.33,1.33,0,0,1,.51-0.14,5.71,5.71,0,0,1,.91-0.07,2.07,2.07,0,0,1,1.74.86,2.94,2.94,0,0,1,.43.9,3.89,3.89,0,0,1,.14,1.07,4.83,4.83,0,0,1-1.47,3.53,5,5,0,0,1-1.57,1,4.92,4.92,0,0,1-1.89.37"/><path class="cls-1" d="M175,152.09a5,5,0,0,1-.83-1.24,7.57,7.57,0,0,1-.51-1.44,9.54,9.54,0,0,1-.25-1.54c0-.52-0.06-1-0.06-1.56l0.05-1.43a1.67,1.67,0,0,0-.13-0.66,0.64,0.64,0,0,0-.65-0.37,0.68,0.68,0,0,0-.59.31,2.13,2.13,0,0,0-.28.64c0,0.07-.09.24-0.27,0.64s-0.34.71-.58,1.18-0.5.93-.78,1.41-0.57.95-.86,1.36a6.86,6.86,0,0,1-.82,1,0.92,0.92,0,0,1-.56.36,0.21,0.21,0,0,1-.18-0.08,0.63,0.63,0,0,1-.13-0.27,1.59,1.59,0,0,1-.06-0.35q0-.18,0-0.3a7.07,7.07,0,0,1,.42-2.29,11.94,11.94,0,0,1,1.07-2.3,8.44,8.44,0,0,1,1.37-1.77,2,2,0,0,1,1.29-.68,1.1,1.1,0,0,1,.33.07l0.41,0.17,0.42,0.18a0.6,0.6,0,0,0,.81-0.13,0.73,0.73,0,0,0,.11-0.41,1,1,0,0,0-.24-0.68,1.76,1.76,0,0,0-.56-0.43,2.66,2.66,0,0,0-.68-0.23,3.12,3.12,0,0,0-.59-0.07,3.6,3.6,0,0,0-2.18.8,7.91,7.91,0,0,0-1.85,2,11.64,11.64,0,0,0-1.31,2.75,9.47,9.47,0,0,0-.51,3,8.87,8.87,0,0,0,.05.94,2.8,2.8,0,0,0,.24.9,1.66,1.66,0,0,0,1.6.94,2.28,2.28,0,0,0,1.34-.45,5.82,5.82,0,0,0,1.13-1.1,13.13,13.13,0,0,0,1-1.41c0.21-.34.41-0.68,0.6-1q0.09,0.5.21,1a9.27,9.27,0,0,0,.46,1.45,5.27,5.27,0,0,0,.74,1.26,3.45,3.45,0,0,0,1.12.92l0.24,0.1a1,1,0,0,0,.29,0,0.77,0.77,0,0,0,.37-0.09,0.44,0.44,0,0,0,.23-0.4,0.78,0.78,0,0,0-.16-0.44,2.19,2.19,0,0,0-.27-0.34"/><path class="cls-1" d="M184.36,143.22a0.52,0.52,0,0,0,.3-0.51,0.87,0.87,0,0,0-.27-0.66,1.74,1.74,0,0,0-.58-0.35,2.61,2.61,0,0,0-.66-0.16,4.73,4.73,0,0,0-.54,0,3.75,3.75,0,0,0-2.32.76,9.91,9.91,0,0,0-1.59,1.57s0-.1,0-0.15,0-.31.05-0.47a3.45,3.45,0,0,0,0-.35,1.31,1.31,0,0,0-.17-0.64,0.7,0.7,0,0,0-.66-0.36,1.08,1.08,0,0,0-.72.25,0.9,0.9,0,0,0-.34.6s0,0.15,0,.35,0,0.48-.08.79-0.07.69-.13,1.1-0.11.84-.18,1.3-0.14.87-.21,1.39-0.15,1-.22,1.59-0.12,1.07-.17,1.58-0.06,1-.06,1.36a1.65,1.65,0,0,0,.14.68,0.68,0.68,0,0,0,.69.38,0.74,0.74,0,0,0,.63-0.26,1.42,1.42,0,0,0,.22-0.65c0-.3.07-0.66,0.11-1.08s0.1-.85.19-1.32,0.19-1,.33-1.45a10.44,10.44,0,0,1,.52-1.5,13,13,0,0,1,.64-1.25,7.13,7.13,0,0,1,.9-1.24,5.46,5.46,0,0,1,1.16-1,2.48,2.48,0,0,1,1.33-.38,1.52,1.52,0,0,1,.56.09,1.32,1.32,0,0,0,1.09,0"/><path class="cls-1" d="M192.75,152.09a5,5,0,0,1-.83-1.24,7.57,7.57,0,0,1-.51-1.44,9.54,9.54,0,0,1-.25-1.54c0-.52-0.06-1-0.06-1.56l0.05-1.43a1.67,1.67,0,0,0-.13-0.66,0.64,0.64,0,0,0-.65-0.37,0.68,0.68,0,0,0-.59.31,2.13,2.13,0,0,0-.28.64c0,0.07-.09.24-0.27,0.64s-0.34.71-.58,1.18-0.5.93-.78,1.41-0.57.95-.86,1.36a6.86,6.86,0,0,1-.82,1,0.92,0.92,0,0,1-.56.36,0.21,0.21,0,0,1-.18-0.08,0.63,0.63,0,0,1-.13-0.27,1.59,1.59,0,0,1-.06-0.35q0-.18,0-0.3a7.07,7.07,0,0,1,.42-2.29,11.94,11.94,0,0,1,1.07-2.3,8.44,8.44,0,0,1,1.37-1.77,2,2,0,0,1,1.29-.68,1.1,1.1,0,0,1,.33.07l0.41,0.17,0.42,0.18a0.6,0.6,0,0,0,.81-0.13,0.73,0.73,0,0,0,.11-0.41,1,1,0,0,0-.24-0.68,1.72,1.72,0,0,0-.56-0.43,2.66,2.66,0,0,0-.68-0.23,3.12,3.12,0,0,0-.59-0.07,3.6,3.6,0,0,0-2.18.8,7.91,7.91,0,0,0-1.85,2,11.64,11.64,0,0,0-1.31,2.75,9.47,9.47,0,0,0-.51,3,8.87,8.87,0,0,0,.05.94,2.7,2.7,0,0,0,.25.9,1.69,1.69,0,0,0,.57.67,1.72,1.72,0,0,0,1,.28,2.27,2.27,0,0,0,1.34-.45,5.82,5.82,0,0,0,1.13-1.1,13.13,13.13,0,0,0,1-1.41c0.21-.34.41-0.68,0.6-1q0.09,0.5.21,1a8.87,8.87,0,0,0,.46,1.45,5.13,5.13,0,0,0,.73,1.26,3.45,3.45,0,0,0,1.12.92l0.24,0.1a1,1,0,0,0,.29,0,0.77,0.77,0,0,0,.37-0.09,0.44,0.44,0,0,0,.23-0.4,0.78,0.78,0,0,0-.16-0.44,2.19,2.19,0,0,0-.27-0.34"/><path class="cls-1" d="M205.63,143a1,1,0,0,0,.09-0.43,0.7,0.7,0,0,0-.25-0.55,1.51,1.51,0,0,0-.54-0.29,3.44,3.44,0,0,0-.67-0.13,5.67,5.67,0,0,0-.66,0,6.08,6.08,0,0,0-1.64.24,4.84,4.84,0,0,0-1.51.71,3.76,3.76,0,0,0-1.09,1.19,3.3,3.3,0,0,0-.42,1.68,2.2,2.2,0,0,0,.33,1.22,3.73,3.73,0,0,0,.8.88,7.83,7.83,0,0,0,1,.68c0.34,0.2.66,0.4,1,.61a3.74,3.74,0,0,1,.73.62,1,1,0,0,1,.26.68,1.39,1.39,0,0,1-.42.93,5.4,5.4,0,0,1-1.07.87,6.19,6.19,0,0,1-1.27.6,3.37,3.37,0,0,1-1,.22H199a1.56,1.56,0,0,0-.67.16,0.75,0.75,0,0,0-.39.75,0.63,0.63,0,0,0,.39.61,1.64,1.64,0,0,0,.64.14,5.78,5.78,0,0,0,1.84-.34,8.54,8.54,0,0,0,1.88-.91,6.14,6.14,0,0,0,1.48-1.33,2.62,2.62,0,0,0,.62-1.65,2.48,2.48,0,0,0-.33-1.31,3.55,3.55,0,0,0-.8-0.93,8.26,8.26,0,0,0-1-.71c-0.36-.21-0.69-0.42-1-0.62a4,4,0,0,1-.74-0.61,1,1,0,0,1-.26-0.67,1.5,1.5,0,0,1,.27-0.87,2.33,2.33,0,0,1,.67-0.66,3.37,3.37,0,0,1,.92-0.41,3.46,3.46,0,0,1,.94-0.14,3.26,3.26,0,0,1,.74.09,2.06,2.06,0,0,0,1.07.06,0.86,0.86,0,0,0,.41-0.35"/><path class="cls-1" d="M213,149.57a0.86,0.86,0,0,0-.37.09,1.57,1.57,0,0,0-.32.19,6.6,6.6,0,0,1-1.76,1,5.62,5.62,0,0,1-2,.33,1.35,1.35,0,0,1-1.08-.34,1.55,1.55,0,0,1-.29-1s0-.14,0-0.27,0-.26,0-0.39a3.15,3.15,0,0,1,.06-0.35v0a4.33,4.33,0,0,0,1.88-.48,6.1,6.1,0,0,0,1.65-1.22,5.88,5.88,0,0,0,1.16-1.71,4.65,4.65,0,0,0,.43-1.93,1.69,1.69,0,0,0-.5-1.35,1.81,1.81,0,0,0-1.21-.42,3,3,0,0,0-1.59.64,8.09,8.09,0,0,0-1.75,1.71A10.36,10.36,0,0,0,206,146.6a8.77,8.77,0,0,0-.58,3.2,3.19,3.19,0,0,0,.74,2.26,2.85,2.85,0,0,0,2.19.8,6.5,6.5,0,0,0,2.26-.41,7.55,7.55,0,0,0,2-1.1,3.36,3.36,0,0,0,.43-0.4,3.07,3.07,0,0,0,.28-0.39,0.91,0.91,0,0,0,.14-0.48,0.42,0.42,0,0,0-.42-0.5m-5.2-2.53a5.39,5.39,0,0,1,.56-1,13.36,13.36,0,0,1,.9-1.18,11.44,11.44,0,0,1,.84-0.89c0.34-.32.42-0.38,0.45-0.4a0.3,0.3,0,0,1,.19-0.06,0.4,0.4,0,0,1,0,.11,2.62,2.62,0,0,1-.31,1.18,4.81,4.81,0,0,1-.79,1.12,4.62,4.62,0,0,1-1.05.83,2.37,2.37,0,0,1-.79.3"/><path class="cls-1" d="M230.92,140.56a1.22,1.22,0,0,0-1.08,0,3.84,3.84,0,0,0-.53.27,8.45,8.45,0,0,0-1.42,1.38,21.51,21.51,0,0,0-1.48,2c-0.31.44-.59,0.9-0.86,1.37s-0.51.93-.74,1.39-0.44.89-.63,1.3l-0.26.56c-0.15-.93-0.3-1.94-0.43-3-0.17-1.27-.33-2.5-0.48-3.66a1.78,1.78,0,0,0-.27-0.74,0.79,0.79,0,0,0-.69-0.37,0.68,0.68,0,0,0-.6.32,1.14,1.14,0,0,0-.07.17l-0.26,0a4.76,4.76,0,0,0-.54,0,3.76,3.76,0,0,0-2.32.76,10.06,10.06,0,0,0-1.58,1.57s0-.1,0-0.15,0-.31.05-0.47,0-.28,0-0.35a1.36,1.36,0,0,0-.17-0.64,0.7,0.7,0,0,0-.66-0.37,1.08,1.08,0,0,0-.72.26,0.89,0.89,0,0,0-.34.6s0,0.15,0,.35,0,0.48-.07.79-0.08.69-.13,1.1-0.11.85-.17,1.3-0.14.87-.22,1.39-0.15,1-.22,1.59-0.12,1.07-.16,1.58-0.07,1-.07,1.36a1.62,1.62,0,0,0,.14.68,0.68,0.68,0,0,0,.69.38,0.73,0.73,0,0,0,.63-0.26,1.4,1.4,0,0,0,.22-0.65c0-.3.07-0.66,0.11-1.08s0.11-.85.19-1.32,0.19-1,.32-1.45a11,11,0,0,1,.52-1.5,13.29,13.29,0,0,1,.64-1.25,6.78,6.78,0,0,1,.91-1.24,5.35,5.35,0,0,1,1.15-1,2.51,2.51,0,0,1,1.33-.38,1.62,1.62,0,0,1,.56.09l0.1,0c0,0.14,0,.27,0,0.42,0.08,0.75.18,1.61,0.29,2.56s0.25,2,.39,3,0.29,2,.45,2.95a1.31,1.31,0,0,0,.21.44,0.62,0.62,0,0,0,.54.25,1.41,1.41,0,0,0,.59-0.13,1.16,1.16,0,0,0,.5-0.69,30.54,30.54,0,0,1,1.33-3.17,29.9,29.9,0,0,1,1.8-3.22,20.18,20.18,0,0,1,1.51-2.07,16.07,16.07,0,0,1,1.69-1.75,3.22,3.22,0,0,0,.28-0.32,0.77,0.77,0,0,0,.18-0.49,0.55,0.55,0,0,0-.24-0.51"/><path class="cls-1" d="M233,139.07a1.07,1.07,0,0,0-.81.4,1.38,1.38,0,0,0-.35.94,2.15,2.15,0,0,0,.19.92,0.82,0.82,0,0,0,.73.49h0a1.09,1.09,0,0,0,.81-0.38,1.36,1.36,0,0,0,.35-1,2.25,2.25,0,0,0-.18-0.94,0.76,0.76,0,0,0-.75-0.47"/><path class="cls-1" d="M232.68,143.36a0.79,0.79,0,0,0-.9.86v0.29c0,0.26-.07.63-0.15,1.08s-0.17,1-.27,1.56-0.18,1.18-.25,1.82a16.14,16.14,0,0,0-.12,1.91c0,0.19,0,.43,0,0.72a5,5,0,0,0,.13.87,2.41,2.41,0,0,0,.31.75,0.76,0.76,0,0,0,.66.37,0.85,0.85,0,0,0,.36-0.09,0.44,0.44,0,0,0,.26-0.43,1.5,1.5,0,0,0-.08-0.48,1,1,0,0,1-.07-0.33c0-.13,0-0.36,0-0.69s0.06-.69.1-1.1,0.09-.82.14-1.24,0.11-.79.18-1.1l0.38-1.75a8.09,8.09,0,0,0,.21-1.68c0-1.1-.52-1.33-1-1.33"/><path class="cls-1" d="M250,142.54a0.76,0.76,0,0,0-.19-0.49,0.77,0.77,0,0,0-.61-0.24h-2.33l0.8-2.55c0.29-.91.57-1.84,0.86-2.79a1.56,1.56,0,0,0,.09-0.48,1.08,1.08,0,0,0-.23-0.64,0.87,0.87,0,0,0-.76-0.33,0.82,0.82,0,0,0-.64.27,2,2,0,0,0-.35.6c-0.34,1-.66,2-1,3s-0.56,1.95-.81,2.91l-1,0-0.89.05h-0.14a1.89,1.89,0,0,0-.4-0.22,2.86,2.86,0,0,0-.66-0.16,4.93,4.93,0,0,0-.54,0,3.73,3.73,0,0,0-2.32.76,9.52,9.52,0,0,0-1.58,1.57c0-.05,0-0.1,0-0.16s0-.32.05-0.47,0-.28,0-0.35a1.34,1.34,0,0,0-.17-0.64,0.7,0.7,0,0,0-.66-0.37,1.08,1.08,0,0,0-.72.26,0.88,0.88,0,0,0-.34.6s0,0.15,0,.35,0,0.48-.08.8-0.08.69-.13,1.1-0.11.85-.18,1.3-0.14.87-.22,1.39-0.15,1-.21,1.59-0.13,1.07-.17,1.58-0.06,1-.06,1.36a1.59,1.59,0,0,0,.14.68,0.68,0.68,0,0,0,.68.38,0.73,0.73,0,0,0,.63-0.26,1.41,1.41,0,0,0,.22-0.65c0-.31.07-0.66,0.12-1.08s0.1-.85.19-1.32,0.19-1,.32-1.46a10.67,10.67,0,0,1,.53-1.49,11.29,11.29,0,0,1,.64-1.25,7,7,0,0,1,.9-1.24,5.46,5.46,0,0,1,1.15-1,2.52,2.52,0,0,1,1.33-.38l0.26,0a0.7,0.7,0,0,0,.36.19,4.72,4.72,0,0,0,1,.09h1.54a18.29,18.29,0,0,0-.71,3.08,22.55,22.55,0,0,0-.22,2.91,13.51,13.51,0,0,0,.22,2.69c0.15,0.69.23,1.1,0.26,1.2a0.72,0.72,0,0,0,.08.24l0.15,0.37a4.12,4.12,0,0,0,.24.48,3.15,3.15,0,0,0,.34.47,0.88,0.88,0,0,0,.61.36,0.5,0.5,0,0,0,.57-0.38,2.14,2.14,0,0,0,.06-0.35,1.75,1.75,0,0,0-.07-0.46,4.36,4.36,0,0,0-.17-0.46,9,9,0,0,1-.38-1.48,11.55,11.55,0,0,1-.16-2.09v-0.46c0-.17,0-0.34,0-0.52s0.06-.7.13-1.26,0.16-1.14.26-1.73,0.23-1.17.35-1.69a4.17,4.17,0,0,1,.32-1l0.29,0,0.33,0H249a0.77,0.77,0,0,0,.9-0.8"/><path class="cls-1" d="M256.22,149.57a0.86,0.86,0,0,0-.36.09,1.57,1.57,0,0,0-.32.19,6.69,6.69,0,0,1-1.76,1,5.64,5.64,0,0,1-2,.33,1.35,1.35,0,0,1-1.08-.34,1.55,1.55,0,0,1-.29-1s0-.14,0-0.27,0-.26,0-0.39a3.15,3.15,0,0,1,.06-0.35,0.06,0.06,0,0,1,0,0,4.34,4.34,0,0,0,1.88-.48,6.1,6.1,0,0,0,1.65-1.22,5.88,5.88,0,0,0,1.16-1.71,4.68,4.68,0,0,0,.43-1.93,1.69,1.69,0,0,0-.5-1.35,1.81,1.81,0,0,0-1.21-.42,3,3,0,0,0-1.59.64A8.1,8.1,0,0,0,250.6,144a10.48,10.48,0,0,0-1.42,2.57,8.77,8.77,0,0,0-.58,3.2,3.19,3.19,0,0,0,.74,2.26,2.86,2.86,0,0,0,2.19.8,6.5,6.5,0,0,0,2.27-.41,7.51,7.51,0,0,0,2-1.1,3.12,3.12,0,0,0,.43-0.4,2.9,2.9,0,0,0,.28-0.39,0.91,0.91,0,0,0,.14-0.48,0.42,0.42,0,0,0-.42-0.5M251,147a5.39,5.39,0,0,1,.56-1,13.36,13.36,0,0,1,.9-1.18,11.44,11.44,0,0,1,.84-0.89c0.34-.32.42-0.38,0.45-0.4a0.3,0.3,0,0,1,.19-0.06,0.25,0.25,0,0,1,0,.11,2.62,2.62,0,0,1-.31,1.18,4.87,4.87,0,0,1-.8,1.12,4.57,4.57,0,0,1-1,.83,2.37,2.37,0,0,1-.79.3"/><path class="cls-2" d="M255.46,68.53a51.26,51.26,0,1,0-51.26,51.26,51.25,51.25,0,0,0,51.26-51.26"/><path class="cls-1" d="M181,65.47a11.42,11.42,0,0,0-1.83-3.94,9.28,9.28,0,0,0-3.27-2.78,9.93,9.93,0,0,0-4.65-1,10.78,10.78,0,0,0-4.34.85,10,10,0,0,0-3.38,2.33,10.16,10.16,0,0,0-2.18,3.49,11.93,11.93,0,0,0-.76,4.34,12.7,12.7,0,0,0,.73,4.41,10.42,10.42,0,0,0,2.13,3.49,9.27,9.27,0,0,0,3.38,2.26,12,12,0,0,0,4.43.78,10.85,10.85,0,0,0,6-1.62,7.69,7.69,0,0,0,2.22-2.18,11.89,11.89,0,0,0,1.53-3.2l0.14-.43S181.28,72,181,72h-5.36a0.27,0.27,0,0,0-.31.15l-0.06.18a1.94,1.94,0,0,1-.4.73,4.51,4.51,0,0,1-.87.76,4.41,4.41,0,0,1-2.59.74,5.91,5.91,0,0,1-1.9-.27,3.65,3.65,0,0,1-1.32-.79,3.52,3.52,0,0,1-.84-1.38,7,7,0,0,1-.34-1.67h14.11a0.25,0.25,0,0,0,.23-0.26l0-.18c0-.35,0-0.71,0-1a14.42,14.42,0,0,0-.42-3.54m-13.11-1.32a3.63,3.63,0,0,1,1.23-1,4.29,4.29,0,0,1,2-.4,4.65,4.65,0,0,1,1.59.25,2.52,2.52,0,0,1,1,.68,5.26,5.26,0,0,1,1.14,2.36H167.1c0-.22.09-0.45,0.16-0.7a3.63,3.63,0,0,1,.66-1.23"/><path class="cls-1" d="M201.46,79l-7.59-10.91,6.85-9.75s0.08-.12-0.15-0.12h-6.93a0.32,0.32,0,0,0-.28.13L190.26,63l-3.13-4.64a0.42,0.42,0,0,0-.33-0.15h-7.11c-0.2,0-.1.14-0.1,0.14l0.49,0.7,6.34,9.16L179,79s-0.14.2,0.11,0.2h6.94a0.45,0.45,0,0,0,.4-0.23l3.72-5.63L193.92,79a0.51,0.51,0,0,0,.39.24h7c0.28,0,.12-0.23.12-0.23"/><path class="cls-1" d="M210.22,58.18h-8c-0.28,0-.23.19-0.23,0.19l1.15,20.57a0.26,0.26,0,0,0,.24.26H209a0.24,0.24,0,0,0,.23-0.27l1.16-20.51a0.21,0.21,0,0,0-.2-0.23"/><path class="cls-1" d="M225.44,62.9a0.23,0.23,0,0,0,.21-0.25V58.39a0.2,0.2,0,0,0-.22-0.21h-3.8V52.43a0.21,0.21,0,0,0-.22-0.24h-6.09a0.22,0.22,0,0,0-.23.24v5.75H212c-0.28,0-.25.19-0.25,0.19v4.3a0.2,0.2,0,0,0,.21.23h3.11V74.15a5.6,5.6,0,0,0,.57,2.68,4.1,4.1,0,0,0,1.56,1.63,6,6,0,0,0,2.2.75,16.13,16.13,0,0,0,2.48.18c0.56,0,1.1,0,1.69,0a14.56,14.56,0,0,0,1.6-.15l0.25,0a0.23,0.23,0,0,0,.2-0.27V74c0-.26-0.21-0.17-0.21-0.17L225,73.9c-0.23,0-.49.08-0.75,0.1a7.08,7.08,0,0,1-.84,0,4.25,4.25,0,0,1-1-.11,0.86,0.86,0,0,1-.45-0.21,0.91,0.91,0,0,1-.21-0.44,4.25,4.25,0,0,1-.11-1V62.9h3.81Z"/><path class="cls-1" d="M247,64.19a9.64,9.64,0,0,0-5.65-5.75,12.9,12.9,0,0,0-8.9,0,9.69,9.69,0,0,0-5.62,5.75,13.7,13.7,0,0,0,0,9A9.92,9.92,0,0,0,229,76.71a9.43,9.43,0,0,0,3.42,2.23,12.14,12.14,0,0,0,4.44.77,12.29,12.29,0,0,0,4.45-.77,9.52,9.52,0,0,0,3.45-2.23A10,10,0,0,0,247,73.23a13.8,13.8,0,0,0,0-9m-8,9.89a4.76,4.76,0,0,1-4.12,0,3.77,3.77,0,0,1-1.3-1.27,5.42,5.42,0,0,1-.72-1.87,10.84,10.84,0,0,1-.23-2.23,11.21,11.21,0,0,1,.23-2.25,5.25,5.25,0,0,1,.71-1.86,3.74,3.74,0,0,1,3.37-1.76,4,4,0,0,1,2.06.49,3.85,3.85,0,0,1,1.33,1.27,5.22,5.22,0,0,1,.72,1.86,11.5,11.5,0,0,1,.22,2.25,11.12,11.12,0,0,1-.22,2.23,5.58,5.58,0,0,1-.72,1.87,3.57,3.57,0,0,1-1.32,1.26"/><path class="cls-3" d="M210.12,84.21a3.92,3.92,0,1,0-3.91,3.91,3.92,3.92,0,0,0,3.91-3.91"/><path class="cls-1" d="M172.06,52.34L169,56.19s-0.19.22,0.06,0.22h3.62a0.68,0.68,0,0,0,.46-0.15l5.15-3.92s0.19-.16-0.05-0.16h-5.8a0.41,0.41,0,0,0-.37.16"/><path class="cls-1" d="M252.84,60.24a2.55,2.55,0,0,1-.33,1.28,2.6,2.6,0,0,1-2.23,1.29,2.45,2.45,0,0,1-1.28-.35,2.39,2.39,0,0,1-.94-0.94,2.48,2.48,0,0,1-.36-1.28,2.54,2.54,0,0,1,.36-1.29A2.35,2.35,0,0,1,249,58a2.39,2.39,0,0,1,1.28-.34A2.59,2.59,0,0,1,252.51,59a2.62,2.62,0,0,1,.33,1.29m-0.49,0a2.07,2.07,0,0,0-2.08-2.08,2,2,0,0,0-1.46.6,2.07,2.07,0,1,0,3.54,1.47m-3.24-1.38h1.23a1.12,1.12,0,0,1,.75.21,0.77,0.77,0,0,1,.06,1,1,1,0,0,1-.56.29,0.89,0.89,0,0,1,.23.12,1.53,1.53,0,0,1,.22.29s0.15,0.28.45,0.79h-0.81a7.14,7.14,0,0,0-.53-0.94,0.37,0.37,0,0,0-.27-0.16H249.8v1.08h-0.69V58.86ZM249.8,60h0.28a0.71,0.71,0,0,0,.43-0.1,0.28,0.28,0,0,0,.11-0.24,0.28,0.28,0,0,0-.11-0.24,0.6,0.6,0,0,0-.39-0.11H249.8V60Z"/><path class="cls-1" d="M252.52,59.9a2.57,2.57,0,0,1-2.57,2.57,2.44,2.44,0,0,1-1.28-.35,2.36,2.36,0,0,1-.94-0.94,2.51,2.51,0,0,1-.36-1.28,2.56,2.56,0,0,1,.36-1.29,2.31,2.31,0,0,1,.94-0.94,2.4,2.4,0,0,1,1.28-.34,2.49,2.49,0,0,1,1.29.34,2.45,2.45,0,0,1,.94.94,2.58,2.58,0,0,1,.34,1.29m-0.49,0a2.07,2.07,0,0,0-2.08-2.08,2.07,2.07,0,1,0,0,4.15A2.06,2.06,0,0,0,252,59.9m-3.25-1.38H250a1.12,1.12,0,0,1,.75.22,0.69,0.69,0,0,1,.24.56,0.72,0.72,0,0,1-.18.48,1,1,0,0,1-.56.29,0.9,0.9,0,0,1,.23.12,1.63,1.63,0,0,1,.22.29s0.14,0.28.45,0.79h-0.82a6.82,6.82,0,0,0-.53-0.94,0.37,0.37,0,0,0-.27-0.16l-0.08,0v1.08h-0.69V58.52Zm0.69,1.18h0.28a0.72,0.72,0,0,0,.42-0.1,0.29,0.29,0,0,0,.11-0.25,0.28,0.28,0,0,0-.11-0.24,0.59,0.59,0,0,0-.39-0.1h-0.32V59.7Z"/><path class="cls-4" d="M35.47,48a19.1,19.1,0,1,0,19.11,19.1A19.09,19.09,0,0,0,35.47,48M35,54.51A2.45,2.45,0,1,1,32.53,57,2.45,2.45,0,0,1,35,54.51m-11.31,8a1.2,1.2,0,1,1-1.22,1.2,1.2,1.2,0,0,1,1.22-1.2M26.33,73a0.9,0.9,0,0,1-.89.89H21.3A0.9,0.9,0,0,1,20.41,73V63.19a0.73,0.73,0,1,1,1.45,0V65.5h3.57a0.9,0.9,0,0,1,.89.9V73ZM47.1,62.65a1.55,1.55,0,1,1-1.57,1.55,1.55,1.55,0,0,1,1.57-1.55m3.44,13.51a1.16,1.16,0,0,1-1.15,1.15H44a1.16,1.16,0,0,1-1.15-1.15V63.56a0.94,0.94,0,1,1,1.88,0v3h4.62a1.16,1.16,0,0,1,1.15,1.16v8.46Zm-10.11-.26a1.83,1.83,0,0,1-1.82,1.81H30.19a1.83,1.83,0,0,1-1.83-1.81V56a1.48,1.48,0,1,1,3,0V60.7h7.3a1.82,1.82,0,0,1,1.82,1.81v13.4Z"/><path class="cls-4" d="M60.23,58.76H63.4v3h0.08a7.55,7.55,0,0,1,6.62-3.49c2.49,0,4.79,1,5.62,3.49a7.58,7.58,0,0,1,6.42-3.49c4.08,0,6.82,1.7,6.82,5.94v15H85.6V65.82c0-2.54-.67-4.56-4-4.56a5,5,0,0,0-5.35,5.23V79.25H72.91V65.82c0-2.66-.83-4.56-3.84-4.56a5.53,5.53,0,0,0-5.47,5.23V79.25H60.23V58.76Z"/><path class="cls-4" d="M101.89,58.28c6.5,0,9.95,4.72,9.95,10.74s-3.45,10.7-9.95,10.7S91.94,75,91.94,69s3.45-10.74,9.95-10.74m0,18.47c3.53,0,6.38-2.77,6.38-7.73s-2.85-7.77-6.38-7.77S95.51,64,95.51,69s2.85,7.73,6.38,7.73m1-26.47h4.32L102,55.95H99.47Z"/><polygon class="cls-4" points="124.08 79.25 120.47 79.25 112.87 58.76 116.63 58.76 122.38 75.84 122.46 75.84 128.04 58.76 131.57 58.76 124.08 79.25"/><path class="cls-4" d="M137.28,55.07h-3.37V51h3.37v4.12Zm-3.37,3.69h3.37V79.25h-3.37V58.76Z"/><rect class="cls-4" x="141.75" y="50.96" width="3.37" height="28.3"/><path class="cls-5" d="M255.53,68.52a51.41,51.41,0,1,0-51.41,51.41,51.41,51.41,0,0,0,51.41-51.41"/><path class="cls-1" d="M180.87,65.44a11.5,11.5,0,0,0-1.84-4,9.3,9.3,0,0,0-3.28-2.79,9.94,9.94,0,0,0-4.66-1,10.82,10.82,0,0,0-4.35.85,10.16,10.16,0,0,0-5.57,5.84,12,12,0,0,0-.77,4.35,12.71,12.71,0,0,0,.73,4.42,10.42,10.42,0,0,0,2.14,3.5,9.28,9.28,0,0,0,3.39,2.27,12,12,0,0,0,4.44.78A10.9,10.9,0,0,0,177.14,78a7.71,7.71,0,0,0,2.22-2.19,11.76,11.76,0,0,0,1.54-3.21l0.14-.43s0.07-.19-0.16-0.19h-5.38a0.27,0.27,0,0,0-.31.15l-0.06.18a2,2,0,0,1-.4.73,4.41,4.41,0,0,1-3.47,1.51,5.88,5.88,0,0,1-1.9-.27,3.65,3.65,0,0,1-1.33-.8,3.54,3.54,0,0,1-.84-1.38,6.94,6.94,0,0,1-.34-1.67H181a0.25,0.25,0,0,0,.23-0.26l0-.18c0-.35,0-0.71,0-1.05a14.42,14.42,0,0,0-.42-3.55m-13.15-1.33a3.65,3.65,0,0,1,1.23-1,4.28,4.28,0,0,1,2-.4,4.69,4.69,0,0,1,1.6.25,2.54,2.54,0,0,1,1,.68A5.29,5.29,0,0,1,174.71,66H166.9c0-.22.09-0.45,0.16-0.7a3.64,3.64,0,0,1,.66-1.23"/><path class="cls-1" d="M201.37,79L193.76,68l6.87-9.78s0.08-.13-0.15-0.13h-6.95a0.32,0.32,0,0,0-.28.13l-3.11,4.67L187,58.29a0.42,0.42,0,0,0-.33-0.15h-7.13c-0.21,0-.1.14-0.1,0.14l0.49,0.7,6.36,9.18L178.86,79s-0.14.2,0.11,0.2h7a0.46,0.46,0,0,0,.4-0.23l3.73-5.65L193.8,79a0.51,0.51,0,0,0,.39.24h7.06c0.28,0,.12-0.23.12-0.23"/><path class="cls-1" d="M210.16,58.14h-8c-0.28,0-.23.19-0.23,0.19L203.05,79a0.27,0.27,0,0,0,.24.26H209a0.25,0.25,0,0,0,.23-0.27l1.16-20.57a0.21,0.21,0,0,0-.2-0.23"/><path class="cls-1" d="M225.42,62.87a0.23,0.23,0,0,0,.21-0.25V58.35a0.2,0.2,0,0,0-.22-0.21H221.6V52.37a0.21,0.21,0,0,0-.22-0.24h-6.11a0.22,0.22,0,0,0-.23.24v5.77H212c-0.28,0-.25.19-0.25,0.19v4.31a0.2,0.2,0,0,0,.21.23H215V74.15a5.62,5.62,0,0,0,.57,2.68,4.11,4.11,0,0,0,1.57,1.64,6,6,0,0,0,2.2.75,16,16,0,0,0,2.49.18c0.56,0,1.1,0,1.69,0a15.09,15.09,0,0,0,1.6-.15l0.25,0a0.22,0.22,0,0,0,.2-0.27V74c0-.26-0.21-0.17-0.21-0.17L225,73.9c-0.24,0-.49.08-0.75,0.1a7.11,7.11,0,0,1-.84,0,4.29,4.29,0,0,1-1-.11,0.85,0.85,0,0,1-.45-0.21,0.89,0.89,0,0,1-.21-0.44,4.16,4.16,0,0,1-.11-1V62.87h3.82Z"/><path class="cls-1" d="M247,64.16a9.69,9.69,0,0,0-5.67-5.77,13,13,0,0,0-8.93,0,9.73,9.73,0,0,0-5.64,5.77,13.75,13.75,0,0,0,0,9.07A10,10,0,0,0,229,76.72,9.44,9.44,0,0,0,232.43,79a12.17,12.17,0,0,0,4.46.78,12.34,12.34,0,0,0,4.46-.78,9.52,9.52,0,0,0,3.46-2.24A10,10,0,0,0,247,73.23a13.85,13.85,0,0,0,0-9.07M239,74.08a4.77,4.77,0,0,1-4.14,0,3.8,3.8,0,0,1-1.3-1.27,5.45,5.45,0,0,1-.72-1.88,10.77,10.77,0,0,1-.23-2.24,11.16,11.16,0,0,1,.23-2.26,5.24,5.24,0,0,1,.72-1.87,3.86,3.86,0,0,1,1.33-1.28,3.9,3.9,0,0,1,2.05-.49,4,4,0,0,1,2.07.49,3.84,3.84,0,0,1,1.33,1.28,5.21,5.21,0,0,1,.73,1.87,11.59,11.59,0,0,1,.22,2.26,11.18,11.18,0,0,1-.22,2.24,5.57,5.57,0,0,1-.73,1.88A3.61,3.61,0,0,1,239,74.08"/><path class="cls-6" d="M210.05,84.24a3.93,3.93,0,1,0-3.93,3.92,3.93,3.93,0,0,0,3.93-3.92"/><path class="cls-1" d="M252.9,60.2a2.55,2.55,0,0,1-.34,1.28,2.61,2.61,0,0,1-2.24,1.29,2.45,2.45,0,0,1-1.28-.35,2.37,2.37,0,0,1-.94-0.94,2.49,2.49,0,0,1-.36-1.28,2.56,2.56,0,0,1,.36-1.29A2.33,2.33,0,0,1,249,58a2.39,2.39,0,0,1,1.28-.34,2.6,2.6,0,0,1,2.24,1.28,2.62,2.62,0,0,1,.34,1.29m-0.49,0a2.07,2.07,0,0,0-2.09-2.08,2.07,2.07,0,0,0-2.07,2.08,2.06,2.06,0,0,0,2.07,2.07,2.07,2.07,0,0,0,2.09-2.07m-3.25-1.38h1.24a1.12,1.12,0,0,1,.75.22,0.76,0.76,0,0,1,.06,1,1,1,0,0,1-.56.29,1,1,0,0,1,.23.12,1.62,1.62,0,0,1,.22.29s0.15,0.28.45,0.79h-0.82a6.89,6.89,0,0,0-.53-0.94,0.36,0.36,0,0,0-.27-0.16h-0.08v1.08h-0.69V58.82ZM249.85,60h0.28a0.71,0.71,0,0,0,.43-0.1,0.29,0.29,0,0,0,.11-0.24,0.27,0.27,0,0,0-.11-0.24,0.59,0.59,0,0,0-.39-0.11h-0.32V60Z"/><path class="cls-1" d="M171.88,52.28l-3.08,3.86s-0.19.22,0.06,0.22h3.64a0.69,0.69,0,0,0,.46-0.15l5.16-3.93s0.19-.16-0.05-0.16h-5.82a0.41,0.41,0,0,0-.37.16"/></svg>