<svg id="Capa_1" data-name="Capa 1" xmlns="http://www.w3.org/2000/svg" viewBox="0 0 176.17 212.73"><defs><style>.cls-1{fill:#faeb15;}.cls-2{fill:#704790;}</style></defs><title>landing-svg</title><path class="cls-1" d="M51,159.87A6.12,6.12,0,0,1,47,161H43.62v5.77H40.29v-16h6.89A5.56,5.56,0,0,1,51,152a4.85,4.85,0,0,1,1.42,3.84Q52.4,158.7,51,159.87Zm-2.56-5.78a2.7,2.7,0,0,0-1.78-.53h-3v4.73h3a2.56,2.56,0,0,0,1.78-.58,2.35,2.35,0,0,0,.64-1.83A2.21,2.21,0,0,0,48.43,154.09Z"/><path class="cls-1" d="M59.53,159.6a4.91,4.91,0,0,0,1.24-.27,0.93,0.93,0,0,0,.67-0.88,1,1,0,0,0-.51-1,3.23,3.23,0,0,0-1.51-.28,2,2,0,0,0-1.58.54,2.25,2.25,0,0,0-.44,1.09h-3a4.55,4.55,0,0,1,.88-2.56q1.24-1.57,4.24-1.57a7.56,7.56,0,0,1,3.48.77,3,3,0,0,1,1.52,2.92v5.44q0,0.57,0,1.37a1.72,1.72,0,0,0,.18.83,1.11,1.11,0,0,0,.46.36v0.46H61.81a3.49,3.49,0,0,1-.2-0.67c0-.21-0.06-0.45-0.09-0.72A6.4,6.4,0,0,1,60,166.61a4.5,4.5,0,0,1-2.28.58,3.93,3.93,0,0,1-2.68-.92A3.27,3.27,0,0,1,54,163.66a3.38,3.38,0,0,1,1.7-3.17,7.62,7.62,0,0,1,2.74-.76Zm1.9,1.45a3.39,3.39,0,0,1-.6.3,5,5,0,0,1-.83.21l-0.71.13a4.64,4.64,0,0,0-1.43.42,1.42,1.42,0,0,0-.73,1.32,1.37,1.37,0,0,0,.45,1.15,1.7,1.7,0,0,0,1.09.35,3.24,3.24,0,0,0,1.87-.59,2.49,2.49,0,0,0,.89-2.14V161Z"/><path class="cls-1" d="M73.88,155.37A4.76,4.76,0,0,1,75,156.73V155h3v16.55H74.89v-6.17a3.3,3.3,0,0,1-1.19,1.28,4.12,4.12,0,0,1-2.3.56,4.51,4.51,0,0,1-3.51-1.65,6.41,6.41,0,0,1-1.45-4.39,7.26,7.26,0,0,1,1.45-4.74,4.46,4.46,0,0,1,3.59-1.78A3.73,3.73,0,0,1,73.88,155.37Zm0.66,7.79a5.28,5.28,0,0,0,.44-2.29,4.89,4.89,0,0,0-.37-2,2.36,2.36,0,0,0-2.33-1.55,2.29,2.29,0,0,0-1.89.91,4.39,4.39,0,0,0-.71,2.75,5.3,5.3,0,0,0,.33,2,2.25,2.25,0,0,0,2.27,1.49A2.35,2.35,0,0,0,74.54,163.16Z"/><path class="cls-1" d="M83.95,155v7.15a3.76,3.76,0,0,0,.24,1.52,1.65,1.65,0,0,0,1.66.9A2.17,2.17,0,0,0,88,163.25a4.69,4.69,0,0,0,.3-1.84V155h3.15v11.87h-3v-1.68l-0.22.33a2.23,2.23,0,0,1-.41.48,4.31,4.31,0,0,1-1.41.89,4.77,4.77,0,0,1-1.59.24,3.54,3.54,0,0,1-3.54-1.89,7.26,7.26,0,0,1-.51-3.08V155h3.18Z"/><path class="cls-1" d="M102.21,155.19a4.82,4.82,0,0,1,2.05,1.75,5.82,5.82,0,0,1,.95,2.45,15.17,15.17,0,0,1,.1,2.36H96.66a2.85,2.85,0,0,0,1.24,2.5,3.15,3.15,0,0,0,1.71.45,2.41,2.41,0,0,0,2.36-1.36h3.17a3.88,3.88,0,0,1-1.15,2.14,5.77,5.77,0,0,1-4.46,1.73,6.47,6.47,0,0,1-4.18-1.46q-1.81-1.46-1.81-4.75a6.42,6.42,0,0,1,1.63-4.73,5.72,5.72,0,0,1,4.24-1.65A6.75,6.75,0,0,1,102.21,155.19Zm-4.64,2.68a3.22,3.22,0,0,0-.83,1.84h5.35a2.59,2.59,0,0,0-.83-1.87,2.72,2.72,0,0,0-1.84-.64A2.46,2.46,0,0,0,97.57,157.87Z"/><path class="cls-1" d="M105.66,157.27v-2.21h1.65v-3.31h3.07v3.31h1.93v2.21h-1.93v6.27a1.41,1.41,0,0,0,.19.91,2,2,0,0,0,1.13.18H112l0.31,0v2.32l-1.47.05a3.94,3.94,0,0,1-3-.76,2.26,2.26,0,0,1-.52-1.64v-7.3h-1.65Z"/><path class="cls-1" d="M122,155.19a4.83,4.83,0,0,1,2.05,1.75,5.85,5.85,0,0,1,.95,2.45,15.22,15.22,0,0,1,.1,2.36h-8.64a2.85,2.85,0,0,0,1.24,2.5,3.15,3.15,0,0,0,1.71.45,2.63,2.63,0,0,0,1.72-.54,2.6,2.6,0,0,0,.64-0.82H125a3.87,3.87,0,0,1-1.15,2.14,5.76,5.76,0,0,1-4.46,1.73,6.47,6.47,0,0,1-4.18-1.46q-1.81-1.46-1.81-4.75a6.42,6.42,0,0,1,1.63-4.73,5.72,5.72,0,0,1,4.24-1.65A6.75,6.75,0,0,1,122,155.19Zm-4.64,2.68a3.24,3.24,0,0,0-.83,1.84h5.35a2.59,2.59,0,0,0-.83-1.87,2.72,2.72,0,0,0-1.84-.64A2.46,2.46,0,0,0,117.39,157.87Z"/><path class="cls-1" d="M129.11,163a2.06,2.06,0,0,0,.43,1.18,2.89,2.89,0,0,0,2.14.62,3.28,3.28,0,0,0,1.46-.27,0.91,0.91,0,0,0,.1-1.61A17.93,17.93,0,0,0,130,162a6.73,6.73,0,0,1-2.85-1.25,2.72,2.72,0,0,1-.83-2.13,3.7,3.7,0,0,1,1.29-2.83,5.2,5.2,0,0,1,3.64-1.18,6.7,6.7,0,0,1,3.63.89,3.8,3.8,0,0,1,1.61,3.07h-3.1a1.83,1.83,0,0,0-.34-0.95,2.13,2.13,0,0,0-1.75-.63,2.52,2.52,0,0,0-1.45.32,0.91,0.91,0,0,0-.43.74,0.81,0.81,0,0,0,.46.77,19.78,19.78,0,0,0,3.24.86A5.94,5.94,0,0,1,135.9,161a3,3,0,0,1,.91,2.23,3.61,3.61,0,0,1-1.31,2.88,7.9,7.9,0,0,1-8.2-.07,3.84,3.84,0,0,1-1.34-3h3.15Z"/><path class="cls-1" d="M33.51,183.94a4.91,4.91,0,0,0,1.24-.27,0.93,0.93,0,0,0,.67-0.88,1,1,0,0,0-.51-1,3.23,3.23,0,0,0-1.51-.28,2,2,0,0,0-1.58.54,2.25,2.25,0,0,0-.44,1.09h-3a4.55,4.55,0,0,1,.88-2.56Q30.49,179,33.5,179a7.56,7.56,0,0,1,3.48.77,3,3,0,0,1,1.52,2.92v5.44q0,0.57,0,1.37a1.72,1.72,0,0,0,.18.83,1.11,1.11,0,0,0,.46.36v0.46H35.79a3.49,3.49,0,0,1-.2-0.67c0-.21-0.06-0.45-0.09-0.72A6.4,6.4,0,0,1,34,191a4.5,4.5,0,0,1-2.28.58,3.93,3.93,0,0,1-2.68-.92A3.27,3.27,0,0,1,28,188a3.38,3.38,0,0,1,1.7-3.17,7.62,7.62,0,0,1,2.74-.76Zm1.9,1.45a3.39,3.39,0,0,1-.6.3,5,5,0,0,1-.83.21l-0.71.13a4.64,4.64,0,0,0-1.43.42,1.42,1.42,0,0,0-.73,1.32,1.37,1.37,0,0,0,.45,1.15,1.7,1.7,0,0,0,1.09.35,3.24,3.24,0,0,0,1.87-.59,2.49,2.49,0,0,0,.89-2.14v-1.15Z"/><path class="cls-1" d="M50.57,191.16h-3.1v-16h3.1v16Z"/><path class="cls-1" d="M58.3,183.94a4.91,4.91,0,0,0,1.24-.27,0.93,0.93,0,0,0,.67-0.88,1,1,0,0,0-.51-1,3.24,3.24,0,0,0-1.51-.28,2,2,0,0,0-1.58.54,2.24,2.24,0,0,0-.44,1.09h-3a4.53,4.53,0,0,1,.87-2.56Q55.28,179,58.29,179a7.56,7.56,0,0,1,3.48.77,3,3,0,0,1,1.52,2.92v5.44q0,0.57,0,1.37a1.72,1.72,0,0,0,.19.83,1.11,1.11,0,0,0,.46.36v0.46H60.58a3.42,3.42,0,0,1-.2-0.67q-0.06-.32-0.09-0.72A6.37,6.37,0,0,1,58.81,191a4.5,4.5,0,0,1-2.28.58,3.93,3.93,0,0,1-2.68-.92A3.27,3.27,0,0,1,52.79,188a3.38,3.38,0,0,1,1.7-3.17,7.61,7.61,0,0,1,2.74-.76Zm1.9,1.45a3.42,3.42,0,0,1-.6.3,5,5,0,0,1-.83.21l-0.71.13a4.64,4.64,0,0,0-1.43.42,1.42,1.42,0,0,0-.73,1.32,1.38,1.38,0,0,0,.45,1.15,1.7,1.7,0,0,0,1.09.35,3.23,3.23,0,0,0,1.87-.59,2.49,2.49,0,0,0,.89-2.14v-1.15Z"/><path class="cls-1" d="M87,179.33a3.44,3.44,0,0,1,1.38,1.07,3.39,3.39,0,0,1,.67,1.52,10.56,10.56,0,0,1,.11,1.75l0,7.48H86V183.6a2.49,2.49,0,0,0-.22-1.11,1.55,1.55,0,0,0-1.53-.83,1.78,1.78,0,0,0-1.77,1.07,3.34,3.34,0,0,0-.25,1.36v7.07H79.07v-7.07a4,4,0,0,0-.22-1.54,1.52,1.52,0,0,0-1.54-.86,1.83,1.83,0,0,0-1.79.86,3.31,3.31,0,0,0-.25,1.46v7.14H72.14V179.31h3V181a5,5,0,0,1,1.09-1.32,4.31,4.31,0,0,1,4.54-.1,3.49,3.49,0,0,1,1,1.43,3.94,3.94,0,0,1,1.51-1.53,4.61,4.61,0,0,1,2.13-.49A4.14,4.14,0,0,1,87,179.33Z"/><path class="cls-1" d="M99.75,179.53a4.83,4.83,0,0,1,2.05,1.75,5.84,5.84,0,0,1,.95,2.45,15.2,15.2,0,0,1,.1,2.36H94.21a2.84,2.84,0,0,0,1.24,2.5,3.15,3.15,0,0,0,1.71.45,2.41,2.41,0,0,0,2.36-1.36h3.17a3.88,3.88,0,0,1-1.15,2.14,5.76,5.76,0,0,1-4.46,1.73,6.47,6.47,0,0,1-4.18-1.46q-1.81-1.46-1.81-4.75a6.42,6.42,0,0,1,1.63-4.73A5.72,5.72,0,0,1,97,179,6.75,6.75,0,0,1,99.75,179.53Zm-4.64,2.68a3.22,3.22,0,0,0-.83,1.84h5.35a2.59,2.59,0,0,0-.83-1.87,2.72,2.72,0,0,0-1.84-.64A2.46,2.46,0,0,0,95.11,182.21Z"/><path class="cls-1" d="M110.71,179.48a3.77,3.77,0,0,1,1.36,1.31v-5.66h3.15v16h-3v-1.64a4.38,4.38,0,0,1-1.51,1.54,4.26,4.26,0,0,1-2.11.48,4.41,4.41,0,0,1-3.5-1.68,6.47,6.47,0,0,1-1.42-4.32,7.43,7.43,0,0,1,1.4-4.78A4.55,4.55,0,0,1,108.8,179,3.82,3.82,0,0,1,110.71,179.48Zm0.76,8.45a4.33,4.33,0,0,0,.69-2.54,3.89,3.89,0,0,0-1.1-3.11,2.37,2.37,0,0,0-1.57-.57,2.18,2.18,0,0,0-2,1,5.55,5.55,0,0,0,0,5.18,2.19,2.19,0,0,0,2,1A2.29,2.29,0,0,0,111.47,187.94Z"/><path class="cls-1" d="M121.23,177.88h-3.15V175h3.15v2.86Zm-3.15,1.42h3.15v11.87h-3.15V179.29Z"/><path class="cls-1" d="M130.53,179.48a3.77,3.77,0,0,1,1.36,1.31v-5.66H135v16h-3v-1.64A4.38,4.38,0,0,1,130.5,191a4.26,4.26,0,0,1-2.11.48,4.41,4.41,0,0,1-3.5-1.68,6.47,6.47,0,0,1-1.42-4.32,7.43,7.43,0,0,1,1.4-4.78,4.55,4.55,0,0,1,3.74-1.74A3.82,3.82,0,0,1,130.53,179.48Zm0.76,8.45a4.33,4.33,0,0,0,.69-2.54,3.89,3.89,0,0,0-1.1-3.11,2.37,2.37,0,0,0-1.57-.57,2.18,2.18,0,0,0-2,1,5.55,5.55,0,0,0,0,5.18,2.19,2.19,0,0,0,2,1A2.29,2.29,0,0,0,131.29,187.94Z"/><path class="cls-1" d="M142.55,183.94a4.91,4.91,0,0,0,1.24-.27,0.93,0.93,0,0,0,.67-0.88,1,1,0,0,0-.51-1,3.23,3.23,0,0,0-1.51-.28,2,2,0,0,0-1.58.54,2.25,2.25,0,0,0-.44,1.09h-3a4.55,4.55,0,0,1,.88-2.56q1.24-1.57,4.24-1.57a7.56,7.56,0,0,1,3.48.77,3,3,0,0,1,1.52,2.92v5.44q0,0.57,0,1.37a1.72,1.72,0,0,0,.18.83,1.11,1.11,0,0,0,.46.36v0.46h-3.37a3.49,3.49,0,0,1-.2-0.67c0-.21-0.06-0.45-0.09-0.72a6.4,6.4,0,0,1-1.49,1.19,4.5,4.5,0,0,1-2.28.58,3.93,3.93,0,0,1-2.68-.92A3.27,3.27,0,0,1,137,188a3.38,3.38,0,0,1,1.7-3.17,7.62,7.62,0,0,1,2.74-.76Zm1.9,1.45a3.39,3.39,0,0,1-.6.3,5,5,0,0,1-.83.21l-0.71.13a4.64,4.64,0,0,0-1.43.42,1.42,1.42,0,0,0-.73,1.32,1.37,1.37,0,0,0,.45,1.15,1.7,1.7,0,0,0,1.09.35,3.24,3.24,0,0,0,1.87-.59,2.49,2.49,0,0,0,.89-2.14v-1.15Z"/><circle class="cls-1" cx="88.08" cy="81.04" r="62.23"/><path class="cls-2" d="M73.85,41.19a9.47,9.47,0,0,0-9.31,7.59h47.08a9.47,9.47,0,0,0-9.31-7.59H73.85ZM64.36,52.57V105.7H111.8V52.57H64.36Zm0,56.93v1.9a9.47,9.47,0,0,0,9.49,9.49h28.46a9.47,9.47,0,0,0,9.49-9.49v-1.9H64.36Zm16.13,3.8H95.67a1.9,1.9,0,0,1,0,3.8H80.49A1.9,1.9,0,0,1,80.49,113.29Z"/><path class="cls-1" d="M89.17,99.66h-2V95.6a13.91,13.91,0,0,1-6-1.76q-3.49-2.35-3.43-8h5.51a10,10,0,0,0,.8,3.45,4.2,4.2,0,0,0,3.12,1.78V82.35l-1.65-.49A10.57,10.57,0,0,1,80,78.68a7.72,7.72,0,0,1-1.6-4.92,9.19,9.19,0,0,1,.62-3.45,8.06,8.06,0,0,1,5-4.67,14.81,14.81,0,0,1,3.16-.51V62.41h2v2.75a10.16,10.16,0,0,1,5.2,1.63Q97.8,69,97.92,73.88H92.55a7.39,7.39,0,0,0-.61-2.65,3.14,3.14,0,0,0-2.78-1.59v7.78a25.49,25.49,0,0,1,6.5,3,7.23,7.23,0,0,1,2.74,6q0,5.14-3.78,7.47a12,12,0,0,1-5.47,1.67v4.1Zm-2-30a3.59,3.59,0,0,0-2.63.95,3.47,3.47,0,0,0-.86,2.48A3.26,3.26,0,0,0,85,75.82a7.29,7.29,0,0,0,2.2,1V69.68Zm2,21.33a5.13,5.13,0,0,0,2.32-.73A3.77,3.77,0,0,0,92.76,87a3.46,3.46,0,0,0-1.19-2.78A8.58,8.58,0,0,0,89.17,83v8Z"/></svg>