<svg id="Capa_1" data-name="Capa 1" xmlns="http://www.w3.org/2000/svg" viewBox="0 0 176.17 212.73"><defs><style>.cls-1{fill:#faeb15;}.cls-2{fill:#704790;}</style></defs><title>landing-svg</title><circle class="cls-1" cx="88.08" cy="79.8" r="62.23"/><path class="cls-2" d="M58.16,76.15H46.94V66.23c7,0.14,13.84-2.48,14.25-10.4H72.48v47.92H58.16V76.15Z"/><path class="cls-2" d="M114.91,76.15H103.69V66.23c7,0.14,13.84-2.48,14.25-10.4h11.29v47.92H114.91V76.15Z"/><path class="cls-2" d="M88.18,92.15L81.46,82.6h7.38l3.09,5.55,3-5.55h7l-6.55,9.61L102.68,103H95.1l-3.49-6.09L88,103H80.8Z"/><path class="cls-1" d="M22.42,154.69v-2.11a13.6,13.6,0,0,0,2.05-.2,2.89,2.89,0,0,0,1.52-.83,2.72,2.72,0,0,0,.61-1.13,2.58,2.58,0,0,0,.12-0.63h2.59v15.79H26.13V154.69H22.42Z"/><path class="cls-1" d="M50.9,155a6.32,6.32,0,0,1,1.45,4.51,7.11,7.11,0,0,1-1.42,4.78,4.61,4.61,0,0,1-3.65,1.64,3.83,3.83,0,0,1-2.37-.71,4.6,4.6,0,0,1-1-1.14v6.18H40.83V153.71h3v1.75a5,5,0,0,1,1.07-1.22,4,4,0,0,1,2.48-.79A4.69,4.69,0,0,1,50.9,155Zm-2.38,2.23a2.21,2.21,0,0,0-2.05-1.06,2.33,2.33,0,0,0-2.34,1.6,6,6,0,0,0-.33,2.16,3.42,3.42,0,0,0,1.11,2.91,2.54,2.54,0,0,0,1.56.49,2.27,2.27,0,0,0,2-1A5.25,5.25,0,0,0,48.52,157.21Z"/><path class="cls-1" d="M61.13,153.43l0.27,0v3.18l-0.52,0H60.51A2.58,2.58,0,0,0,58,157.79a4.76,4.76,0,0,0-.36,2.11v5.67H54.51V153.71h3v2.07a6.58,6.58,0,0,1,1.25-1.62,3.41,3.41,0,0,1,2.26-.73h0.15Z"/><path class="cls-1" d="M73.11,164.12A5.53,5.53,0,0,1,68.55,166,5.52,5.52,0,0,1,64,164.12a7.36,7.36,0,0,1,0-8.91,5.49,5.49,0,0,1,4.56-1.88,5.49,5.49,0,0,1,4.56,1.88A7.36,7.36,0,0,1,73.11,164.12Zm-2.48-1.71a5.55,5.55,0,0,0,0-5.5,2.76,2.76,0,0,0-4.19,0,5.5,5.5,0,0,0,0,5.5A2.75,2.75,0,0,0,70.63,162.41Z"/><path class="cls-1" d="M83.13,153.9a3.78,3.78,0,0,1,1.36,1.31v-5.66h3.15v16h-3v-1.64a4.37,4.37,0,0,1-1.51,1.54,4.26,4.26,0,0,1-2.11.48,4.41,4.41,0,0,1-3.5-1.68,6.47,6.47,0,0,1-1.42-4.32,7.44,7.44,0,0,1,1.4-4.78,4.55,4.55,0,0,1,3.74-1.74A3.82,3.82,0,0,1,83.13,153.9Zm0.76,8.45a4.33,4.33,0,0,0,.69-2.54,3.89,3.89,0,0,0-1.1-3.11,2.37,2.37,0,0,0-1.57-.57,2.18,2.18,0,0,0-2,1,5.55,5.55,0,0,0,0,5.18,2.19,2.19,0,0,0,2,1A2.29,2.29,0,0,0,83.89,162.35Z"/><path class="cls-1" d="M93.55,153.71v7.15a3.76,3.76,0,0,0,.24,1.52,1.65,1.65,0,0,0,1.66.9A2.16,2.16,0,0,0,97.61,162a4.65,4.65,0,0,0,.3-1.84v-6.46h3.15v11.87H98V163.9l-0.22.33a2.18,2.18,0,0,1-.41.48,4.28,4.28,0,0,1-1.41.89,4.76,4.76,0,0,1-1.59.24,3.54,3.54,0,0,1-3.54-1.89,7.27,7.27,0,0,1-.51-3.08v-7.15h3.18Z"/><path class="cls-1" d="M111.17,158a2.75,2.75,0,0,0-.45-1.2,1.88,1.88,0,0,0-1.63-.72,2.14,2.14,0,0,0-2.15,1.56,6.46,6.46,0,0,0-.31,2.19,5.93,5.93,0,0,0,.31,2.1,2.07,2.07,0,0,0,2.09,1.48,1.85,1.85,0,0,0,1.55-.59,2.93,2.93,0,0,0,.56-1.52h3.17a5.18,5.18,0,0,1-1,2.68,5,5,0,0,1-4.33,2,5.06,5.06,0,0,1-4.22-1.7,6.86,6.86,0,0,1-1.35-4.4,7,7,0,0,1,1.49-4.75,5.2,5.2,0,0,1,4.12-1.7,6.21,6.21,0,0,1,3.66,1,4.66,4.66,0,0,1,1.68,3.54h-3.18Z"/><path class="cls-1" d="M115.26,156v-2.21h1.66v-3.31H120v3.31h1.93V156H120v6.27a1.41,1.41,0,0,0,.18.91,2,2,0,0,0,1.13.18h0.3l0.31,0v2.32l-1.47.05a4,4,0,0,1-3-.76,2.27,2.27,0,0,1-.52-1.64V156h-1.66Z"/><path class="cls-1" d="M133.8,164.12a6.54,6.54,0,0,1-9.12,0,7.36,7.36,0,0,1,0-8.91,6.47,6.47,0,0,1,9.12,0A7.36,7.36,0,0,1,133.8,164.12Zm-2.48-1.71a5.54,5.54,0,0,0,0-5.5,2.76,2.76,0,0,0-4.19,0,5.5,5.5,0,0,0,0,5.5A2.75,2.75,0,0,0,131.31,162.41Z"/><path class="cls-1" d="M154.85,155.7v2.86H143.06V155.7h11.79Zm0,5.08v2.86H143.06v-2.86h11.79Z"/><path class="cls-1" d="M43.18,179v-2.11a13.6,13.6,0,0,0,2.05-.2,2.89,2.89,0,0,0,1.52-.83,2.72,2.72,0,0,0,.61-1.13,2.58,2.58,0,0,0,.12-0.63h2.59v15.79H46.89V179H43.18Z"/><path class="cls-1" d="M76.48,178.09a3.45,3.45,0,0,1,1.38,1.07,3.4,3.4,0,0,1,.67,1.52,10.58,10.58,0,0,1,.11,1.75l0,7.48H75.45v-7.56a2.49,2.49,0,0,0-.22-1.11,1.55,1.55,0,0,0-1.52-.83,1.78,1.78,0,0,0-1.77,1.07,3.35,3.35,0,0,0-.25,1.36v7.07H68.56v-7.07a4,4,0,0,0-.22-1.54,1.52,1.52,0,0,0-1.54-.86,1.83,1.83,0,0,0-1.79.86,3.33,3.33,0,0,0-.25,1.46v7.14H61.62V178.07h3v1.73a5,5,0,0,1,1.09-1.32,4.31,4.31,0,0,1,4.54-.1,3.48,3.48,0,0,1,1,1.43,3.94,3.94,0,0,1,1.51-1.53,4.61,4.61,0,0,1,2.13-.49A4.13,4.13,0,0,1,76.48,178.09Z"/><path class="cls-1" d="M84.69,176.63H81.54v-2.86h3.15v2.86ZM81.54,178h3.15v11.87H81.54V178Z"/><path class="cls-1" d="M97.27,178.73a3.93,3.93,0,0,1,1.17,3.2v8H95.25V182.7a3.31,3.31,0,0,0-.25-1.44,1.75,1.75,0,0,0-1.73-.91,2.14,2.14,0,0,0-2.15,1.34,4.64,4.64,0,0,0-.3,1.81v6.42h-3.1V178.07h3v1.73a5.28,5.28,0,0,1,1.13-1.32,3.91,3.91,0,0,1,2.42-.72A4.55,4.55,0,0,1,97.27,178.73Z"/><path class="cls-1" d="M104.41,178v7.15a3.74,3.74,0,0,0,.24,1.52,1.65,1.65,0,0,0,1.66.9,2.17,2.17,0,0,0,2.17-1.29,4.67,4.67,0,0,0,.3-1.84V178h3.15v11.87h-3v-1.68l-0.22.33a2.24,2.24,0,0,1-.41.48,4.3,4.3,0,0,1-1.41.89,4.77,4.77,0,0,1-1.59.24,3.54,3.54,0,0,1-3.54-1.89,7.27,7.27,0,0,1-.51-3.08V178h3.18Z"/><path class="cls-1" d="M113.72,180.37v-2.21h1.66v-3.31h3.07v3.31h1.93v2.21h-1.93v6.27a1.41,1.41,0,0,0,.18.91,2,2,0,0,0,1.13.18h0.3l0.31,0V190l-1.47.05a3.94,3.94,0,0,1-3-.76,2.27,2.27,0,0,1-.52-1.64v-7.3h-1.66Z"/><path class="cls-1" d="M132.26,188.46a6.54,6.54,0,0,1-9.12,0,7.36,7.36,0,0,1,0-8.91,6.47,6.47,0,0,1,9.12,0A7.36,7.36,0,0,1,132.26,188.46Zm-2.48-1.71a5.53,5.53,0,0,0,0-5.5,2.76,2.76,0,0,0-4.19,0,5.51,5.51,0,0,0,0,5.5A2.75,2.75,0,0,0,129.77,186.75Z"/></svg>