<svg id="Capa_1" data-name="Capa 1" xmlns="http://www.w3.org/2000/svg" viewBox="0 0 589.69 90.18"><defs><style>.cls-1{fill:#fff;}.cls-2{fill:#faeb15;}</style></defs><title>landing-svg</title><path class="cls-1" d="M23,20.25H35.3c4.1,0,6.69,2.85,6.69,6.3,0,2.69-1.09,4.7-3.62,5.73v0.06c2.46,0.64,3.17,3,3.33,5.34,0.1,1.44.06,4.13,1,5.41h-5c-0.61-1.44-.54-3.65-0.8-5.47-0.35-2.4-1.28-3.46-3.81-3.46H28V43.1H23V20.25Zm5,10.34h5.5c2.24,0,3.46-1,3.46-3.26s-1.22-3.17-3.46-3.17H28v6.43Z"/><path class="cls-1" d="M48.55,35.93c0.13,2.88,1.54,4.19,4.06,4.19A3.74,3.74,0,0,0,56.2,38h4c-1.28,3.9-4,5.57-7.74,5.57C47.24,43.55,44,40,44,34.84c0-5,3.42-8.74,8.45-8.74,5.63,0,8.35,4.74,8,9.82H48.55Zm7.39-2.88c-0.42-2.3-1.41-3.52-3.62-3.52a3.58,3.58,0,0,0-3.78,3.52h7.39Z"/><path class="cls-1" d="M73.64,32.38a3.1,3.1,0,0,0-3.36-2.85c-2.91,0-3.87,2.94-3.87,5.38s0.93,5.22,3.78,5.22a3.5,3.5,0,0,0,3.62-3.36h4.38c-0.58,4.38-3.62,6.78-8,6.78-5,0-8.35-3.52-8.35-8.48,0-5.15,3.07-9,8.45-9,3.9,0,7.49,2,7.78,6.27H73.64Z"/><path class="cls-1" d="M84.61,24H80.07V20.25h4.54V24Zm-4.54,2.56h4.54V43.1H80.07V26.55Z"/><path class="cls-1" d="M87.39,20.25h4.54v8.32H92a6.11,6.11,0,0,1,5.22-2.46c3.3,0,6.85,2.66,6.85,8.7s-3.55,8.74-6.85,8.74c-2.43,0-4.45-.74-5.44-2.56H91.71V43.1H87.39V20.25Zm8.26,9.28c-2.69,0-3.87,2.53-3.87,5.31s1.18,5.28,3.87,5.28,3.87-2.53,3.87-5.28S98.34,29.53,95.65,29.53Z"/><path class="cls-1" d="M109.89,35.93c0.13,2.88,1.54,4.19,4.06,4.19A3.74,3.74,0,0,0,117.54,38h4c-1.28,3.9-4,5.57-7.74,5.57-5.22,0-8.45-3.58-8.45-8.7,0-5,3.42-8.74,8.45-8.74,5.63,0,8.35,4.74,8,9.82H109.89Zm7.39-2.88c-0.42-2.3-1.41-3.52-3.62-3.52a3.58,3.58,0,0,0-3.78,3.52h7.39Z"/><path class="cls-1" d="M127.23,37.72c0,2,1.7,2.78,3.49,2.78,1.31,0,3-.51,3-2.11,0-1.37-1.89-1.86-5.15-2.56-2.62-.58-5.25-1.5-5.25-4.42,0-4.22,3.65-5.31,7.2-5.31s6.94,1.22,7.29,5.28h-4.32c-0.13-1.76-1.47-2.24-3.1-2.24-1,0-2.53.19-2.53,1.54,0,1.63,2.56,1.86,5.15,2.46s5.25,1.57,5.25,4.64c0,4.35-3.78,5.76-7.55,5.76s-7.58-1.44-7.78-5.82h4.32Z"/><path class="cls-2" d="M159,43.1h-4.54V28.57h-5.63V25.15c3.17,0.06,6.08-1,6.56-4.45H159V43.1Z"/><path class="cls-2" d="M173.41,26.55h4.29v2.24h0.06a6,6,0,0,1,5.05-2.69,4.9,4.9,0,0,1,4.83,2.75,6,6,0,0,1,5-2.75c3.52,0,6,1.63,6,5.92V43.1h-4.54V33.72c0-2.21-.19-4-2.78-4s-3,2.11-3,4.19V43.1h-4.54V33.82c0-1.92.13-4.13-2.75-4.13-0.9,0-3.07.58-3.07,3.81v9.6h-4.54V26.55Z"/><path class="cls-2" d="M206.14,24H201.6V20.25h4.54V24Zm-4.54,2.56h4.54V43.1H201.6V26.55Z"/><path class="cls-2" d="M208.93,26.55h4.32v2.3h0.1a5.9,5.9,0,0,1,5.06-2.75c4.83,0,6,2.72,6,6.82V43.1H219.9V33.75c0-2.72-.8-4.06-2.91-4.06-2.46,0-3.52,1.38-3.52,4.74V43.1h-4.54V26.55Z"/><path class="cls-2" d="M242.62,43.1H238.3v-2.3h-0.1a5.9,5.9,0,0,1-5.06,2.75c-4.83,0-6-2.72-6-6.82V26.55h4.54V35.9c0,2.72.8,4.06,2.91,4.06,2.46,0,3.52-1.38,3.52-4.74V26.55h4.54V43.1Z"/><path class="cls-2" d="M251,26.55h3.33v3H251v8.19c0,1.54.38,1.92,1.92,1.92a7,7,0,0,0,1.41-.13v3.55a17.43,17.43,0,0,1-2.66.16c-2.78,0-5.21-.64-5.21-3.94V29.59h-2.75v-3h2.75v-5H251v5Z"/><path class="cls-2" d="M263.78,26.11c5.22,0,8.58,3.46,8.58,8.74s-3.36,8.7-8.58,8.7-8.54-3.46-8.54-8.7S258.59,26.11,263.78,26.11Zm0,14c3.1,0,4-2.66,4-5.28s-0.93-5.31-4-5.31-4,2.66-4,5.31S260.7,40.12,263.78,40.12Z"/><path class="cls-1" d="M282.59,26.55h4.32v2.11H287a5.51,5.51,0,0,1,4.93-2.56c5.18,0,7.52,4.19,7.52,8.9,0,4.42-2.43,8.54-7.26,8.54a5.87,5.87,0,0,1-5-2.5h-0.06v7.87h-4.54V26.55Zm12.29,8.32c0-2.62-1.06-5.34-4-5.34S287,32.19,287,34.87s1,5.25,4,5.25S294.88,37.56,294.88,34.87Z"/><path class="cls-1" d="M309.38,26.11c5.22,0,8.58,3.46,8.58,8.74s-3.36,8.7-8.58,8.7-8.54-3.46-8.54-8.7S304.19,26.11,309.38,26.11Zm0,14c3.1,0,4-2.66,4-5.28s-0.93-5.31-4-5.31-4,2.66-4,5.31S306.3,40.12,309.38,40.12Z"/><path class="cls-1" d="M320.1,26.55h4.32v3.07h0.06a5.85,5.85,0,0,1,5.28-3.52,3.39,3.39,0,0,1,1,.16v4.22a8.32,8.32,0,0,0-1.63-.16c-3.33,0-4.48,2.4-4.48,5.31V43.1H320.1V26.55Z"/><path class="cls-1" d="M351.1,32.38a3.1,3.1,0,0,0-3.36-2.85c-2.91,0-3.87,2.94-3.87,5.38s0.93,5.22,3.78,5.22a3.5,3.5,0,0,0,3.62-3.36h4.38c-0.58,4.38-3.62,6.78-8,6.78-5,0-8.35-3.52-8.35-8.48,0-5.15,3.07-9,8.45-9,3.9,0,7.49,2,7.78,6.27H351.1Z"/><path class="cls-1" d="M357.22,31.64c0.26-4.26,4.06-5.54,7.78-5.54,3.29,0,7.26.74,7.26,4.7v8.61a8.47,8.47,0,0,0,.58,3.68h-4.61a6.76,6.76,0,0,1-.32-1.6,7.59,7.59,0,0,1-5.57,2c-3.14,0-5.63-1.57-5.63-5,0-3.74,2.82-4.64,5.63-5s5.38-.32,5.38-2.18-1.34-2.24-2.94-2.24-2.85.7-3,2.5h-4.54ZM367.71,35c-0.77.67-2.37,0.7-3.78,1s-2.69.77-2.69,2.43,1.31,2.11,2.78,2.11c3.55,0,3.68-2.82,3.68-3.81V35Z"/><path class="cls-1" d="M386.78,41h-0.06a5.49,5.49,0,0,1-5,2.56c-5,0-7.42-4.29-7.42-8.86s2.46-8.58,7.33-8.58a5.69,5.69,0,0,1,4.9,2.46h0.06V20.25h4.54V43.1h-4.32V41Zm-4-11.46c-3,0-4,2.56-4,5.28s1.18,5.31,4,5.31c3,0,3.9-2.62,3.9-5.34S385.76,29.53,382.81,29.53Z"/><path class="cls-1" d="M393.53,31.64c0.26-4.26,4.06-5.54,7.78-5.54,3.3,0,7.26.74,7.26,4.7v8.61a8.47,8.47,0,0,0,.58,3.68h-4.61a6.76,6.76,0,0,1-.32-1.6,7.58,7.58,0,0,1-5.57,2c-3.14,0-5.63-1.57-5.63-5,0-3.74,2.82-4.64,5.63-5s5.38-.32,5.38-2.18-1.34-2.24-2.94-2.24-2.85.7-3,2.5h-4.54ZM404,35c-0.77.67-2.37,0.7-3.78,1s-2.69.77-2.69,2.43,1.31,2.11,2.78,2.11c3.55,0,3.68-2.82,3.68-3.81V35Z"/><path class="cls-1" d="M419.39,26.55h4.32v2.11h0.06a5.5,5.5,0,0,1,4.93-2.56c5.18,0,7.52,4.19,7.52,8.9,0,4.42-2.43,8.54-7.26,8.54a5.87,5.87,0,0,1-5-2.5h-0.06v7.87h-4.54V26.55Zm12.29,8.32c0-2.62-1.06-5.34-4-5.34s-3.94,2.66-3.94,5.34,1,5.25,4,5.25S431.68,37.56,431.68,34.87Z"/><path class="cls-1" d="M438.14,26.55h4.32v3.07h0.06a5.85,5.85,0,0,1,5.28-3.52,3.4,3.4,0,0,1,1,.16v4.22a8.32,8.32,0,0,0-1.63-.16c-3.33,0-4.48,2.4-4.48,5.31V43.1h-4.54V26.55Z"/><path class="cls-1" d="M457.25,26.11c5.22,0,8.58,3.46,8.58,8.74s-3.36,8.7-8.58,8.7-8.54-3.46-8.54-8.7S452.06,26.11,457.25,26.11Zm0,14c3.1,0,4-2.66,4-5.28s-0.93-5.31-4-5.31-4,2.66-4,5.31S454.17,40.12,457.25,40.12Z"/><path class="cls-1" d="M479.77,41h-0.06a5.49,5.49,0,0,1-5,2.56c-5,0-7.42-4.29-7.42-8.86s2.46-8.58,7.33-8.58a5.69,5.69,0,0,1,4.9,2.46h0.06V20.25h4.54V43.1h-4.32V41Zm-4-11.46c-3,0-4,2.56-4,5.28s1.18,5.31,4,5.31c3,0,3.9-2.62,3.9-5.34S478.75,29.53,475.8,29.53Z"/><path class="cls-1" d="M502.24,43.1h-4.32v-2.3h-0.1a5.9,5.9,0,0,1-5.06,2.75c-4.83,0-6-2.72-6-6.82V26.55h4.54V35.9c0,2.72.8,4.06,2.91,4.06,2.46,0,3.52-1.38,3.52-4.74V26.55h4.54V43.1Z"/><path class="cls-1" d="M516.16,32.38a3.1,3.1,0,0,0-3.36-2.85c-2.91,0-3.87,2.94-3.87,5.38s0.93,5.22,3.78,5.22a3.5,3.5,0,0,0,3.62-3.36h4.38c-0.58,4.38-3.62,6.78-8,6.78-5,0-8.35-3.52-8.35-8.48,0-5.15,3.07-9,8.45-9,3.9,0,7.49,2,7.78,6.27h-4.45Z"/><path class="cls-1" d="M528.22,26.55h3.33v3h-3.33v8.19c0,1.54.38,1.92,1.92,1.92a7,7,0,0,0,1.41-.13v3.55a17.45,17.45,0,0,1-2.66.16c-2.78,0-5.22-.64-5.22-3.94V29.59h-2.75v-3h2.75v-5h4.54v5Z"/><path class="cls-1" d="M541,26.11c5.22,0,8.58,3.46,8.58,8.74s-3.36,8.7-8.58,8.7-8.54-3.46-8.54-8.7S535.77,26.11,541,26.11Zm0,14c3.1,0,4-2.66,4-5.28s-0.93-5.31-4-5.31-4,2.66-4,5.31S537.88,40.12,541,40.12Z"/><path class="cls-1" d="M33.4,75.15h-2V68.72h0a4.18,4.18,0,0,1-4,2c-3.82,0-5.71-3-5.71-6.53s1.87-6.46,5.66-6.46a4.75,4.75,0,0,1,4,1.94h0V58h2V75.15Zm-5.76-6.26c2.74,0,3.79-2.35,3.79-4.68s-1.1-4.7-3.91-4.7-3.72,2.38-3.72,4.8S25,68.89,27.64,68.89Z"/><path class="cls-1" d="M46.21,70.4H44.29v-2h0a4.32,4.32,0,0,1-4,2.26c-3.26,0-4.27-1.87-4.27-4.54V58h2v8.4a2.34,2.34,0,0,0,2.52,2.5c2.47,0,3.67-1.66,3.67-3.89V58h2V70.4Z"/><path class="cls-1" d="M59.27,66.46A5,5,0,0,1,54,70.69c-4,0-5.83-2.74-6-6.53s2.45-6.46,5.83-6.46c4.39,0,5.74,4.1,5.62,7.1H50.17A3.66,3.66,0,0,0,54,68.89a3,3,0,0,0,3.22-2.42h2ZM57.3,63a3.57,3.57,0,0,0-3.58-3.5A3.53,3.53,0,0,0,50.17,63H57.3Z"/><path class="cls-1" d="M75.47,62A2.89,2.89,0,0,0,72.4,59.5c-3,0-3.87,2.33-3.87,4.85,0,2.28,1,4.54,3.63,4.54a3.21,3.21,0,0,0,3.41-3h2.09c-0.46,3-2.35,4.82-5.47,4.82-3.79,0-5.81-2.64-5.81-6.34s1.92-6.65,5.86-6.65C75,57.7,77.29,59,77.58,62H75.47Z"/><path class="cls-1" d="M84.68,57.7c3.94,0,6,2.86,6,6.5s-2.09,6.48-6,6.48-6-2.86-6-6.48S80.75,57.7,84.68,57.7Zm0,11.19c2.14,0,3.86-1.68,3.86-4.68s-1.73-4.7-3.86-4.7-3.86,1.68-3.86,4.7S82.55,68.89,84.68,68.89Z"/><path class="cls-1" d="M92.51,58h1.92v1.82h0a4.58,4.58,0,0,1,4-2.11,3.29,3.29,0,0,1,3.41,2.11,4.59,4.59,0,0,1,3.89-2.11c2.47,0,4.13,1,4.13,3.6v9.1h-2V62.26c0-1.54-.41-2.76-2.4-2.76a3,3,0,0,0-3.24,3.17V70.4h-2V62.26c0-1.61-.5-2.76-2.33-2.76a3.35,3.35,0,0,0-3.31,3.17V70.4h-2V58Z"/><path class="cls-1" d="M112.45,58h2v1.68h0a4.18,4.18,0,0,1,4-2c3.82,0,5.71,3,5.71,6.53s-1.87,6.46-5.67,6.46a4.75,4.75,0,0,1-4-1.94h0v6.41h-2V58Zm5.76,1.51c-2.74,0-3.79,2.35-3.79,4.68s1.1,4.71,3.91,4.71,3.72-2.38,3.72-4.8S120.85,59.5,118.21,59.5Z"/><path class="cls-1" d="M125.94,58h1.92V60.6h0a4.51,4.51,0,0,1,4.56-2.9v2.16c-3.29,0-4.49,1.87-4.49,5V70.4h-2V58Z"/><path class="cls-1" d="M144.4,70.35a2.75,2.75,0,0,1-1.46.34,1.63,1.63,0,0,1-1.73-1.92,5.51,5.51,0,0,1-4.37,1.92c-2.26,0-4.1-1-4.1-3.48,0-2.81,2.09-3.41,4.2-3.82s4.18-.29,4.18-1.82c0-1.78-1.46-2.06-2.76-2.06-1.73,0-3,.53-3.1,2.35h-2c0.12-3.07,2.5-4.15,5.26-4.15,2.23,0,4.66.5,4.66,3.41v6.38c0,1,0,1.39.65,1.39a1.76,1.76,0,0,0,.62-0.12v1.58ZM141.08,64c-0.79.58-2.33,0.6-3.7,0.84s-2.5.72-2.5,2.23c0,1.34,1.15,1.82,2.4,1.82,2.69,0,3.79-1.68,3.79-2.81V64Z"/><path class="cls-1" d="M146.94,66.49c0.07,1.82,1.66,2.4,3.34,2.4,1.27,0,3-.29,3-1.85s-2-1.85-4.06-2.3-4.06-1.13-4.06-3.5,2.47-3.53,4.63-3.53c2.74,0,4.92.86,5.09,3.89h-2C152.7,60,151.31,59.5,150,59.5s-2.64.34-2.64,1.58c0,1.46,2.16,1.7,4.06,2.16s4.06,1.13,4.06,3.53c0,3-2.76,3.91-5.28,3.91-2.78,0-5.14-1.13-5.26-4.2h2Z"/><path class="cls-1" d="M173.75,66.46a5,5,0,0,1-5.3,4.22c-4,0-5.83-2.74-6-6.53s2.45-6.46,5.83-6.46c4.39,0,5.74,4.1,5.62,7.1h-9.29a3.66,3.66,0,0,0,3.86,4.08,3,3,0,0,0,3.22-2.42h2Zm-2-3.46a3.57,3.57,0,0,0-3.58-3.5,3.53,3.53,0,0,0-3.55,3.5h7.13Z"/><path class="cls-1" d="M175.45,58h1.92v2h0a4.32,4.32,0,0,1,4-2.26c3.26,0,4.27,1.87,4.27,4.54V70.4h-2V62a2.34,2.34,0,0,0-2.52-2.5c-2.47,0-3.67,1.66-3.67,3.89v7h-2V58Z"/><path class="cls-1" d="M194.6,53.26h11.83v1.92h-9.55v5.45h8.91v1.92h-8.91v5.93h9.63V70.4H194.6V53.26Zm6.07-4.66h2.62L200.15,52h-1.54Z"/><path class="cls-1" d="M211.67,63.87L207.35,58H210l3,4.34L216,58h2.45l-4.27,5.71,4.8,6.7h-2.62l-3.46-5.14-3.46,5.14H207Z"/><path class="cls-1" d="M222.32,55.76h-2v-2.5h2v2.5Zm-2,2.23h2V70.4h-2V58Z"/><path class="cls-1" d="M227.72,58h2.47v1.8h-2.47v7.71c0,0.94.26,1.1,1.54,1.1h0.94v1.8h-1.56c-2.11,0-3-.43-3-2.71v-7.9h-2.11V58h2.11V54.27h2V58Z"/><path class="cls-1" d="M237.2,57.7c3.94,0,6,2.86,6,6.5s-2.09,6.48-6,6.48-6-2.86-6-6.48S233.26,57.7,237.2,57.7Zm0,11.19c2.14,0,3.86-1.68,3.86-4.68s-1.73-4.7-3.86-4.7-3.86,1.68-3.86,4.7S235.06,68.89,237.2,68.89Z"/><path class="cls-1" d="M245.48,67.73h2.66v2.42a3.57,3.57,0,0,1-2.64,3.77v-1.2a2.3,2.3,0,0,0,1.39-2.33h-1.42V67.73Z"/><path class="cls-1" d="M269.55,58.42a4.51,4.51,0,0,0-4.8-3.65c-4.08,0-5.81,3.36-5.81,6.94,0,3.91,1.73,7.18,5.83,7.18,3,0,4.73-2.11,4.94-4.95H272c-0.43,4.27-3.1,6.87-7.42,6.87-5.33,0-7.92-3.94-7.92-8.93s2.83-9,8.11-9c3.58,0,6.53,1.92,7.06,5.57h-2.28Z"/><path class="cls-1" d="M284.89,70.35a2.75,2.75,0,0,1-1.46.34,1.63,1.63,0,0,1-1.73-1.92,5.51,5.51,0,0,1-4.37,1.92c-2.26,0-4.1-1-4.1-3.48,0-2.81,2.09-3.41,4.2-3.82s4.18-.29,4.18-1.82c0-1.78-1.46-2.06-2.76-2.06-1.73,0-3,.53-3.1,2.35h-2c0.12-3.07,2.5-4.15,5.26-4.15,2.23,0,4.66.5,4.66,3.41v6.38c0,1,0,1.39.65,1.39a1.75,1.75,0,0,0,.62-0.12v1.58ZM281.58,64c-0.79.58-2.33,0.6-3.7,0.84s-2.5.72-2.5,2.23c0,1.34,1.15,1.82,2.4,1.82,2.69,0,3.79-1.68,3.79-2.81V64Z"/><path class="cls-1" d="M286.11,58H288V60.6h0a4.51,4.51,0,0,1,4.56-2.9v2.16c-3.29,0-4.49,1.87-4.49,5V70.4h-2V58Z"/><path class="cls-1" d="M303.85,70.4h-1.92v-2h0a4.32,4.32,0,0,1-4,2.26c-3.26,0-4.27-1.87-4.27-4.54V58h2v8.4a2.34,2.34,0,0,0,2.52,2.5c2.47,0,3.67-1.66,3.67-3.89V58h2V70.4Z"/><path class="cls-1" d="M306.44,53.26h2V70.4h-2V53.26Z"/><path class="cls-1" d="M311.17,53.26h2V70.4h-2V53.26Z"/><path class="cls-1" d="M326.77,70.35a2.76,2.76,0,0,1-1.46.34,1.63,1.63,0,0,1-1.73-1.92,5.51,5.51,0,0,1-4.37,1.92c-2.26,0-4.1-1-4.1-3.48,0-2.81,2.09-3.41,4.2-3.82s4.18-.29,4.18-1.82c0-1.78-1.46-2.06-2.76-2.06-1.73,0-3,.53-3.1,2.35h-2c0.12-3.07,2.5-4.15,5.26-4.15,2.23,0,4.66.5,4.66,3.41v6.38c0,1,0,1.39.65,1.39a1.76,1.76,0,0,0,.62-0.12v1.58ZM323.46,64c-0.79.58-2.33,0.6-3.7,0.84s-2.5.72-2.5,2.23c0,1.34,1.15,1.82,2.4,1.82,2.69,0,3.79-1.68,3.79-2.81V64Z"/><path class="cls-1" d="M328.52,67.73h2.66v2.42a3.57,3.57,0,0,1-2.64,3.77v-1.2a2.3,2.3,0,0,0,1.39-2.33h-1.42V67.73Z"/><path class="cls-1" d="M350.46,58.28c-0.26-2.45-1.9-3.5-4.25-3.5-1.92,0-3.84.7-3.84,2.93s2.74,2.42,5.5,3,5.47,1.58,5.47,4.94c0,3.65-3.58,5.11-6.7,5.11-3.84,0-7.08-1.87-7.08-6h2.16c0,2.88,2.4,4.13,5,4.13,2.06,0,4.34-.65,4.34-3.12s-2.74-2.76-5.47-3.36-5.5-1.39-5.5-4.54c0-3.48,3.1-5,6.22-5,3.5,0,6.17,1.66,6.31,5.42h-2.16Z"/><path class="cls-1" d="M365.43,70.4h-1.92v-2h0a4.32,4.32,0,0,1-4,2.26c-3.26,0-4.27-1.87-4.27-4.54V58h2v8.4a2.34,2.34,0,0,0,2.52,2.5c2.47,0,3.67-1.66,3.67-3.89V58h2V70.4Z"/><path class="cls-1" d="M367.83,58h1.92V60.6h0a4.51,4.51,0,0,1,4.56-2.9v2.16c-3.29,0-4.49,1.87-4.49,5V70.4h-2V58Z"/><path class="cls-1" d="M378.13,58h2.47v1.8h-2.47v7.71c0,0.94.26,1.1,1.54,1.1h0.94v1.8H379c-2.11,0-3-.43-3-2.71v-7.9H374V58h2.11V54.27h2V58Z"/><path class="cls-1" d="M384.41,55.76h-2v-2.5h2v2.5Zm-2,2.23h2V70.4h-2V58Z"/><path class="cls-1" d="M387,58h1.92v1.82h0a4.58,4.58,0,0,1,4-2.11,3.29,3.29,0,0,1,3.41,2.11,4.59,4.59,0,0,1,3.89-2.11c2.47,0,4.13,1,4.13,3.6v9.1h-2V62.26c0-1.54-.41-2.76-2.4-2.76a3,3,0,0,0-3.24,3.17V70.4h-2V62.26c0-1.61-.5-2.76-2.33-2.76A3.35,3.35,0,0,0,389,62.67V70.4h-2V58Z"/><path class="cls-1" d="M417.84,70.35a2.75,2.75,0,0,1-1.46.34,1.63,1.63,0,0,1-1.73-1.92,5.51,5.51,0,0,1-4.37,1.92c-2.26,0-4.1-1-4.1-3.48,0-2.81,2.09-3.41,4.2-3.82s4.18-.29,4.18-1.82c0-1.78-1.46-2.06-2.76-2.06-1.73,0-3,.53-3.1,2.35h-2c0.12-3.07,2.5-4.15,5.26-4.15,2.23,0,4.66.5,4.66,3.41v6.38c0,1,0,1.39.65,1.39a1.76,1.76,0,0,0,.62-0.12v1.58ZM414.53,64c-0.79.58-2.33,0.6-3.7,0.84s-2.5.72-2.5,2.23c0,1.34,1.15,1.82,2.4,1.82,2.69,0,3.79-1.68,3.79-2.81V64Z"/><path class="cls-1" d="M422.48,63.87L418.16,58h2.62l3,4.34,3.1-4.34h2.45L425,63.7l4.8,6.7H427.2l-3.46-5.14-3.46,5.14h-2.47Z"/><path class="cls-1" d="M441.92,72.05c-0.94,2.42-1.78,3.31-3.6,3.31a4,4,0,0,1-1.42-.22V73.28a4.18,4.18,0,0,0,1.2.29,1.76,1.76,0,0,0,1.68-1.13l0.84-2.11L435.7,58H438l3.62,10.15h0L445.16,58h2.16Z"/><path class="cls-1" d="M464.76,58.28c-0.26-2.45-1.9-3.5-4.25-3.5-1.92,0-3.84.7-3.84,2.93s2.74,2.42,5.5,3,5.47,1.58,5.47,4.94c0,3.65-3.58,5.11-6.7,5.11-3.84,0-7.08-1.87-7.08-6H456c0,2.88,2.4,4.13,5,4.13,2.06,0,4.34-.65,4.34-3.12s-2.74-2.76-5.47-3.36-5.5-1.39-5.5-4.54c0-3.48,3.1-5,6.22-5,3.5,0,6.17,1.66,6.31,5.42h-2.16Z"/><path class="cls-1" d="M479.74,70.4h-1.92v-2h0a4.32,4.32,0,0,1-4,2.26c-3.26,0-4.27-1.87-4.27-4.54V58h2v8.4a2.34,2.34,0,0,0,2.52,2.5c2.47,0,3.67-1.66,3.67-3.89V58h2V70.4ZM475.2,52.85h2.62l-3.14,3.43h-1.54Z"/><path class="cls-1" d="M482.28,58h2v1.68h0a4.18,4.18,0,0,1,4-2c3.82,0,5.71,3,5.71,6.53s-1.87,6.46-5.66,6.46a4.75,4.75,0,0,1-4-1.94h0v6.41h-2V58ZM488,59.5c-2.74,0-3.79,2.35-3.79,4.68s1.1,4.71,3.91,4.71,3.72-2.38,3.72-4.8S490.68,59.5,488,59.5Z"/><path class="cls-1" d="M506.43,66.46a5,5,0,0,1-5.3,4.22c-4,0-5.83-2.74-6-6.53s2.45-6.46,5.83-6.46c4.39,0,5.74,4.1,5.62,7.1h-9.29a3.66,3.66,0,0,0,3.86,4.08,3,3,0,0,0,3.22-2.42h2Zm-2-3.46a3.57,3.57,0,0,0-3.58-3.5,3.53,3.53,0,0,0-3.55,3.5h7.13Z"/><path class="cls-1" d="M508.06,58H510V60.6h0a4.51,4.51,0,0,1,4.56-2.9v2.16c-3.29,0-4.49,1.87-4.49,5V70.4h-2V58Z"/><path class="cls-1" d="M522,53.26h2.28V70.4H522V53.26Z"/><path class="cls-1" d="M527.21,58h1.92v2h0a4.32,4.32,0,0,1,4-2.26c3.26,0,4.27,1.87,4.27,4.54V70.4h-2V62a2.34,2.34,0,0,0-2.52-2.5c-2.47,0-3.67,1.66-3.67,3.89v7h-2V58Z"/><path class="cls-1" d="M542.79,58h2.47v1.8h-2.47v7.71c0,0.94.26,1.1,1.54,1.1h0.94v1.8H543.7c-2.11,0-3-.43-3-2.71v-7.9h-2.11V58h2.11V54.27h2V58Z"/><path class="cls-1" d="M557.5,66.46a5,5,0,0,1-5.3,4.22c-4,0-5.83-2.74-6-6.53s2.45-6.46,5.83-6.46c4.39,0,5.74,4.1,5.62,7.1H548.4a3.66,3.66,0,0,0,3.87,4.08,3,3,0,0,0,3.22-2.42h2Zm-2-3.46A3.57,3.57,0,0,0,552,59.5,3.53,3.53,0,0,0,548.4,63h7.13Z"/><path class="cls-1" d="M559.13,58H561V60.6h0a4.51,4.51,0,0,1,4.56-2.9v2.16c-3.29,0-4.49,1.87-4.49,5V70.4h-2V58Z"/><path class="cls-1" d="M564.84,67.73h2.66V70.4h-2.66V67.73Z"/></svg>