<svg id="Capa_1" data-name="Capa 1" xmlns="http://www.w3.org/2000/svg" viewBox="0 0 353.83 411.08"><defs><style>.cls-1{fill:#704790;}.cls-2{fill:#faeb15;}</style></defs><title>landing-svg</title><path class="cls-1" d="M134.28,338.33a7,7,0,0,1-4.62,1.35h-3.84v6.63H122V327.87h7.92a6.4,6.4,0,0,1,4.37,1.43,5.57,5.57,0,0,1,1.63,4.42Q135.9,337,134.28,338.33Zm-2.94-6.64a3.1,3.1,0,0,0-2.05-.61h-3.47v5.43h3.47a3,3,0,0,0,2.05-.66,2.71,2.71,0,0,0,.73-2.1A2.54,2.54,0,0,0,131.34,331.68Z"/><path class="cls-1" d="M144.1,338a5.64,5.64,0,0,0,1.42-.31,1.07,1.07,0,0,0,.77-1,1.2,1.2,0,0,0-.59-1.16,3.72,3.72,0,0,0-1.73-.32,2.27,2.27,0,0,0-1.81.63,2.57,2.57,0,0,0-.51,1.25h-3.44a5.21,5.21,0,0,1,1-2.94q1.42-1.8,4.88-1.8a8.7,8.7,0,0,1,4,.89,3.41,3.41,0,0,1,1.75,3.35v6.26q0,0.65,0,1.58a2,2,0,0,0,.21,1,1.27,1.27,0,0,0,.53.41v0.53h-3.88a4,4,0,0,1-.23-0.78c0-.24-0.08-0.52-0.1-0.83a7.37,7.37,0,0,1-1.71,1.36,5.18,5.18,0,0,1-2.62.66,4.52,4.52,0,0,1-3.08-1.06,3.76,3.76,0,0,1-1.21-3,3.88,3.88,0,0,1,2-3.64,8.72,8.72,0,0,1,3.15-.88Zm2.18,1.66a3.89,3.89,0,0,1-.69.34,5.83,5.83,0,0,1-1,.24l-0.81.15a5.33,5.33,0,0,0-1.64.49,1.63,1.63,0,0,0-.84,1.51,1.58,1.58,0,0,0,.51,1.32,2,2,0,0,0,1.25.41,3.72,3.72,0,0,0,2.15-.68,2.86,2.86,0,0,0,1-2.46v-1.33Z"/><path class="cls-1" d="M160.59,333.15a5.51,5.51,0,0,1,1.25,1.57v-2h3.44v19h-3.53v-7.09a3.79,3.79,0,0,1-1.37,1.47,4.73,4.73,0,0,1-2.65.64,5.18,5.18,0,0,1-4-1.89,7.36,7.36,0,0,1-1.66-5,8.34,8.34,0,0,1,1.67-5.45,5.13,5.13,0,0,1,4.12-2A4.28,4.28,0,0,1,160.59,333.15Zm0.76,9a6,6,0,0,0,.5-2.63,5.62,5.62,0,0,0-.43-2.24,2.71,2.71,0,0,0-2.68-1.78,2.63,2.63,0,0,0-2.18,1,5,5,0,0,0-.82,3.16,6.08,6.08,0,0,0,.38,2.32,2.59,2.59,0,0,0,2.61,1.72A2.7,2.7,0,0,0,161.35,342.1Z"/><path class="cls-1" d="M172.16,332.67v8.22a4.33,4.33,0,0,0,.27,1.75,1.89,1.89,0,0,0,1.91,1,2.49,2.49,0,0,0,2.49-1.48,5.36,5.36,0,0,0,.35-2.11v-7.42h3.62v13.64h-3.47v-1.93l-0.25.38a2.5,2.5,0,0,1-.47.55,5,5,0,0,1-1.62,1,5.52,5.52,0,0,1-1.83.28q-3,0-4.07-2.18a8.34,8.34,0,0,1-.59-3.54v-8.22h3.65Z"/><path class="cls-1" d="M193.15,332.95a5.55,5.55,0,0,1,2.36,2,6.71,6.71,0,0,1,1.09,2.82,17.48,17.48,0,0,1,.12,2.71h-9.93a3.27,3.27,0,0,0,1.43,2.88,3.63,3.63,0,0,0,2,.51,2.77,2.77,0,0,0,2.71-1.56h3.64a4.46,4.46,0,0,1-1.32,2.46,6.63,6.63,0,0,1-5.13,2,7.44,7.44,0,0,1-4.8-1.68q-2.08-1.68-2.08-5.46a7.38,7.38,0,0,1,1.88-5.43,6.57,6.57,0,0,1,4.88-1.89A7.77,7.77,0,0,1,193.15,332.95ZM187.81,336a3.71,3.71,0,0,0-1,2.11H193a3,3,0,0,0-1-2.16,3.12,3.12,0,0,0-2.11-.74A2.83,2.83,0,0,0,187.81,336Z"/><path class="cls-1" d="M197.11,335.34V332.8H199V329h3.53v3.8h2.21v2.54h-2.21v7.21a1.63,1.63,0,0,0,.21,1,2.34,2.34,0,0,0,1.3.21h0.34l0.36,0v2.67l-1.69.06q-2.53.09-3.45-.88a2.61,2.61,0,0,1-.6-1.89v-8.4h-1.9Z"/><path class="cls-1" d="M215.93,332.95a5.55,5.55,0,0,1,2.36,2,6.69,6.69,0,0,1,1.09,2.82,17.34,17.34,0,0,1,.12,2.71h-9.93a3.27,3.27,0,0,0,1.43,2.88,3.63,3.63,0,0,0,2,.51,2.77,2.77,0,0,0,2.71-1.56h3.64a4.45,4.45,0,0,1-1.32,2.46,6.63,6.63,0,0,1-5.13,2,7.43,7.43,0,0,1-4.8-1.68q-2.08-1.68-2.08-5.46a7.39,7.39,0,0,1,1.88-5.43,6.58,6.58,0,0,1,4.88-1.89A7.77,7.77,0,0,1,215.93,332.95ZM210.6,336a3.71,3.71,0,0,0-1,2.11h6.14a3,3,0,0,0-1-2.16,3.12,3.12,0,0,0-2.12-.74A2.83,2.83,0,0,0,210.6,336Z"/><path class="cls-1" d="M224.06,342a2.38,2.38,0,0,0,.49,1.35A3.33,3.33,0,0,0,227,344a3.77,3.77,0,0,0,1.68-.31,1,1,0,0,0,.12-1.85,20.41,20.41,0,0,0-3.73-1.08,7.74,7.74,0,0,1-3.28-1.44,3.12,3.12,0,0,1-1-2.45,4.25,4.25,0,0,1,1.49-3.25,6,6,0,0,1,4.18-1.36,7.69,7.69,0,0,1,4.17,1,4.37,4.37,0,0,1,1.85,3.52H229a2.12,2.12,0,0,0-.39-1.09,2.45,2.45,0,0,0-2-.73,2.9,2.9,0,0,0-1.66.36,1,1,0,0,0-.5.85,0.93,0.93,0,0,0,.53.89,22.84,22.84,0,0,0,3.72,1,6.82,6.82,0,0,1,3.19,1.51,3.44,3.44,0,0,1,1.05,2.57,4.14,4.14,0,0,1-1.51,3.31,7.11,7.11,0,0,1-4.67,1.28,7,7,0,0,1-4.76-1.36,4.41,4.41,0,0,1-1.54-3.46h3.62Z"/><path class="cls-1" d="M114.19,364a5.62,5.62,0,0,0,1.42-.31,1.07,1.07,0,0,0,.77-1,1.2,1.2,0,0,0-.59-1.16,3.73,3.73,0,0,0-1.73-.32,2.27,2.27,0,0,0-1.81.63,2.58,2.58,0,0,0-.51,1.25H108.3a5.22,5.22,0,0,1,1-2.94q1.42-1.8,4.88-1.8a8.7,8.7,0,0,1,4,.89,3.41,3.41,0,0,1,1.75,3.35v6.26q0,0.65,0,1.58a2,2,0,0,0,.21,1,1.28,1.28,0,0,0,.53.41v0.53h-3.88a4,4,0,0,1-.22-0.78q-0.06-.36-0.1-0.83a7.38,7.38,0,0,1-1.71,1.36,5.18,5.18,0,0,1-2.62.66,4.52,4.52,0,0,1-3.08-1.06,3.76,3.76,0,0,1-1.21-3,3.88,3.88,0,0,1,2-3.64,8.7,8.7,0,0,1,3.15-.88Zm2.18,1.66a3.93,3.93,0,0,1-.69.34,5.82,5.82,0,0,1-1,.24l-0.81.15a5.32,5.32,0,0,0-1.64.49,1.63,1.63,0,0,0-.84,1.51,1.58,1.58,0,0,0,.51,1.32,2,2,0,0,0,1.25.41,3.73,3.73,0,0,0,2.15-.68,2.86,2.86,0,0,0,1-2.46v-1.33Z"/><path class="cls-1" d="M133.8,372.28h-3.57V353.84h3.57v18.44Z"/><path class="cls-1" d="M142.68,364a5.62,5.62,0,0,0,1.42-.31,1.07,1.07,0,0,0,.77-1,1.2,1.2,0,0,0-.59-1.16,3.73,3.73,0,0,0-1.73-.32,2.27,2.27,0,0,0-1.81.63,2.58,2.58,0,0,0-.51,1.25h-3.44a5.22,5.22,0,0,1,1-2.94q1.42-1.8,4.88-1.8a8.7,8.7,0,0,1,4,.89,3.41,3.41,0,0,1,1.75,3.35v6.26q0,0.65,0,1.58a2,2,0,0,0,.21,1,1.28,1.28,0,0,0,.53.41v0.53H145.3a4,4,0,0,1-.22-0.78q-0.06-.36-0.1-0.83a7.38,7.38,0,0,1-1.71,1.36,5.18,5.18,0,0,1-2.62.66,4.52,4.52,0,0,1-3.08-1.06,3.76,3.76,0,0,1-1.21-3,3.88,3.88,0,0,1,2-3.64,8.7,8.7,0,0,1,3.15-.88Zm2.18,1.66a3.93,3.93,0,0,1-.69.34,5.82,5.82,0,0,1-1,.24l-0.81.15a5.32,5.32,0,0,0-1.64.49,1.63,1.63,0,0,0-.84,1.51,1.58,1.58,0,0,0,.51,1.32,2,2,0,0,0,1.25.41,3.73,3.73,0,0,0,2.15-.68,2.86,2.86,0,0,0,1-2.46v-1.33Z"/><path class="cls-1" d="M175.67,358.69a4,4,0,0,1,1.59,1.23,3.92,3.92,0,0,1,.78,1.75,12.14,12.14,0,0,1,.13,2l0,8.6h-3.65V363.6a2.85,2.85,0,0,0-.25-1.28,1.78,1.78,0,0,0-1.75-1,2,2,0,0,0-2,1.23,3.84,3.84,0,0,0-.29,1.56v8.12h-3.59v-8.12a4.55,4.55,0,0,0-.25-1.76,1.75,1.75,0,0,0-1.76-1,2.11,2.11,0,0,0-2.05,1,3.82,3.82,0,0,0-.29,1.68v8.21h-3.62V358.67h3.47v2a5.77,5.77,0,0,1,1.25-1.51,5,5,0,0,1,5.22-.11,4,4,0,0,1,1.18,1.64,4.53,4.53,0,0,1,1.74-1.76,5.31,5.31,0,0,1,2.45-.56A4.75,4.75,0,0,1,175.67,358.69Z"/><path class="cls-1" d="M190.33,358.92a5.55,5.55,0,0,1,2.36,2,6.69,6.69,0,0,1,1.09,2.82,17.34,17.34,0,0,1,.12,2.71H184a3.27,3.27,0,0,0,1.43,2.88,3.63,3.63,0,0,0,2,.51,2.77,2.77,0,0,0,2.71-1.56h3.64a4.45,4.45,0,0,1-1.32,2.46,6.63,6.63,0,0,1-5.13,2,7.43,7.43,0,0,1-4.8-1.68q-2.08-1.68-2.08-5.46a7.39,7.39,0,0,1,1.88-5.43,6.58,6.58,0,0,1,4.88-1.89A7.77,7.77,0,0,1,190.33,358.92ZM185,362a3.71,3.71,0,0,0-1,2.11h6.14a3,3,0,0,0-1-2.16,3.12,3.12,0,0,0-2.12-.74A2.83,2.83,0,0,0,185,362Z"/><path class="cls-1" d="M202.92,358.86a4.33,4.33,0,0,1,1.56,1.51v-6.51h3.62v18.42h-3.47v-1.89a5,5,0,0,1-1.74,1.76,4.88,4.88,0,0,1-2.43.55,5.07,5.07,0,0,1-4-1.93,7.42,7.42,0,0,1-1.63-5,8.54,8.54,0,0,1,1.61-5.49,5.23,5.23,0,0,1,4.3-2A4.4,4.4,0,0,1,202.92,358.86Zm0.88,9.72a5,5,0,0,0,.79-2.92,4.47,4.47,0,0,0-1.26-3.58,2.72,2.72,0,0,0-1.8-.65,2.51,2.51,0,0,0-2.3,1.18,6.37,6.37,0,0,0,0,6,2.52,2.52,0,0,0,2.26,1.13A2.63,2.63,0,0,0,203.8,368.58Z"/><path class="cls-1" d="M215,357h-3.62v-3.29H215V357Zm-3.62,1.63H215v13.64h-3.62V358.65Z"/><path class="cls-1" d="M225.7,358.86a4.34,4.34,0,0,1,1.56,1.51v-6.51h3.62v18.42h-3.47v-1.89a5,5,0,0,1-1.74,1.76,4.88,4.88,0,0,1-2.43.55,5.07,5.07,0,0,1-4-1.93,7.42,7.42,0,0,1-1.63-5,8.54,8.54,0,0,1,1.61-5.49,5.23,5.23,0,0,1,4.3-2A4.41,4.41,0,0,1,225.7,358.86Zm0.88,9.72a5,5,0,0,0,.79-2.92,4.48,4.48,0,0,0-1.26-3.58,2.72,2.72,0,0,0-1.8-.65,2.5,2.5,0,0,0-2.3,1.18,6.37,6.37,0,0,0,0,6,2.52,2.52,0,0,0,2.26,1.13A2.63,2.63,0,0,0,226.57,368.58Z"/><path class="cls-1" d="M239.52,364a5.64,5.64,0,0,0,1.42-.31,1.07,1.07,0,0,0,.77-1,1.2,1.2,0,0,0-.59-1.16,3.72,3.72,0,0,0-1.73-.32,2.27,2.27,0,0,0-1.81.63,2.57,2.57,0,0,0-.51,1.25h-3.44a5.21,5.21,0,0,1,1-2.94q1.42-1.8,4.88-1.8a8.7,8.7,0,0,1,4,.89,3.41,3.41,0,0,1,1.75,3.35v6.26q0,0.65,0,1.58a2,2,0,0,0,.21,1,1.27,1.27,0,0,0,.53.41v0.53h-3.88a4,4,0,0,1-.23-0.78c0-.24-0.08-0.52-0.1-0.83A7.37,7.37,0,0,1,240.1,372a5.18,5.18,0,0,1-2.62.66,4.52,4.52,0,0,1-3.08-1.06,3.76,3.76,0,0,1-1.21-3,3.88,3.88,0,0,1,2-3.64,8.72,8.72,0,0,1,3.15-.88Zm2.18,1.66a3.89,3.89,0,0,1-.69.34,5.83,5.83,0,0,1-1,.24l-0.81.15a5.33,5.33,0,0,0-1.64.49,1.63,1.63,0,0,0-.84,1.51,1.58,1.58,0,0,0,.51,1.32,2,2,0,0,0,1.25.41,3.72,3.72,0,0,0,2.15-.68,2.86,2.86,0,0,0,1-2.46v-1.33Z"/><circle class="cls-1" cx="176.92" cy="173.74" r="133"/><path class="cls-2" d="M146.5,88.57a20.23,20.23,0,0,0-19.9,16.22H227.23a20.23,20.23,0,0,0-19.9-16.22H146.5Zm-20.28,24.33V226.46H227.61V112.91H126.22Zm0,121.67v4.06a20.23,20.23,0,0,0,20.28,20.28h60.83a20.23,20.23,0,0,0,20.28-20.28v-4.06H126.22Zm34.47,8.11h32.44a4.06,4.06,0,0,1,0,8.11H160.69A4.06,4.06,0,1,1,160.69,242.68Z"/><path class="cls-1" d="M179.23,213.54H175v-8.68q-8.59-1-12.82-3.75-7.46-5-7.33-17.1h11.78q0.61,5.5,1.7,7.37,1.7,2.92,6.67,3.8V176.55l-3.53-1q-8.33-2.44-11.76-6.8a16.49,16.49,0,0,1-3.42-10.51,19.64,19.64,0,0,1,1.33-7.37,17.22,17.22,0,0,1,10.62-10,31.65,31.65,0,0,1,6.76-1.09v-5.8h4.23v5.89q7.07,0.57,11.11,3.49,7.34,4.67,7.6,15.14H186.47a15.8,15.8,0,0,0-1.29-5.67q-1.64-3.1-5.95-3.4V166q10.34,3.57,13.9,6.32Q199,176.9,199,185.23q0,11-8.07,16a25.58,25.58,0,0,1-11.69,3.58v8.77ZM175,149.46q-3.79.09-5.63,2a7.41,7.41,0,0,0-1.83,5.3,7,7,0,0,0,2.75,5.8,15.59,15.59,0,0,0,4.71,2.18V149.46ZM179.23,195a11,11,0,0,0,5-1.57q2.72-2,2.72-6.94a7.4,7.4,0,0,0-2.55-5.93,18.34,18.34,0,0,0-5.13-2.62V195Z"/></svg>