<svg id="Capa_1" data-name="Capa 1" xmlns="http://www.w3.org/2000/svg" viewBox="0 0 437.95 45.34"><defs><style>.cls-1{fill:#fff;}</style></defs><title>landing-svg</title><path class="cls-1" d="M15.29,14.94V16.6l1.5-.51L17,16.73l-1.49.51,0.92,1.35L15.9,19,15,17.62,14.06,19l-0.51-.39,0.92-1.35L13,16.73l0.18-.63,1.5,0.51V14.94h0.63Z"/><path class="cls-1" d="M17.54,14.94h1l2.26,9.69h0L23,14.94h1L21.34,25.65H20.2Z"/><path class="cls-1" d="M24.6,20.06c0-1.63.74-2.55,2.33-2.55a1.88,1.88,0,0,1,2.13,2.12v4.71c0,0.45.14,0.66,0.44,0.66h0.24v0.66a1.12,1.12,0,0,1-.4.09,0.88,0.88,0,0,1-1.09-1V24.48h0a1.84,1.84,0,0,1-1.94,1.35c-1.32,0-1.92-.87-1.92-2.25a2.09,2.09,0,0,1,1.52-2.21l1.6-.48c0.6-.18.72-0.33,0.72-1.26a1.19,1.19,0,0,0-1.31-1.38c-1,0-1.45.65-1.45,1.8H24.6Zm3.6,1.09h0a1.33,1.33,0,0,1-.91.53l-0.71.2a1.53,1.53,0,0,0-1.29,1.65,1.32,1.32,0,0,0,1.19,1.56c1,0,1.75-.83,1.75-2.25V21.15Zm0.21-6.57L27,16.69H26.35l1.06-2.11h1Z"/><path class="cls-1" d="M31,14.94h0.85V25.65H31V14.94Z"/><path class="cls-1" d="M33.75,14.94h0.85v1.53H33.75V14.94Zm0,2.74h0.85v8H33.75v-8Z"/><path class="cls-1" d="M40.42,24.33h0a1.88,1.88,0,0,1-1.84,1.5c-1.66,0-2.41-1.41-2.41-4.17s0.75-4.16,2.41-4.16a1.69,1.69,0,0,1,1.76,1.38h0V14.94h0.85V25.65H40.42V24.33Zm-1.73.75c0.87,0,1.65-.47,1.65-3.42s-0.78-3.41-1.65-3.41S37,18.72,37,21.66,37.84,25.08,38.69,25.08Z"/><path class="cls-1" d="M45.09,17.5c1.66,0,2.6,1.4,2.6,4.16s-0.94,4.17-2.6,4.17-2.6-1.4-2.6-4.17S43.43,17.5,45.09,17.5Zm0,7.58c1,0,1.69-.87,1.69-3.42S46,18.25,45.09,18.25s-1.69.87-1.69,3.41S44.14,25.08,45.09,25.08Z"/><path class="cls-1" d="M52.54,17.68h0.77v1.14h0a1.91,1.91,0,0,1,1.86-1.32c1.67,0,2.4,1.41,2.4,4.17s-0.75,4.16-2.41,4.16a1.69,1.69,0,0,1-1.76-1.38h0v3.84H52.54V17.68Zm2.53,0.57a1.43,1.43,0,0,0-1.19.71,4.89,4.89,0,0,0-.48,2.71c0,2.94.78,3.41,1.65,3.41s1.65-.47,1.65-3.41S55.89,18.25,55.07,18.25Z"/><path class="cls-1" d="M58.91,20.06c0-1.63.74-2.55,2.33-2.55a1.88,1.88,0,0,1,2.13,2.12v4.71c0,0.45.14,0.66,0.44,0.66H64v0.66a1.12,1.12,0,0,1-.4.09,0.88,0.88,0,0,1-1.09-1V24.48h0a1.84,1.84,0,0,1-1.94,1.35c-1.32,0-1.92-.87-1.92-2.25a2.09,2.09,0,0,1,1.52-2.21l1.6-.48c0.6-.18.72-0.33,0.72-1.26a1.19,1.19,0,0,0-1.31-1.38c-1,0-1.45.65-1.45,1.8H58.91Zm3.6,1.09h0a1.33,1.33,0,0,1-.91.53l-0.71.2a1.53,1.53,0,0,0-1.29,1.65,1.32,1.32,0,0,0,1.19,1.56c1,0,1.75-.83,1.75-2.25V21.15Z"/><path class="cls-1" d="M65.25,17.68h0.85v1.25h0A2,2,0,0,1,68,17.5a1,1,0,0,1,.3,0v0.9a2.07,2.07,0,0,0-.41,0c-0.94,0-1.82.72-1.82,2.26v5H65.25v-8Z"/><path class="cls-1" d="M69.18,20.06c0-1.63.74-2.55,2.33-2.55a1.88,1.88,0,0,1,2.13,2.12v4.71c0,0.45.14,0.66,0.44,0.66h0.24v0.66a1.11,1.11,0,0,1-.4.09,0.88,0.88,0,0,1-1.09-1V24.48h0a1.84,1.84,0,0,1-1.94,1.35c-1.32,0-1.92-.87-1.92-2.25a2.09,2.09,0,0,1,1.52-2.21l1.6-.48c0.6-.18.72-0.33,0.72-1.26a1.19,1.19,0,0,0-1.31-1.38c-1,0-1.45.65-1.45,1.8H69.18Zm3.61,1.09h0a1.33,1.33,0,0,1-.91.53l-0.71.2a1.53,1.53,0,0,0-1.29,1.65A1.32,1.32,0,0,0,71,25.08c1,0,1.75-.83,1.75-2.25V21.15Z"/><path class="cls-1" d="M79,17.68h0.77v1.14h0a1.92,1.92,0,0,1,1.86-1.32c1.67,0,2.4,1.41,2.4,4.17s-0.75,4.16-2.41,4.16a1.69,1.69,0,0,1-1.76-1.38h0v3.84H79V17.68Zm2.53,0.57a1.43,1.43,0,0,0-1.19.71,4.89,4.89,0,0,0-.48,2.71c0,2.94.78,3.41,1.65,3.41s1.65-.47,1.65-3.41S82.34,18.25,81.51,18.25Z"/><path class="cls-1" d="M85.52,17.68h0.85v5.61c0,1.29.41,1.79,1.3,1.79a1.78,1.78,0,0,0,1.65-2V17.68h0.85v8H89.4V24.54h0a2.11,2.11,0,0,1-1.93,1.29,1.82,1.82,0,0,1-1.93-2.13v-6Z"/><path class="cls-1" d="M92,17.68h0.77V18.8h0a2.11,2.11,0,0,1,1.93-1.29,1.82,1.82,0,0,1,1.93,2.13v6H95.76V19.89c0-1.09-.43-1.63-1.29-1.63a1.77,1.77,0,0,0-1.66,2v5.35H92v-8Z"/><path class="cls-1" d="M98.71,18.43h-1V17.68h1v-2.2h0.85v2.2h1.33v0.75H99.56v5.71a0.7,0.7,0,0,0,.81.84,1.66,1.66,0,0,0,.53-0.09v0.75a1.34,1.34,0,0,1-.6.09c-1.15,0-1.59-.33-1.59-1.39V18.43Z"/><path class="cls-1" d="M104.16,17.5c1.66,0,2.6,1.4,2.6,4.16s-0.94,4.17-2.6,4.17-2.6-1.4-2.6-4.17S102.5,17.5,104.16,17.5Zm0,7.58c1,0,1.69-.87,1.69-3.42s-0.74-3.41-1.69-3.41-1.69.87-1.69,3.41S103.21,25.08,104.16,25.08Z"/><path class="cls-1" d="M109.34,21.69a2,2,0,0,1-1.45-1.89,2.05,2.05,0,0,1,2.24-2.29c1.42,0,2.07.77,2.07,2.22v0.22h-0.85V19.73a1.2,1.2,0,0,0-1.23-1.47,1.22,1.22,0,0,0-1.38,1.35,1.3,1.3,0,0,0,1,1.34L111,21.43a2,2,0,0,1,1.41,2,2.15,2.15,0,0,1-2.33,2.37c-1.55,0-2.31-.67-2.31-2.48V23.1h0.85v0.21c0,1.17.48,1.77,1.45,1.77a1.36,1.36,0,0,0,1.49-1.42,1.43,1.43,0,0,0-1-1.47Z"/><path class="cls-1" d="M121.33,24.33h0a1.88,1.88,0,0,1-1.85,1.5c-1.66,0-2.41-1.41-2.41-4.17s0.75-4.16,2.41-4.16a1.69,1.69,0,0,1,1.76,1.38h0V14.94h0.85V25.65h-0.77V24.33Zm-1.73.75c0.87,0,1.65-.47,1.65-3.42s-0.78-3.41-1.65-3.41-1.65.46-1.65,3.41S118.75,25.08,119.6,25.08Z"/><path class="cls-1" d="M128.44,23c-0.13,1.7-1,2.82-2.43,2.82-1.59,0-2.53-1.17-2.53-4.17,0-2.76.94-4.16,2.6-4.16s2.43,1.21,2.43,3.87V21.7h-4.12v0.38c0,2.29.77,3,1.6,3s1.45-.67,1.59-2.07h0.85ZM127.6,21c0-2-.55-2.7-1.6-2.7s-1.58.72-1.6,2.7h3.21Z"/><path class="cls-1" d="M133.53,17.68h0.85v1.25h0a2,2,0,0,1,1.9-1.43,1,1,0,0,1,.3,0v0.9a2.06,2.06,0,0,0-.41,0c-0.94,0-1.82.72-1.82,2.26v5h-0.85v-8Z"/><path class="cls-1" d="M142.26,23c-0.13,1.7-1,2.82-2.43,2.82-1.59,0-2.53-1.17-2.53-4.17,0-2.76.94-4.16,2.6-4.16s2.43,1.21,2.43,3.87V21.7h-4.12v0.38c0,2.29.77,3,1.6,3s1.45-.67,1.59-2.07h0.85ZM141.42,21c0-2-.55-2.7-1.6-2.7s-1.58.72-1.6,2.7h3.21Z"/><path class="cls-1" d="M148.33,23c-0.13,1.7-1,2.82-2.4,2.82-1.59,0-2.53-1.17-2.53-4.17,0-2.76.94-4.16,2.6-4.16,1.42,0,2.24.92,2.33,2.55h-0.85c-0.1-1.25-.57-1.8-1.48-1.8s-1.69.6-1.69,3.42c0,3,.81,3.41,1.6,3.41s1.42-.67,1.56-2.07h0.85Z"/><path class="cls-1" d="M149.56,20.06c0-1.63.74-2.55,2.33-2.55A1.88,1.88,0,0,1,154,19.62v4.71c0,0.45.14,0.66,0.44,0.66h0.24v0.66a1.11,1.11,0,0,1-.4.09,0.88,0.88,0,0,1-1.09-1V24.48h0a1.84,1.84,0,0,1-1.94,1.35c-1.32,0-1.92-.87-1.92-2.25a2.09,2.09,0,0,1,1.52-2.21l1.6-.48c0.6-.18.72-0.33,0.72-1.26a1.19,1.19,0,0,0-1.3-1.38c-1,0-1.45.65-1.45,1.8h-0.85Zm3.6,1.09h0a1.34,1.34,0,0,1-.91.53l-0.71.2a1.53,1.53,0,0,0-1.29,1.65,1.32,1.32,0,0,0,1.19,1.56c1,0,1.75-.83,1.75-2.25V21.15Z"/><path class="cls-1" d="M155.91,17.68h0.85v1.25h0a2,2,0,0,1,1.9-1.43,1.06,1.06,0,0,1,.3,0v0.9a2.08,2.08,0,0,0-.41,0c-0.94,0-1.82.72-1.82,2.26v5h-0.85v-8Z"/><path class="cls-1" d="M163.88,17.68h0.77v7.4c0,2.2-.77,3.33-2.47,3.33a2,2,0,0,1-2.24-1.95h0.85a1.28,1.28,0,0,0,1.42,1.2c1,0,1.59-.76,1.59-2.17V24.23h0A1.78,1.78,0,0,1,162,25.65c-1.16,0-2.33-.81-2.33-4,0-2.75.75-4.16,2.41-4.16a1.81,1.81,0,0,1,1.76,1.41h0V17.68Zm-1.69,7.21c1,0,1.6-.78,1.6-3.33s-0.6-3.32-1.6-3.32-1.6.78-1.6,3.32S161.19,24.9,162.19,24.9Z"/><path class="cls-1" d="M166.28,20.06c0-1.63.74-2.55,2.33-2.55a1.88,1.88,0,0,1,2.13,2.12v4.71c0,0.45.14,0.66,0.44,0.66h0.24v0.66a1.11,1.11,0,0,1-.4.09,0.88,0.88,0,0,1-1.09-1V24.48h0A1.84,1.84,0,0,1,168,25.83c-1.32,0-1.92-.87-1.92-2.25a2.09,2.09,0,0,1,1.52-2.21l1.6-.48c0.6-.18.72-0.33,0.72-1.26a1.19,1.19,0,0,0-1.3-1.38c-1,0-1.45.65-1.45,1.8h-0.85Zm3.6,1.09h0a1.34,1.34,0,0,1-.91.53l-0.71.2a1.53,1.53,0,0,0-1.29,1.65,1.32,1.32,0,0,0,1.19,1.56c1,0,1.75-.83,1.75-2.25V21.15Z"/><path class="cls-1" d="M180.7,23c-0.13,1.7-1,2.82-2.4,2.82-1.59,0-2.53-1.17-2.53-4.17,0-2.76.94-4.16,2.6-4.16,1.42,0,2.24.92,2.33,2.55h-0.85c-0.1-1.25-.57-1.8-1.48-1.8s-1.69.6-1.69,3.42c0,3,.81,3.41,1.6,3.41s1.42-.67,1.56-2.07h0.85Z"/><path class="cls-1" d="M182.09,17.68h0.85v5.61c0,1.29.41,1.79,1.31,1.79a1.78,1.78,0,0,0,1.65-2V17.68h0.85v8H186V24.54h0A2.11,2.11,0,0,1,184,25.83a1.82,1.82,0,0,1-1.93-2.13v-6Z"/><path class="cls-1" d="M188.44,14.94h0.85v3.95h0a1.69,1.69,0,0,1,1.76-1.38c1.66,0,2.41,1.41,2.41,4.16s-0.75,4.17-2.41,4.17a1.88,1.88,0,0,1-1.84-1.5h0v1.32h-0.77V14.94Zm2.5,10.14c0.85,0,1.65-.47,1.65-3.42s-0.79-3.41-1.65-3.41-1.65.46-1.65,3.41S190.07,25.08,190.94,25.08Z"/><path class="cls-1" d="M195,14.94h0.85v1.53H195V14.94Zm0,2.74h0.85v8H195v-8Z"/><path class="cls-1" d="M202.36,23c-0.13,1.7-1,2.82-2.43,2.82-1.59,0-2.53-1.17-2.53-4.17,0-2.76.94-4.16,2.6-4.16s2.43,1.21,2.43,3.87V21.7h-4.12v0.38c0,2.29.77,3,1.6,3s1.45-.67,1.59-2.07h0.85ZM201.52,21c0-2-.55-2.7-1.6-2.7s-1.58.72-1.6,2.7h3.21Z"/><path class="cls-1" d="M203.91,17.68h0.85v1.25h0a2,2,0,0,1,1.9-1.43,1,1,0,0,1,.3,0v0.9a2.06,2.06,0,0,0-.41,0c-0.94,0-1.82.72-1.82,2.26v5h-0.85v-8Z"/><path class="cls-1" d="M208.31,18.43h-1V17.68h1v-2.2h0.85v2.2h1.33v0.75h-1.33v5.71A0.7,0.7,0,0,0,210,25a1.66,1.66,0,0,0,.53-0.09v0.75a1.34,1.34,0,0,1-.6.09c-1.15,0-1.59-.33-1.59-1.39V18.43Z"/><path class="cls-1" d="M213.75,17.5c1.66,0,2.6,1.4,2.6,4.16s-0.94,4.17-2.6,4.17-2.6-1.4-2.6-4.17S212.09,17.5,213.75,17.5Zm0,7.58c1,0,1.69-.87,1.69-3.42s-0.74-3.41-1.69-3.41-1.69.87-1.69,3.41S212.8,25.08,213.75,25.08Z"/><path class="cls-1" d="M218.93,21.69a2,2,0,0,1-1.45-1.89,2.05,2.05,0,0,1,2.24-2.29c1.42,0,2.07.77,2.07,2.22v0.22h-0.85V19.73a1.2,1.2,0,0,0-1.23-1.47,1.22,1.22,0,0,0-1.38,1.35,1.3,1.3,0,0,0,1,1.34l1.23,0.49a2,2,0,0,1,1.41,2,2.15,2.15,0,0,1-2.33,2.37c-1.55,0-2.31-.67-2.31-2.48V23.1h0.85v0.21c0,1.17.48,1.77,1.45,1.77a1.36,1.36,0,0,0,1.49-1.42,1.43,1.43,0,0,0-1-1.47Z"/><path class="cls-1" d="M226.86,17.68h0.77v1.14h0a1.92,1.92,0,0,1,1.86-1.32c1.67,0,2.4,1.41,2.4,4.17s-0.75,4.16-2.41,4.16a1.69,1.69,0,0,1-1.76-1.38h0v3.84h-0.85V17.68Zm2.53,0.57a1.43,1.43,0,0,0-1.19.71,4.89,4.89,0,0,0-.48,2.71c0,2.94.78,3.41,1.65,3.41s1.65-.47,1.65-3.41S230.21,18.25,229.39,18.25Z"/><path class="cls-1" d="M235.59,17.5c1.66,0,2.6,1.4,2.6,4.16s-0.94,4.17-2.6,4.17-2.6-1.4-2.6-4.17S233.93,17.5,235.59,17.5Zm0,7.58c1,0,1.69-.87,1.69-3.42s-0.74-3.41-1.69-3.41-1.69.87-1.69,3.41S234.64,25.08,235.59,25.08Z"/><path class="cls-1" d="M239.58,17.68h0.85v1.25h0a2,2,0,0,1,1.9-1.43,1.06,1.06,0,0,1,.3,0v0.9a2.08,2.08,0,0,0-.41,0c-0.94,0-1.82.72-1.82,2.26v5h-0.85v-8Z"/><path class="cls-1" d="M247.27,14.94h0.85V25.65h-0.85V14.94Z"/><path class="cls-1" d="M249.81,20.06c0-1.63.74-2.55,2.33-2.55a1.88,1.88,0,0,1,2.13,2.12v4.71c0,0.45.14,0.66,0.44,0.66h0.24v0.66a1.11,1.11,0,0,1-.4.09,0.88,0.88,0,0,1-1.09-1V24.48h0a1.84,1.84,0,0,1-1.94,1.35c-1.32,0-1.92-.87-1.92-2.25a2.09,2.09,0,0,1,1.52-2.21l1.6-.48c0.6-.18.72-0.33,0.72-1.26a1.19,1.19,0,0,0-1.31-1.38c-1,0-1.45.65-1.45,1.8h-0.85Zm3.61,1.09h0a1.33,1.33,0,0,1-.91.53l-0.71.2a1.53,1.53,0,0,0-1.29,1.65,1.32,1.32,0,0,0,1.19,1.56c1,0,1.75-.83,1.75-2.25V21.15Z"/><path class="cls-1" d="M259.7,17.68h0.85v1.25h0a2,2,0,0,1,1.9-1.43,1,1,0,0,1,.3,0v0.9a2.06,2.06,0,0,0-.41,0c-0.94,0-1.82.72-1.82,2.26v5H259.7v-8Z"/><path class="cls-1" d="M268.43,23c-0.13,1.7-1,2.82-2.43,2.82-1.59,0-2.53-1.17-2.53-4.17,0-2.76.94-4.16,2.6-4.16s2.43,1.21,2.43,3.87V21.7h-4.12v0.38c0,2.29.77,3,1.6,3s1.45-.67,1.59-2.07h0.85ZM267.59,21c0-2-.55-2.7-1.6-2.7s-1.57.72-1.6,2.7h3.21Z"/><path class="cls-1" d="M273.95,24.33h0a1.88,1.88,0,0,1-1.84,1.5c-1.66,0-2.41-1.41-2.41-4.17s0.75-4.16,2.41-4.16a1.69,1.69,0,0,1,1.76,1.38h0V14.94h0.85V25.65h-0.77V24.33Zm-1.73.75c0.87,0,1.65-.47,1.65-3.42s-0.78-3.41-1.65-3.41-1.65.46-1.65,3.41S271.36,25.08,272.21,25.08Z"/><path class="cls-1" d="M283.93,24.33h0a1.88,1.88,0,0,1-1.85,1.5c-1.66,0-2.41-1.41-2.41-4.17s0.75-4.16,2.41-4.16a1.69,1.69,0,0,1,1.76,1.38h0V14.94h0.85V25.65h-0.77V24.33Zm-1.73.75c0.87,0,1.65-.47,1.65-3.42s-0.78-3.41-1.65-3.41-1.65.46-1.65,3.41S281.35,25.08,282.2,25.08Z"/><path class="cls-1" d="M291,23c-0.13,1.7-1,2.82-2.43,2.82-1.59,0-2.53-1.17-2.53-4.17,0-2.76.94-4.16,2.6-4.16s2.43,1.21,2.43,3.87V21.7H287v0.38c0,2.29.77,3,1.6,3S290,24.4,290.19,23H291ZM290.2,21c0-2-.55-2.7-1.6-2.7S287,19,287,21h3.21Z"/><path class="cls-1" d="M300,17.68h0.77v7.4c0,2.2-.77,3.33-2.47,3.33a2,2,0,0,1-2.24-1.95h0.85a1.29,1.29,0,0,0,1.42,1.2c1,0,1.59-.76,1.59-2.17V24.23h0a1.78,1.78,0,0,1-1.76,1.42c-1.16,0-2.33-.81-2.33-4,0-2.75.75-4.16,2.41-4.16A1.81,1.81,0,0,1,300,18.91h0V17.68Zm-1.69,7.21c1,0,1.6-.78,1.6-3.33s-0.6-3.32-1.6-3.32-1.6.78-1.6,3.32S297.33,24.9,298.33,24.9Z"/><path class="cls-1" d="M307.22,23c-0.13,1.7-1,2.82-2.43,2.82-1.59,0-2.53-1.17-2.53-4.17,0-2.76.94-4.16,2.6-4.16s2.43,1.21,2.43,3.87V21.7h-4.12v0.38c0,2.29.77,3,1.6,3s1.45-.67,1.59-2.07h0.85ZM306.38,21c0-2-.55-2.7-1.6-2.7s-1.58.72-1.6,2.7h3.21Z"/><path class="cls-1" d="M310,21.69a2,2,0,0,1-1.45-1.89,2.05,2.05,0,0,1,2.24-2.29c1.42,0,2.07.77,2.07,2.22v0.22H312V19.73a1.2,1.2,0,0,0-1.23-1.47,1.22,1.22,0,0,0-1.38,1.35,1.3,1.3,0,0,0,1,1.34l1.23,0.49a2,2,0,0,1,1.41,2,2.15,2.15,0,0,1-2.33,2.37c-1.55,0-2.31-.67-2.31-2.48V23.1h0.85v0.21c0,1.17.48,1.77,1.45,1.77a1.36,1.36,0,0,0,1.49-1.42,1.43,1.43,0,0,0-1-1.47Z"/><path class="cls-1" d="M314.74,18.43h-1V17.68h1v-2.2h0.85v2.2h1.33v0.75h-1.33v5.71a0.7,0.7,0,0,0,.81.84,1.66,1.66,0,0,0,.53-0.09v0.75a1.34,1.34,0,0,1-.6.09c-1.15,0-1.59-.33-1.59-1.39V18.43Z"/><path class="cls-1" d="M320.19,17.5c1.66,0,2.6,1.4,2.6,4.16s-0.94,4.17-2.6,4.17-2.6-1.4-2.6-4.17S318.53,17.5,320.19,17.5Zm0,7.58c1,0,1.69-.87,1.69-3.42s-0.74-3.41-1.69-3.41-1.69.87-1.69,3.41S319.24,25.08,320.19,25.08Z"/><path class="cls-1" d="M324.17,17.68H325v1.25h0A2,2,0,0,1,327,17.5a1.05,1.05,0,0,1,.3,0v0.9a2.07,2.07,0,0,0-.41,0c-0.94,0-1.82.72-1.82,2.26v5h-0.85v-8Z"/><path class="cls-1" d="M332.9,23c-0.13,1.7-1,2.82-2.43,2.82-1.59,0-2.53-1.17-2.53-4.17,0-2.76.94-4.16,2.6-4.16S333,18.72,333,21.37V21.7h-4.12v0.38c0,2.29.77,3,1.6,3S331.91,24.4,332,23h0.85ZM332.06,21c0-2-.55-2.7-1.6-2.7s-1.58.72-1.6,2.7h3.21Z"/><path class="cls-1" d="M335.64,21.69a2,2,0,0,1-1.45-1.89,2,2,0,0,1,2.24-2.29c1.42,0,2.07.77,2.07,2.22v0.22h-0.85V19.73a1.2,1.2,0,0,0-1.24-1.47A1.22,1.22,0,0,0,335,19.6a1.3,1.3,0,0,0,1,1.34l1.23,0.49a2,2,0,0,1,1.4,2,2.15,2.15,0,0,1-2.33,2.37c-1.55,0-2.31-.67-2.31-2.48V23.1h0.85v0.21c0,1.17.48,1.77,1.45,1.77a1.36,1.36,0,0,0,1.49-1.42,1.43,1.43,0,0,0-1-1.47Z"/><path class="cls-1" d="M347.63,24.33h0a1.88,1.88,0,0,1-1.84,1.5c-1.66,0-2.41-1.41-2.41-4.17s0.75-4.16,2.41-4.16a1.69,1.69,0,0,1,1.76,1.38h0V14.94h0.85V25.65h-0.77V24.33Zm-1.73.75c0.87,0,1.65-.47,1.65-3.42s-0.78-3.41-1.65-3.41-1.65.46-1.65,3.41S345,25.08,345.9,25.08Z"/><path class="cls-1" d="M354.74,23c-0.13,1.7-1,2.82-2.43,2.82-1.59,0-2.53-1.17-2.53-4.17,0-2.76.94-4.16,2.6-4.16s2.43,1.21,2.43,3.87V21.7h-4.12v0.38c0,2.29.77,3,1.6,3s1.45-.67,1.59-2.07h0.85ZM353.9,21c0-2-.55-2.7-1.6-2.7s-1.57.72-1.6,2.7h3.21Z"/><path class="cls-1" d="M359.89,14.94h1.58l2.44,9.51h0l2.44-9.51h1.49V25.65H367V15.84h0l-2.63,9.81h-0.85l-2.63-9.81h0v9.81h-0.91V14.94Z"/><path class="cls-1" d="M371.9,17.5c1.66,0,2.6,1.4,2.6,4.16s-0.94,4.17-2.6,4.17-2.6-1.4-2.6-4.17S370.24,17.5,371.9,17.5Zm0,7.58c1,0,1.69-.87,1.69-3.42s-0.74-3.41-1.69-3.41-1.69.87-1.69,3.41S371,25.08,371.9,25.08Zm1.46-10.5L372,16.69h-0.68l1.06-2.11h1Z"/><path class="cls-1" d="M375.17,17.68h0.91l1.67,6.95h0l1.53-6.95h0.91l-2,8h-1Z"/><path class="cls-1" d="M381.34,14.94h0.85v1.53h-0.85V14.94Zm0,2.74h0.85v8h-0.85v-8Z"/><path class="cls-1" d="M384.09,14.94h0.85V25.65h-0.85V14.94Z"/><path class="cls-1" d="M390.31,14.94h5v0.81h-4.12v3.9h3.84v0.81h-3.84v4.38h4.24v0.81h-5.15V14.94Zm4.07-2.62L393,14.43h-0.68l1.06-2.12h1Z"/><path class="cls-1" d="M398.58,22.23L397,25.65h-1l2-4.11-1.94-3.86h1l1.49,3.15,1.49-3.15h1l-1.94,3.86,2,4.11h-1Z"/><path class="cls-1" d="M402.23,14.94h0.85v1.53h-0.85V14.94Zm0,2.74h0.85v8h-0.85v-8Z"/><path class="cls-1" d="M405.23,18.43h-1V17.68h1v-2.2h0.85v2.2h1.33v0.75h-1.33v5.71a0.7,0.7,0,0,0,.81.84,1.65,1.65,0,0,0,.53-0.09v0.75a1.34,1.34,0,0,1-.6.09c-1.15,0-1.59-.33-1.59-1.39V18.43Z"/><path class="cls-1" d="M410.68,17.5c1.66,0,2.6,1.4,2.6,4.16s-0.94,4.17-2.6,4.17-2.6-1.4-2.6-4.17S409,17.5,410.68,17.5Zm0,7.58c1,0,1.69-.87,1.69-3.42s-0.74-3.41-1.69-3.41-1.69.87-1.69,3.41S409.73,25.08,410.68,25.08Z"/><path class="cls-1" d="M419.52,14.76a5.39,5.39,0,0,1,5.24,5.53,5.24,5.24,0,1,1-10.47,0A5.39,5.39,0,0,1,419.52,14.76Zm0,10.32a4.67,4.67,0,0,0,4.53-4.79,4.53,4.53,0,1,0-9.05,0A4.67,4.67,0,0,0,419.52,25.08Zm0-4.42h-1.31v2.92h-0.71V17h2.4c1.4,0,2,.66,2,1.83a1.73,1.73,0,0,1-1.56,1.83l1.84,2.92h-0.85ZM418.26,20h1.53a1.19,1.19,0,0,0,1.48-1.19,1.2,1.2,0,0,0-1.48-1.15h-1.53V20Z"/></svg>