<svg id="Capa_1" data-name="Capa 1" xmlns="http://www.w3.org/2000/svg" viewBox="0 0 176.17 212.73"><defs><style>.cls-1{fill:#faeb15;}.cls-2{fill:#704790;}</style></defs><title>landing-svg</title><circle class="cls-1" cx="88.08" cy="81.04" r="62.23"/><path class="cls-2" d="M121.79,50.6l-2.36-6.54a0.79,0.79,0,0,0-.64-0.54H57.27a0.88,0.88,0,0,0-.64.43L54.27,50.6a0.62,0.62,0,0,1-.64.43H51.27a0.73,0.73,0,0,0-.75.75v2.14a0.73,0.73,0,0,0,.75.75H124.9a0.73,0.73,0,0,0,.75-0.75V51.78a0.91,0.91,0,0,0-.86-0.75h-2.47A0.58,0.58,0,0,1,121.79,50.6Z"/><path class="cls-2" d="M123.72,114.26v-2.14a0.73,0.73,0,0,0-.75-0.75h0a0.73,0.73,0,0,1-.75-0.75V58.42a0.73,0.73,0,0,0-.75-0.75H54.37a0.73,0.73,0,0,0-.75.75v52.3a0.73,0.73,0,0,1-.75.75h0a0.73,0.73,0,0,0-.75.75v2.14a0.73,0.73,0,0,1-.75.75H51.27a0.58,0.58,0,0,0-.75.54v2.14a0.73,0.73,0,0,0,.75.75H124.9a0.73,0.73,0,0,0,.75-0.75v-2.14a0.73,0.73,0,0,0-.75-0.75h-0.43A0.6,0.6,0,0,1,123.72,114.26Zm-39.23-1.07H69.27a0.73,0.73,0,0,1-.75-0.75V89.07a0.73,0.73,0,0,1,.75-0.75H84.49a0.73,0.73,0,0,1,.75.75v23.47A0.92,0.92,0,0,1,84.49,113.19Zm22.29,0H91.57a0.73,0.73,0,0,1-.75-0.75V89.07a0.73,0.73,0,0,1,.75-0.75h15.22a0.73,0.73,0,0,1,.75.75v23.47A0.72,0.72,0,0,1,106.79,113.19Zm3.43-30.44H65.84A0.73,0.73,0,0,1,65.09,82V79.21a0.73,0.73,0,0,1,.75-0.75h44.37a0.73,0.73,0,0,1,.75.75V82A0.73,0.73,0,0,1,110.22,82.75Z"/><path class="cls-1" d="M62.78,159.72a6.12,6.12,0,0,1-4,1.18H55.41v5.77H52.08v-16H59a5.56,5.56,0,0,1,3.8,1.24,4.85,4.85,0,0,1,1.42,3.84Q64.19,158.55,62.78,159.72Zm-2.56-5.78a2.7,2.7,0,0,0-1.78-.53h-3v4.73h3a2.56,2.56,0,0,0,1.78-.58,2.35,2.35,0,0,0,.64-1.83A2.21,2.21,0,0,0,60.22,153.94Z"/><path class="cls-1" d="M69.72,154.8V162a3.74,3.74,0,0,0,.24,1.52,1.65,1.65,0,0,0,1.66.9,2.17,2.17,0,0,0,2.17-1.29,4.67,4.67,0,0,0,.3-1.84V154.8h3.15v11.87h-3V165l-0.22.33a2.24,2.24,0,0,1-.41.48,4.3,4.3,0,0,1-1.41.89,4.77,4.77,0,0,1-1.59.24A3.54,3.54,0,0,1,67,165a7.27,7.27,0,0,1-.51-3.08V154.8h3.18Z"/><path class="cls-1" d="M89.81,155.48a3.93,3.93,0,0,1,1.17,3.2v8H87.8v-7.22a3.31,3.31,0,0,0-.25-1.44,1.75,1.75,0,0,0-1.73-.91,2.14,2.14,0,0,0-2.15,1.34,4.62,4.62,0,0,0-.3,1.81v6.42h-3.1V154.82h3v1.73a5.26,5.26,0,0,1,1.13-1.32,3.91,3.91,0,0,1,2.42-.72A4.54,4.54,0,0,1,89.81,155.48Z"/><path class="cls-1" d="M92.64,157.12v-2.21H94.3V151.6h3.07v3.31H99.3v2.21H97.37v6.27a1.41,1.41,0,0,0,.19.91,2,2,0,0,0,1.13.18H99l0.31,0v2.32l-1.47.05a3.94,3.94,0,0,1-3-.76,2.26,2.26,0,0,1-.52-1.64v-7.3H92.64Z"/><path class="cls-1" d="M111.18,165.21a6.54,6.54,0,0,1-9.12,0,7.36,7.36,0,0,1,0-8.91,6.47,6.47,0,0,1,9.12,0A7.36,7.36,0,0,1,111.18,165.21Zm-2.48-1.71a5.54,5.54,0,0,0,0-5.5,2.76,2.76,0,0,0-4.19,0,5.51,5.51,0,0,0,0,5.5A2.75,2.75,0,0,0,108.7,163.5Z"/><path class="cls-1" d="M117.31,162.88a2.06,2.06,0,0,0,.43,1.18,2.89,2.89,0,0,0,2.14.62,3.28,3.28,0,0,0,1.46-.27,0.91,0.91,0,0,0,.1-1.61,17.93,17.93,0,0,0-3.25-.94,6.73,6.73,0,0,1-2.85-1.25,2.71,2.71,0,0,1-.83-2.13,3.7,3.7,0,0,1,1.29-2.83,5.2,5.2,0,0,1,3.64-1.18,6.69,6.69,0,0,1,3.63.89,3.8,3.8,0,0,1,1.61,3.07h-3.1a1.83,1.83,0,0,0-.34-0.95,2.13,2.13,0,0,0-1.75-.63,2.52,2.52,0,0,0-1.45.32,0.91,0.91,0,0,0-.43.74,0.81,0.81,0,0,0,.46.77,19.84,19.84,0,0,0,3.24.86,5.94,5.94,0,0,1,2.78,1.32,3,3,0,0,1,.91,2.23,3.6,3.6,0,0,1-1.31,2.88,7.9,7.9,0,0,1-8.2-.07,3.84,3.84,0,0,1-1.34-3h3.15Z"/><path class="cls-1" d="M39.43,179.33a3.76,3.76,0,0,1,1.36,1.31V175h3.15v16h-3v-1.64a4.37,4.37,0,0,1-1.51,1.54,4.25,4.25,0,0,1-2.11.48,4.41,4.41,0,0,1-3.5-1.68,6.46,6.46,0,0,1-1.42-4.32,7.42,7.42,0,0,1,1.4-4.78,4.55,4.55,0,0,1,3.74-1.74A3.82,3.82,0,0,1,39.43,179.33Zm0.76,8.45a4.33,4.33,0,0,0,.69-2.54,3.89,3.89,0,0,0-1.1-3.11,2.37,2.37,0,0,0-1.57-.57,2.18,2.18,0,0,0-2,1,5.55,5.55,0,0,0,0,5.18,2.19,2.19,0,0,0,2,1A2.29,2.29,0,0,0,40.19,187.78Z"/><path class="cls-1" d="M54.49,179.38a4.82,4.82,0,0,1,2.05,1.75,5.84,5.84,0,0,1,.95,2.45,15.2,15.2,0,0,1,.1,2.36H48.94a2.85,2.85,0,0,0,1.24,2.5,3.15,3.15,0,0,0,1.71.45,2.41,2.41,0,0,0,2.36-1.36h3.17a3.87,3.87,0,0,1-1.15,2.14,5.77,5.77,0,0,1-4.46,1.73,6.47,6.47,0,0,1-4.18-1.46q-1.81-1.46-1.81-4.75a6.42,6.42,0,0,1,1.63-4.73,5.72,5.72,0,0,1,4.24-1.65A6.75,6.75,0,0,1,54.49,179.38Zm-4.64,2.68A3.23,3.23,0,0,0,49,183.9h5.35a2.59,2.59,0,0,0-.83-1.87,2.72,2.72,0,0,0-1.84-.64A2.46,2.46,0,0,0,49.85,182.06Z"/><path class="cls-1" d="M71.94,178.86l0.27,0v3.18l-0.52,0H71.32a2.57,2.57,0,0,0-2.51,1.22,4.75,4.75,0,0,0-.36,2.11V191H65.32V179.14h3v2.07a6.58,6.58,0,0,1,1.25-1.62,3.41,3.41,0,0,1,2.26-.73h0.15Z"/><path class="cls-1" d="M81.76,179.38a4.82,4.82,0,0,1,2.05,1.75,5.82,5.82,0,0,1,.95,2.45,15.17,15.17,0,0,1,.1,2.36H76.22a2.85,2.85,0,0,0,1.24,2.5,3.15,3.15,0,0,0,1.71.45,2.41,2.41,0,0,0,2.36-1.36H84.7a3.88,3.88,0,0,1-1.15,2.14,5.77,5.77,0,0,1-4.46,1.73,6.47,6.47,0,0,1-4.18-1.46q-1.81-1.46-1.81-4.75a6.42,6.42,0,0,1,1.63-4.73A5.72,5.72,0,0,1,79,178.82,6.75,6.75,0,0,1,81.76,179.38Zm-4.64,2.68a3.22,3.22,0,0,0-.83,1.84h5.35a2.59,2.59,0,0,0-.83-1.87,2.72,2.72,0,0,0-1.84-.64A2.46,2.46,0,0,0,77.12,182.06Z"/><path class="cls-1" d="M93.53,183.4a2.74,2.74,0,0,0-.45-1.2,1.88,1.88,0,0,0-1.62-.72A2.14,2.14,0,0,0,89.3,183a6.48,6.48,0,0,0-.31,2.19,6,6,0,0,0,.31,2.1,2.07,2.07,0,0,0,2.1,1.48,1.85,1.85,0,0,0,1.55-.59,2.9,2.9,0,0,0,.56-1.52h3.17a5.19,5.19,0,0,1-1,2.68,5,5,0,0,1-4.33,2,5.06,5.06,0,0,1-4.22-1.7,6.85,6.85,0,0,1-1.35-4.4,7,7,0,0,1,1.49-4.75,5.2,5.2,0,0,1,4.12-1.7,6.21,6.21,0,0,1,3.66,1,4.66,4.66,0,0,1,1.68,3.54H93.53Z"/><path class="cls-1" d="M103.53,183.79a4.91,4.91,0,0,0,1.24-.27,0.93,0.93,0,0,0,.67-0.88,1,1,0,0,0-.51-1,3.24,3.24,0,0,0-1.51-.28,2,2,0,0,0-1.58.54,2.24,2.24,0,0,0-.44,1.09h-3a4.53,4.53,0,0,1,.87-2.56q1.23-1.57,4.24-1.57a7.56,7.56,0,0,1,3.48.77,3,3,0,0,1,1.52,2.92V188q0,0.57,0,1.37a1.72,1.72,0,0,0,.19.83,1.11,1.11,0,0,0,.46.36V191h-3.37a3.42,3.42,0,0,1-.2-0.67q-0.06-.32-0.09-0.72A6.37,6.37,0,0,1,104,190.8a4.5,4.5,0,0,1-2.28.58,3.93,3.93,0,0,1-2.68-.92A3.27,3.27,0,0,1,98,187.85a3.38,3.38,0,0,1,1.7-3.17,7.61,7.61,0,0,1,2.74-.76Zm1.9,1.45a3.42,3.42,0,0,1-.6.3,5,5,0,0,1-.83.21l-0.71.13a4.64,4.64,0,0,0-1.43.42,1.42,1.42,0,0,0-.73,1.32,1.38,1.38,0,0,0,.45,1.15,1.7,1.7,0,0,0,1.09.35,3.23,3.23,0,0,0,1.87-.59,2.49,2.49,0,0,0,.89-2.14v-1.15Z"/><path class="cls-1" d="M117.82,178.86l0.27,0v3.18l-0.52,0h-0.37a2.57,2.57,0,0,0-2.52,1.22,4.75,4.75,0,0,0-.36,2.11V191H111.2V179.14h3v2.07a6.6,6.6,0,0,1,1.25-1.62,3.41,3.41,0,0,1,2.26-.73h0.15Z"/><path class="cls-1" d="M125.78,179.13a3.73,3.73,0,0,1,1.83,1.72v-1.71h3V190.4a6.3,6.3,0,0,1-.77,3.46q-1.33,2-5.09,2A7,7,0,0,1,121,195a3.29,3.29,0,0,1-1.59-2.67h3.38a1.4,1.4,0,0,0,.42.78,2.62,2.62,0,0,0,1.69.42,2.27,2.27,0,0,0,2.24-1.12,5.7,5.7,0,0,0,.37-2.42v-0.76a3.79,3.79,0,0,1-1,1.14,3.86,3.86,0,0,1-2.41.71,4.55,4.55,0,0,1-3.65-1.61,6.48,6.48,0,0,1-1.37-4.35,7.34,7.34,0,0,1,1.32-4.45,4.34,4.34,0,0,1,3.73-1.8A4.09,4.09,0,0,1,125.78,179.13Zm1.06,8.51a3.81,3.81,0,0,0,.75-2.62,4,4,0,0,0-.71-2.57,2.32,2.32,0,0,0-1.9-.88,2.24,2.24,0,0,0-2.25,1.54,5.47,5.47,0,0,0-.33,2,4.59,4.59,0,0,0,.35,1.84,2.26,2.26,0,0,0,2.25,1.5A2.38,2.38,0,0,0,126.83,187.64Z"/><path class="cls-1" d="M138.22,183.79a4.92,4.92,0,0,0,1.24-.27,0.93,0.93,0,0,0,.67-0.88,1,1,0,0,0-.51-1,3.24,3.24,0,0,0-1.51-.28,2,2,0,0,0-1.58.54,2.25,2.25,0,0,0-.44,1.09h-3a4.54,4.54,0,0,1,.87-2.56q1.24-1.57,4.24-1.57a7.56,7.56,0,0,1,3.48.77,3,3,0,0,1,1.52,2.92V188q0,0.57,0,1.37a1.72,1.72,0,0,0,.19.83,1.11,1.11,0,0,0,.46.36V191H140.5a3.43,3.43,0,0,1-.2-0.67q-0.05-.32-0.09-0.72a6.4,6.4,0,0,1-1.49,1.19,4.5,4.5,0,0,1-2.28.58,3.93,3.93,0,0,1-2.68-.92,3.27,3.27,0,0,1-1.06-2.61,3.38,3.38,0,0,1,1.7-3.17,7.61,7.61,0,0,1,2.74-.76Zm1.9,1.45a3.45,3.45,0,0,1-.6.3,5,5,0,0,1-.83.21l-0.71.13a4.65,4.65,0,0,0-1.43.42,1.42,1.42,0,0,0-.73,1.32,1.38,1.38,0,0,0,.45,1.15,1.7,1.7,0,0,0,1.09.35,3.24,3.24,0,0,0,1.87-.59,2.49,2.49,0,0,0,.89-2.14v-1.15Z"/></svg>