<svg id="Capa_1" data-name="Capa 1" xmlns="http://www.w3.org/2000/svg" viewBox="0 0 176.17 212.73"><defs><style>.cls-1{fill:#faeb15;}.cls-2{fill:#704790;}</style></defs><title>landing-svg</title><circle class="cls-1" cx="88.08" cy="80.03" r="62.46"/><path class="cls-2" d="M68.51,86.16H49l2.32-11.38L75.54,52H87.66L82.76,75.76h5.51l-2,10.4H80.74l-1.9,8.44H66.73ZM71,75.76l2.63-12.12H73.52L61.29,75.76H71Z"/><path class="cls-2" d="M119.72,90.39l-0.12-.12c-2.81,3.79-7.16,5.38-11.81,5.38-15.3,0-17.74-13-17.74-18.41,0-13.7,7.83-27.35,25-27.35,9.79,0,18,5,18.11,16.34H120.39c-0.37-4-2.75-5.45-6.18-5.45-7.4,0-10.71,7.89-10.71,15.42,0,5.14,2.2,8.57,7.65,8.57,3.61,0,6.67-1.29,8-4.83h-6.12l2-9.36h17.87l-5,24h-8.5Z"/><path class="cls-2" d="M99.8,98h2.13l-2.15,10.33h6.13l-0.38,1.84H97.28Z"/><path class="cls-2" d="M105.72,98h10l-0.39,1.84h-3.87l-2.15,10.33H107.2l2.15-10.33h-4Z"/><path class="cls-2" d="M117,98h8.86l-0.38,1.84h-6.76L118.08,103h6.27L124,104.78h-6.29L117,108.34h6.82l-0.37,1.84H114.5Z"/><path class="cls-2" d="M67.47,53.73H44.75a1.7,1.7,0,1,1,0-3.41H67.47A1.7,1.7,0,0,1,67.47,53.73Z"/><path class="cls-2" d="M63.16,59.23H49.05a1.7,1.7,0,0,1,0-3.41H63.16A1.7,1.7,0,0,1,63.16,59.23Z"/><path class="cls-2" d="M93,104H67.34a1.7,1.7,0,1,1,0-3.41H93A1.7,1.7,0,1,1,93,104Z"/><path class="cls-2" d="M93,109.52H77.07a1.7,1.7,0,1,1,0-3.41H93A1.7,1.7,0,1,1,93,109.52Z"/><path class="cls-1" d="M50.06,149.53h3.52L60,160.72V149.53h3.12v16H59.72l-6.53-11.39v11.39H50.06v-16Z"/><path class="cls-1" d="M70.67,158.36a4.91,4.91,0,0,0,1.24-.27,0.93,0.93,0,0,0,.67-0.88,1,1,0,0,0-.51-1,3.24,3.24,0,0,0-1.51-.28,2,2,0,0,0-1.58.54,2.24,2.24,0,0,0-.44,1.09h-3a4.53,4.53,0,0,1,.87-2.56q1.23-1.57,4.24-1.57a7.56,7.56,0,0,1,3.48.77,3,3,0,0,1,1.52,2.92v5.44q0,0.57,0,1.37a1.72,1.72,0,0,0,.19.83,1.11,1.11,0,0,0,.46.36v0.46H72.95a3.42,3.42,0,0,1-.2-0.67q-0.06-.32-0.09-0.72a6.37,6.37,0,0,1-1.49,1.19,4.5,4.5,0,0,1-2.28.58,3.93,3.93,0,0,1-2.68-.92,3.27,3.27,0,0,1-1.06-2.61,3.38,3.38,0,0,1,1.7-3.17,7.61,7.61,0,0,1,2.74-.76Zm1.9,1.45a3.42,3.42,0,0,1-.6.3,5,5,0,0,1-.83.21l-0.71.13a4.64,4.64,0,0,0-1.43.42,1.42,1.42,0,0,0-.73,1.32,1.38,1.38,0,0,0,.45,1.15,1.7,1.7,0,0,0,1.09.35,3.23,3.23,0,0,0,1.87-.59,2.49,2.49,0,0,0,.89-2.14v-1.15Z"/><path class="cls-1" d="M85.68,153.71H89l-4.29,11.87H81.46L77.2,153.71h3.48l2.47,8.75Z"/><path class="cls-1" d="M98.5,154a4.82,4.82,0,0,1,2.05,1.75,5.82,5.82,0,0,1,.95,2.45,15.17,15.17,0,0,1,.1,2.36H93A2.85,2.85,0,0,0,94.2,163a3.15,3.15,0,0,0,1.71.45,2.41,2.41,0,0,0,2.36-1.36h3.17a3.88,3.88,0,0,1-1.15,2.14A5.77,5.77,0,0,1,95.83,166a6.47,6.47,0,0,1-4.18-1.46q-1.81-1.46-1.81-4.75A6.42,6.42,0,0,1,91.47,155a5.72,5.72,0,0,1,4.24-1.65A6.75,6.75,0,0,1,98.5,154Zm-4.64,2.68a3.22,3.22,0,0,0-.83,1.84h5.35a2.59,2.59,0,0,0-.83-1.87,2.72,2.72,0,0,0-1.84-.64A2.46,2.46,0,0,0,93.86,156.63Z"/><path class="cls-1" d="M109,153.7a3.73,3.73,0,0,1,1.83,1.72v-1.71h3V165a6.3,6.3,0,0,1-.77,3.46q-1.33,2-5.1,2a7,7,0,0,1-3.71-.89,3.29,3.29,0,0,1-1.59-2.67h3.38a1.39,1.39,0,0,0,.42.78,2.62,2.62,0,0,0,1.69.42,2.27,2.27,0,0,0,2.24-1.12,5.67,5.67,0,0,0,.37-2.42v-0.76a3.79,3.79,0,0,1-1,1.14,3.85,3.85,0,0,1-2.41.71,4.55,4.55,0,0,1-3.65-1.61,6.49,6.49,0,0,1-1.37-4.35,7.34,7.34,0,0,1,1.31-4.45,4.35,4.35,0,0,1,3.73-1.8A4.1,4.1,0,0,1,109,153.7Zm1.06,8.51a3.82,3.82,0,0,0,.75-2.62,4,4,0,0,0-.71-2.57,2.32,2.32,0,0,0-1.9-.88,2.24,2.24,0,0,0-2.24,1.54,5.47,5.47,0,0,0-.33,2,4.63,4.63,0,0,0,.35,1.84,2.26,2.26,0,0,0,2.26,1.5A2.38,2.38,0,0,0,110.1,162.21Z"/><path class="cls-1" d="M121.49,158.36a4.9,4.9,0,0,0,1.24-.27,0.93,0.93,0,0,0,.67-0.88,1,1,0,0,0-.51-1,3.23,3.23,0,0,0-1.51-.28,2,2,0,0,0-1.58.54,2.24,2.24,0,0,0-.44,1.09h-3a4.54,4.54,0,0,1,.88-2.56q1.23-1.57,4.24-1.57a7.56,7.56,0,0,1,3.48.77,3,3,0,0,1,1.52,2.92v5.44q0,0.57,0,1.37a1.72,1.72,0,0,0,.18.83,1.11,1.11,0,0,0,.46.36v0.46h-3.37a3.49,3.49,0,0,1-.2-0.67q-0.05-.32-0.09-0.72a6.38,6.38,0,0,1-1.49,1.19,4.5,4.5,0,0,1-2.28.58A3.93,3.93,0,0,1,117,165a3.27,3.27,0,0,1-1.06-2.61,3.38,3.38,0,0,1,1.7-3.17,7.62,7.62,0,0,1,2.74-.76Zm1.9,1.45a3.35,3.35,0,0,1-.6.3,5,5,0,0,1-.83.21l-0.71.13a4.63,4.63,0,0,0-1.43.42,1.42,1.42,0,0,0-.73,1.32,1.37,1.37,0,0,0,.45,1.15,1.69,1.69,0,0,0,1.09.35,3.24,3.24,0,0,0,1.87-.59,2.49,2.49,0,0,0,.89-2.14v-1.15Z"/><path class="cls-1" d="M66.28,178.29A4.82,4.82,0,0,1,68.33,180a5.82,5.82,0,0,1,.95,2.45,15.17,15.17,0,0,1,.1,2.36H60.74a2.85,2.85,0,0,0,1.24,2.5,3.15,3.15,0,0,0,1.71.45,2.41,2.41,0,0,0,2.36-1.36h3.17a3.88,3.88,0,0,1-1.15,2.14,5.77,5.77,0,0,1-4.46,1.73,6.47,6.47,0,0,1-4.18-1.46q-1.81-1.46-1.81-4.75a6.42,6.42,0,0,1,1.63-4.73,5.72,5.72,0,0,1,4.24-1.65A6.75,6.75,0,0,1,66.28,178.29ZM61.64,181a3.22,3.22,0,0,0-.83,1.84h5.35a2.59,2.59,0,0,0-.83-1.87,2.72,2.72,0,0,0-1.84-.64A2.46,2.46,0,0,0,61.64,181Z"/><path class="cls-1" d="M80.52,178.73a3.93,3.93,0,0,1,1.17,3.2v8H78.51V182.7a3.31,3.31,0,0,0-.25-1.44,1.75,1.75,0,0,0-1.73-.91,2.14,2.14,0,0,0-2.15,1.34,4.62,4.62,0,0,0-.3,1.81v6.42H71V178.07h3v1.73a5.26,5.26,0,0,1,1.13-1.32,3.91,3.91,0,0,1,2.42-.72A4.55,4.55,0,0,1,80.52,178.73Z"/><path class="cls-1" d="M101,186.52H99.19v3.4h-3v-3.4H89.91v-2.71l5.8-9.58h3.48v9.86H101v2.43Zm-4.82-2.43v-6.8l-3.94,6.8h3.94Z"/><path class="cls-1" d="M114.2,178.88a3.14,3.14,0,0,0-1.86-2.3,4.57,4.57,0,0,0-1.84-.36,4,4,0,0,0-3.18,1.46,6.63,6.63,0,0,0-1.25,4.4q0,3,1.35,4.18a4.44,4.44,0,0,0,3.07,1.23,4,4,0,0,0,2.76-1,4.17,4.17,0,0,0,1.33-2.54h-3.71v-2.68h6.68v8.61h-2.22l-0.34-2a7.65,7.65,0,0,1-1.74,1.6,6.14,6.14,0,0,1-3.27.81,6.79,6.79,0,0,1-5.23-2.21,8.42,8.42,0,0,1-2.12-6.07,8.9,8.9,0,0,1,2.15-6.25,7.31,7.31,0,0,1,5.67-2.35,7.41,7.41,0,0,1,4.92,1.55,5.77,5.77,0,0,1,2.13,3.87h-3.3Z"/></svg>