<svg id="Capa_1" data-name="Capa 1" xmlns="http://www.w3.org/2000/svg" viewBox="0 0 183.63 207.96"><defs><style>.cls-1{fill:#faeb15;}.cls-2{fill:#704790;}</style></defs><title>landing-svg</title><path class="cls-1" d="M42.23,150.75a6.28,6.28,0,0,1,4.69-1.88q3.81,0,5.57,2.53a5.51,5.51,0,0,1,1,2.85H50.34a4.36,4.36,0,0,0-.78-1.66,3.14,3.14,0,0,0-2.52-1,3.11,3.11,0,0,0-2.69,1.4,6.84,6.84,0,0,0-1,4,6,6,0,0,0,1,3.85A3.25,3.25,0,0,0,47,162.08a3,3,0,0,0,2.5-1.1,4.83,4.83,0,0,0,.79-1.77H53.5a6.87,6.87,0,0,1-2.09,4.06,6.1,6.1,0,0,1-4.32,1.56A6.48,6.48,0,0,1,42,162.73,10,10,0,0,1,42.23,150.75Z"/><path class="cls-1" d="M65.25,163a5.25,5.25,0,0,1-4.34,1.76A5.25,5.25,0,0,1,56.57,163a7,7,0,0,1,0-8.47,5.21,5.21,0,0,1,4.34-1.79,5.21,5.21,0,0,1,4.34,1.79A7,7,0,0,1,65.25,163Zm-2.36-1.63a5.27,5.27,0,0,0,0-5.22,2.62,2.62,0,0,0-4,0,5.23,5.23,0,0,0,0,5.22A2.61,2.61,0,0,0,62.89,161.4Z"/><path class="cls-1" d="M78.42,154.49a6.48,6.48,0,0,1,1.27,4.14A7.25,7.25,0,0,1,78.44,163a4.53,4.53,0,0,1-5.74,1.17,4.5,4.5,0,0,1-1.1-1.16v1.42H68.68V149.18h3v5.42a4.3,4.3,0,0,1,1.24-1.2,3.69,3.69,0,0,1,2-.52A4.21,4.21,0,0,1,78.42,154.49ZM76,161.36a4.19,4.19,0,0,0,.64-2.42,5.43,5.43,0,0,0-.31-2,2.18,2.18,0,0,0-2.19-1.49,2.21,2.21,0,0,0-2.22,1.46,5.43,5.43,0,0,0-.31,2,4.19,4.19,0,0,0,.65,2.4,2.22,2.22,0,0,0,2,1A2,2,0,0,0,76,161.36Z"/><path class="cls-1" d="M89.08,153.36A4.59,4.59,0,0,1,91,155a5.54,5.54,0,0,1,.9,2.33,14.34,14.34,0,0,1,.1,2.24H83.81A2.71,2.71,0,0,0,85,162a3,3,0,0,0,1.63.42,2.29,2.29,0,0,0,2.25-1.29h3a3.68,3.68,0,0,1-1.09,2,5.49,5.49,0,0,1-4.24,1.65,6.15,6.15,0,0,1-4-1.39q-1.72-1.39-1.72-4.52a6.11,6.11,0,0,1,1.55-4.5,5.44,5.44,0,0,1,4-1.56A6.42,6.42,0,0,1,89.08,153.36Zm-4.41,2.55a3.06,3.06,0,0,0-.79,1.75H89a2.46,2.46,0,0,0-.79-1.78,2.58,2.58,0,0,0-1.75-.61A2.34,2.34,0,0,0,84.67,155.91Z"/><path class="cls-1" d="M99.79,152.87l0.25,0v3l-0.5,0H99.19A2.45,2.45,0,0,0,96.8,157a4.5,4.5,0,0,0-.34,2v5.39h-3V153.13h2.82v2a6.22,6.22,0,0,1,1.19-1.54,3.24,3.24,0,0,1,2.15-.69h0.14Z"/><path class="cls-1" d="M100.61,155.34v-2.1h1.57v-3.15h2.92v3.15h1.83v2.1H105.1v6a1.34,1.34,0,0,0,.18.86,1.93,1.93,0,0,0,1.08.17h0.58v2.2l-1.4.05a3.75,3.75,0,0,1-2.86-.72,2.16,2.16,0,0,1-.5-1.56v-6.94h-1.57Z"/><path class="cls-1" d="M111.77,153.13v6.8a3.59,3.59,0,0,0,.23,1.45,1.57,1.57,0,0,0,1.58.86,2.06,2.06,0,0,0,2.06-1.22,4.44,4.44,0,0,0,.29-1.75v-6.14h3v11.28H116v-1.59l-0.21.31a2,2,0,0,1-.39.46,4.09,4.09,0,0,1-1.34.85,4.53,4.53,0,0,1-1.51.23,3.37,3.37,0,0,1-3.37-1.8,6.91,6.91,0,0,1-.48-2.93v-6.8h3Z"/><path class="cls-1" d="M128,152.87l0.25,0v3l-0.5,0h-0.35a2.45,2.45,0,0,0-2.39,1.16,4.52,4.52,0,0,0-.34,2v5.39h-3V153.13h2.82v2a6.22,6.22,0,0,1,1.19-1.54,3.24,3.24,0,0,1,2.15-.69H128Z"/><path class="cls-1" d="M134.49,157.55a4.68,4.68,0,0,0,1.18-.26,0.89,0.89,0,0,0,.64-0.84,1,1,0,0,0-.49-1,3.08,3.08,0,0,0-1.43-.26,1.88,1.88,0,0,0-1.5.52,2.14,2.14,0,0,0-.42,1h-2.85a4.32,4.32,0,0,1,.83-2.43q1.17-1.49,4-1.49a7.19,7.19,0,0,1,3.31.73,2.82,2.82,0,0,1,1.45,2.77v5.17q0,0.54,0,1.3a1.66,1.66,0,0,0,.18.79,1.06,1.06,0,0,0,.44.34v0.43h-3.21a3.24,3.24,0,0,1-.19-0.64q-0.05-.3-0.08-0.68a6.07,6.07,0,0,1-1.42,1.13,4.28,4.28,0,0,1-2.17.55,3.73,3.73,0,0,1-2.54-.87,3.11,3.11,0,0,1-1-2.48,3.21,3.21,0,0,1,1.62-3,7.18,7.18,0,0,1,2.61-.72Zm1.8,1.38a3.32,3.32,0,0,1-.57.28,4.73,4.73,0,0,1-.79.2l-0.67.12a4.39,4.39,0,0,0-1.36.4,1.35,1.35,0,0,0-.7,1.25,1.31,1.31,0,0,0,.43,1.09,1.62,1.62,0,0,0,1,.34,3.08,3.08,0,0,0,1.78-.56,2.37,2.37,0,0,0,.85-2v-1.1Z"/><path class="cls-1" d="M57.28,176.92a3.73,3.73,0,0,1,1.11,3v7.6h-3v-6.86a3.16,3.16,0,0,0-.24-1.37,1.66,1.66,0,0,0-1.64-.87,2,2,0,0,0-2,1.27,4.39,4.39,0,0,0-.29,1.72v6.11H48.2V176.29h2.86v1.65a5,5,0,0,1,1.07-1.25,3.72,3.72,0,0,1,2.3-.68A4.32,4.32,0,0,1,57.28,176.92Z"/><path class="cls-1" d="M65.6,180.69a4.68,4.68,0,0,0,1.18-.26,0.89,0.89,0,0,0,.64-0.84,1,1,0,0,0-.49-1,3.09,3.09,0,0,0-1.43-.26,1.88,1.88,0,0,0-1.5.52,2.12,2.12,0,0,0-.42,1H60.72a4.32,4.32,0,0,1,.83-2.43q1.17-1.49,4-1.49a7.19,7.19,0,0,1,3.31.73,2.82,2.82,0,0,1,1.44,2.77v5.17q0,0.54,0,1.3a1.64,1.64,0,0,0,.18.79,1.06,1.06,0,0,0,.43.34v0.43H67.76a3.25,3.25,0,0,1-.19-0.64q-0.05-.3-0.08-0.68a6.05,6.05,0,0,1-1.42,1.13,4.28,4.28,0,0,1-2.17.55,3.74,3.74,0,0,1-2.54-.87,3.11,3.11,0,0,1-1-2.48,3.21,3.21,0,0,1,1.62-3,7.19,7.19,0,0,1,2.61-.72Zm1.8,1.38a3.25,3.25,0,0,1-.57.28,4.69,4.69,0,0,1-.79.2l-0.67.12a4.41,4.41,0,0,0-1.36.4,1.35,1.35,0,0,0-.7,1.25,1.31,1.31,0,0,0,.43,1.09,1.62,1.62,0,0,0,1,.34,3.08,3.08,0,0,0,1.78-.56,2.37,2.37,0,0,0,.85-2v-1.1Z"/><path class="cls-1" d="M79.66,180.32a2.62,2.62,0,0,0-.43-1.14,1.79,1.79,0,0,0-1.55-.68,2,2,0,0,0-2,1.48,6.16,6.16,0,0,0-.29,2.09,5.65,5.65,0,0,0,.29,2,2,2,0,0,0,2,1.41,1.76,1.76,0,0,0,1.47-.56,2.78,2.78,0,0,0,.53-1.45h3a4.92,4.92,0,0,1-1,2.55,4.73,4.73,0,0,1-4.11,1.94,4.82,4.82,0,0,1-4-1.61,6.52,6.52,0,0,1-1.29-4.19,6.62,6.62,0,0,1,1.42-4.52A4.94,4.94,0,0,1,77.61,176a5.9,5.9,0,0,1,3.48,1,4.43,4.43,0,0,1,1.6,3.36h-3Z"/><path class="cls-1" d="M87.74,174.92h-3V172.2h3v2.72Zm-3,1.35h3v11.28h-3V176.27Z"/><path class="cls-1" d="M100,186.17a6.21,6.21,0,0,1-8.67,0,7,7,0,0,1,0-8.47,6.15,6.15,0,0,1,8.67,0A7,7,0,0,1,100,186.17Zm-2.36-1.63a5.27,5.27,0,0,0,0-5.22,2.62,2.62,0,0,0-4,0,5.23,5.23,0,0,0,0,5.22A2.61,2.61,0,0,0,97.64,184.54Z"/><path class="cls-1" d="M112.64,176.92a3.73,3.73,0,0,1,1.11,3v7.6h-3v-6.86a3.14,3.14,0,0,0-.24-1.37,1.66,1.66,0,0,0-1.64-.87,2,2,0,0,0-2,1.27,4.39,4.39,0,0,0-.29,1.72v6.11h-2.95V176.29h2.86v1.65a5,5,0,0,1,1.07-1.25,3.71,3.71,0,0,1,2.3-.68A4.32,4.32,0,0,1,112.64,176.92Z"/><path class="cls-1" d="M121,180.69a4.68,4.68,0,0,0,1.18-.26,0.89,0.89,0,0,0,.64-0.84,1,1,0,0,0-.49-1,3.08,3.08,0,0,0-1.43-.26,1.88,1.88,0,0,0-1.5.52,2.14,2.14,0,0,0-.42,1h-2.85a4.32,4.32,0,0,1,.83-2.43q1.17-1.49,4-1.49a7.19,7.19,0,0,1,3.31.73,2.82,2.82,0,0,1,1.45,2.77v5.17q0,0.54,0,1.3a1.66,1.66,0,0,0,.18.79,1.06,1.06,0,0,0,.44.34v0.43h-3.21a3.24,3.24,0,0,1-.19-0.64q-0.05-.3-0.08-0.68a6.07,6.07,0,0,1-1.42,1.13,4.28,4.28,0,0,1-2.17.55,3.73,3.73,0,0,1-2.54-.87,3.11,3.11,0,0,1-1-2.48,3.21,3.21,0,0,1,1.62-3,7.18,7.18,0,0,1,2.61-.72Zm1.8,1.38a3.32,3.32,0,0,1-.57.28,4.73,4.73,0,0,1-.79.2l-0.67.12a4.39,4.39,0,0,0-1.36.4,1.35,1.35,0,0,0-.7,1.25,1.31,1.31,0,0,0,.43,1.09,1.62,1.62,0,0,0,1,.34,3.08,3.08,0,0,0,1.78-.56,2.37,2.37,0,0,0,.85-2v-1.1Z"/><path class="cls-1" d="M131.29,187.55h-2.95V172.3h2.95v15.25Z"/><path class="cls-1" d="M150.13,77.37A59.72,59.72,0,1,0,90.41,137.1,59.73,59.73,0,0,0,150.13,77.37Z"/><path class="cls-2" d="M112.14,78.88L113,79.26l2.88,1.31a1.67,1.67,0,0,0,.56.11,1.48,1.48,0,0,0,.74-0.2,1.35,1.35,0,0,0,.61-1.15V39.8a1.34,1.34,0,0,0-.88-1.26l-3.72-1.35a1.34,1.34,0,0,0-1.24.16,1.37,1.37,0,0,0-.59,1.1v8l-18.07,3V44.19a2.87,2.87,0,0,0-5.75,0v5.27l-18.07-3v-8a1.33,1.33,0,0,0-1.8-1.26l-3.72,1.35A1.33,1.33,0,0,0,63,39.8V79.33a1.37,1.37,0,0,0,.63,1.15,1.4,1.4,0,0,0,.72.2,1.57,1.57,0,0,0,.56-0.11l3.72-1.69a1.37,1.37,0,0,0,.79-1.24V68.76l18.07,3.06v42.12a2.55,2.55,0,0,0,.2,1H64.38a1.35,1.35,0,0,0,0,2.7h52a1.35,1.35,0,0,0,0-2.7H93.1a3,3,0,0,0,.18-1V71.82l18.07-3.06v8.88A1.37,1.37,0,0,0,112.14,78.88Zm-24.61-9.8L69.45,66V49.17l18.07,3V69.07Zm5.75,0V52.22l18.07-3V66Z"/><circle class="cls-2" cx="144.64" cy="98.47" r="25.99"/><path class="cls-1" d="M136.5,101h-8.12l1-4.73,10.08-9.47h5l-2,9.88h2.29L143.9,101h-2.32l-0.79,3.51h-5Zm1-4.33,1.09-5h-0.05l-5.09,5h4Z"/><path class="cls-1" d="M157.8,102.78l-0.05-.05a5.87,5.87,0,0,1-4.91,2.24c-6.36,0-7.38-5.4-7.38-7.66,0-5.7,3.26-11.38,10.39-11.38,4.07,0,7.48,2.06,7.53,6.8h-5.29a2.25,2.25,0,0,0-2.57-2.27c-3.08,0-4.45,3.28-4.45,6.41,0,2.14.92,3.56,3.18,3.56a3.22,3.22,0,0,0,3.33-2H155l0.81-3.89h7.43l-2.09,10h-3.54Z"/><path class="cls-1" d="M149.52,106h0.89l-0.89,4.3h2.55l-0.16.77h-3.44Z"/><path class="cls-1" d="M152,106h4.17l-0.16.77h-1.61l-0.89,4.3H152.6l0.89-4.3h-1.67Z"/><path class="cls-1" d="M156.68,106h3.69l-0.16.77H157.4L157.12,108h2.61l-0.15.72H157l-0.31,1.48h2.84l-0.16.77h-3.71Z"/><path class="cls-1" d="M136.06,87.53h-9.45a0.71,0.71,0,0,1,0-1.42h9.45A0.71,0.71,0,1,1,136.06,87.53Z"/><path class="cls-1" d="M134.27,89.81H128.4a0.71,0.71,0,0,1,0-1.42h5.87A0.71,0.71,0,0,1,134.27,89.81Z"/><path class="cls-1" d="M146.69,108.45H136a0.71,0.71,0,1,1,0-1.42h10.68A0.71,0.71,0,0,1,146.69,108.45Z"/><path class="cls-1" d="M146.69,110.74h-6.64a0.71,0.71,0,1,1,0-1.42h6.64A0.71,0.71,0,0,1,146.69,110.74Z"/></svg>