<svg id="Capa_1" data-name="Capa 1" xmlns="http://www.w3.org/2000/svg" viewBox="0 0 176.17 212.73"><defs><style>.cls-1{fill:#faeb15;}.cls-2{fill:#704790;}</style></defs><title>landing-svg</title><circle class="cls-1" cx="88.08" cy="81.04" r="62.23"/><path class="cls-2" d="M117.27,65.23a2.07,2.07,0,0,0,2.9-.44h0a12,12,0,0,0-19.34-14.23h0a2.08,2.08,0,0,0,.44,2.9l5.4,4-2,2.68a31.43,31.43,0,0,0-12.51-4.31V51h1.48a3.66,3.66,0,0,0,3.66-3.66h0V46.75a3.66,3.66,0,0,0-3.66-3.66H83.06a3.66,3.66,0,0,0-3.66,3.66h0v0.64a3.66,3.66,0,0,0,3.66,3.66h1.48V55.8A31.43,31.43,0,0,0,72,60.09l-2-2.7,5.4-4a2.07,2.07,0,0,0,.45-2.89h0A12,12,0,0,0,56,64q0.26,0.38.55,0.75h0a2.07,2.07,0,0,0,2.89.45h0l5.4-4,2,2.74a31.62,31.62,0,0,0-4.67,41c-0.39,1.16-2,5.38-3.28,8.89a3.79,3.79,0,0,0,3.55,5.1h4.92a4.13,4.13,0,0,0,2.92-1.21l2.85-2.85a31.62,31.62,0,0,0,30.39,0l2.85,2.85a4.13,4.13,0,0,0,2.93,1.21h4.92a3.79,3.79,0,0,0,3.55-5.12c-1.32-3.51-2.89-7.74-3.28-8.89a31.62,31.62,0,0,0-4.67-41l2-2.74Zm-5.77,22A23.14,23.14,0,1,1,88.36,64,23.14,23.14,0,0,1,111.5,87.19v0ZM88.36,69.83a17.39,17.39,0,1,0,17.39,17.39A17.39,17.39,0,0,0,88.36,69.83Zm7.54,24.9a2.62,2.62,0,0,1-3.7,0h0l-6.46-6.46V78.46a2.62,2.62,0,0,1,5.24,0V86.1L95.9,91a2.62,2.62,0,0,1,0,3.7h0Z"/><path class="cls-1" d="M58.5,152.45a6.61,6.61,0,0,1,4.93-2q4,0,5.86,2.66a5.79,5.79,0,0,1,1.1,3H67a4.56,4.56,0,0,0-.82-1.74,3.31,3.31,0,0,0-2.66-1,3.27,3.27,0,0,0-2.83,1.48,7.2,7.2,0,0,0-1,4.17,6.33,6.33,0,0,0,1.09,4,3.42,3.42,0,0,0,2.77,1.34,3.14,3.14,0,0,0,2.63-1.15,5.06,5.06,0,0,0,.83-1.86h3.33a7.23,7.23,0,0,1-2.2,4.27,6.41,6.41,0,0,1-4.54,1.64A6.81,6.81,0,0,1,58.23,165,10.52,10.52,0,0,1,58.5,152.45Z"/><path class="cls-1" d="M82.71,165.37a5.52,5.52,0,0,1-4.56,1.85,5.52,5.52,0,0,1-4.56-1.85,7.36,7.36,0,0,1,0-8.91,5.49,5.49,0,0,1,4.56-1.88,5.49,5.49,0,0,1,4.56,1.88A7.36,7.36,0,0,1,82.71,165.37Zm-2.48-1.71a5.54,5.54,0,0,0,0-5.5,2.76,2.76,0,0,0-4.19,0,5.5,5.5,0,0,0,0,5.5A2.75,2.75,0,0,0,80.23,163.65Z"/><path class="cls-1" d="M96.57,156.38a6.81,6.81,0,0,1,1.33,4.35,7.63,7.63,0,0,1-1.31,4.58,4.77,4.77,0,0,1-6,1.23,4.73,4.73,0,0,1-1.16-1.22v1.49H86.32v-16h3.1v5.7a4.57,4.57,0,0,1,1.3-1.26,3.89,3.89,0,0,1,2.15-.54A4.43,4.43,0,0,1,96.57,156.38ZM94,163.61a4.39,4.39,0,0,0,.67-2.55,5.72,5.72,0,0,0-.33-2.09A2.29,2.29,0,0,0,92,157.4a2.33,2.33,0,0,0-2.34,1.54,5.73,5.73,0,0,0-.33,2.11,4.4,4.4,0,0,0,.68,2.53,2.34,2.34,0,0,0,2.07,1A2.15,2.15,0,0,0,94,163.61Z"/><path class="cls-1" d="M106.65,154.67l0.27,0v3.18l-0.52,0H106A2.57,2.57,0,0,0,103.5,159a4.75,4.75,0,0,0-.36,2.11v5.67H100V155h3V157a6.58,6.58,0,0,1,1.25-1.62,3.41,3.41,0,0,1,2.26-.73h0.15Z"/><path class="cls-1" d="M118.63,165.37a6.54,6.54,0,0,1-9.12,0,7.36,7.36,0,0,1,0-8.91,6.47,6.47,0,0,1,9.12,0A7.36,7.36,0,0,1,118.63,165.37Zm-2.48-1.71a5.54,5.54,0,0,0,0-5.5,2.76,2.76,0,0,0-4.19,0,5.5,5.5,0,0,0,0,5.5A2.75,2.75,0,0,0,116.14,163.65Z"/><path class="cls-1" d="M25.81,180.57a6.32,6.32,0,0,1,1.45,4.51,7.12,7.12,0,0,1-1.42,4.78,4.61,4.61,0,0,1-3.65,1.64,3.83,3.83,0,0,1-2.37-.71,4.56,4.56,0,0,1-1-1.14v6.18H15.74V179.29h3V181a5,5,0,0,1,1.07-1.22,4,4,0,0,1,2.48-.79A4.7,4.7,0,0,1,25.81,180.57Zm-2.38,2.23a2.21,2.21,0,0,0-2.05-1.06,2.33,2.33,0,0,0-2.34,1.6,6,6,0,0,0-.33,2.16,3.42,3.42,0,0,0,1.11,2.91,2.55,2.55,0,0,0,1.56.49,2.27,2.27,0,0,0,2-1A5.24,5.24,0,0,0,23.42,182.8Z"/><path class="cls-1" d="M39.34,189.71a5.52,5.52,0,0,1-4.56,1.85,5.53,5.53,0,0,1-4.56-1.85,7.36,7.36,0,0,1,0-8.91,5.49,5.49,0,0,1,4.56-1.88,5.49,5.49,0,0,1,4.56,1.88A7.36,7.36,0,0,1,39.34,189.71ZM36.86,188a5.54,5.54,0,0,0,0-5.5,2.76,2.76,0,0,0-4.19,0,5.51,5.51,0,0,0,0,5.5A2.75,2.75,0,0,0,36.86,188Z"/><path class="cls-1" d="M49.66,179l0.27,0v3.18l-0.52,0H49a2.57,2.57,0,0,0-2.51,1.22,4.73,4.73,0,0,0-.36,2.11v5.67H43V179.29h3v2.07a6.6,6.6,0,0,1,1.25-1.62,3.42,3.42,0,0,1,2.27-.73h0.15Z"/><path class="cls-1" d="M60.34,187.37a2.06,2.06,0,0,0,.43,1.18,2.89,2.89,0,0,0,2.14.62,3.28,3.28,0,0,0,1.46-.27,0.91,0.91,0,0,0,.11-1.61,17.93,17.93,0,0,0-3.25-.94,6.72,6.72,0,0,1-2.85-1.25,2.71,2.71,0,0,1-.83-2.13,3.7,3.7,0,0,1,1.29-2.83A5.2,5.2,0,0,1,62.49,179a6.69,6.69,0,0,1,3.63.89,3.8,3.8,0,0,1,1.61,3.07h-3.1a1.84,1.84,0,0,0-.34-0.95,2.13,2.13,0,0,0-1.75-.63,2.52,2.52,0,0,0-1.45.32,0.91,0.91,0,0,0-.43.74,0.81,0.81,0,0,0,.46.77,19.84,19.84,0,0,0,3.24.86,5.94,5.94,0,0,1,2.78,1.32,3,3,0,0,1,.92,2.23,3.61,3.61,0,0,1-1.31,2.88,6.18,6.18,0,0,1-4.06,1.12,6.13,6.13,0,0,1-4.14-1.18,3.84,3.84,0,0,1-1.34-3h3.15Z"/><path class="cls-1" d="M78.07,179.53a4.82,4.82,0,0,1,2.05,1.75,5.82,5.82,0,0,1,.95,2.45,15.17,15.17,0,0,1,.1,2.36H72.53a2.85,2.85,0,0,0,1.24,2.5,3.15,3.15,0,0,0,1.71.45,2.41,2.41,0,0,0,2.36-1.36H81a3.88,3.88,0,0,1-1.15,2.14,5.77,5.77,0,0,1-4.46,1.73,6.47,6.47,0,0,1-4.18-1.46q-1.81-1.46-1.81-4.75A6.42,6.42,0,0,1,71,180.62,5.72,5.72,0,0,1,75.28,179,6.75,6.75,0,0,1,78.07,179.53Zm-4.64,2.68A3.22,3.22,0,0,0,72.6,184h5.35a2.59,2.59,0,0,0-.83-1.87,2.72,2.72,0,0,0-1.84-.64A2.46,2.46,0,0,0,73.43,182.21Z"/><path class="cls-1" d="M88.61,179.28A3.73,3.73,0,0,1,90.43,181v-1.71h3v11.26a6.3,6.3,0,0,1-.77,3.46q-1.33,2-5.1,2a7,7,0,0,1-3.71-.89,3.29,3.29,0,0,1-1.59-2.67h3.38a1.39,1.39,0,0,0,.42.78,2.62,2.62,0,0,0,1.69.42A2.27,2.27,0,0,0,90,192.54a5.67,5.67,0,0,0,.37-2.42v-0.76a3.79,3.79,0,0,1-1,1.14,3.85,3.85,0,0,1-2.41.71,4.55,4.55,0,0,1-3.65-1.61A6.49,6.49,0,0,1,82,185.26a7.34,7.34,0,0,1,1.31-4.45,4.35,4.35,0,0,1,3.73-1.8A4.1,4.1,0,0,1,88.61,179.28Zm1.06,8.51a3.82,3.82,0,0,0,.75-2.62,4,4,0,0,0-.71-2.57,2.32,2.32,0,0,0-1.9-.88,2.24,2.24,0,0,0-2.24,1.54,5.47,5.47,0,0,0-.33,2,4.63,4.63,0,0,0,.35,1.84,2.26,2.26,0,0,0,2.26,1.5A2.38,2.38,0,0,0,89.67,187.79Z"/><path class="cls-1" d="M99.45,179.29v7.15a3.76,3.76,0,0,0,.24,1.52,1.65,1.65,0,0,0,1.66.9,2.16,2.16,0,0,0,2.17-1.29,4.65,4.65,0,0,0,.3-1.84v-6.46H107v11.87h-3v-1.68l-0.22.33a2.18,2.18,0,0,1-.41.48,4.28,4.28,0,0,1-1.41.89,4.76,4.76,0,0,1-1.59.24,3.54,3.54,0,0,1-3.54-1.89,7.27,7.27,0,0,1-.51-3.08v-7.15h3.18Z"/><path class="cls-1" d="M119.55,180a3.93,3.93,0,0,1,1.17,3.2v8h-3.18v-7.22a3.31,3.31,0,0,0-.25-1.44,1.75,1.75,0,0,0-1.73-.91,2.14,2.14,0,0,0-2.15,1.34,4.64,4.64,0,0,0-.3,1.81v6.42H110V179.31h3V181a5.28,5.28,0,0,1,1.13-1.32,3.91,3.91,0,0,1,2.42-.72A4.55,4.55,0,0,1,119.55,180Z"/><path class="cls-1" d="M129.89,179.48a3.77,3.77,0,0,1,1.36,1.31v-5.66h3.15v16h-3v-1.64a4.36,4.36,0,0,1-1.51,1.54,4.26,4.26,0,0,1-2.11.48,4.41,4.41,0,0,1-3.5-1.68,6.46,6.46,0,0,1-1.42-4.32,7.43,7.43,0,0,1,1.4-4.78A4.55,4.55,0,0,1,128,179,3.82,3.82,0,0,1,129.89,179.48Zm0.76,8.45a4.33,4.33,0,0,0,.69-2.54,3.89,3.89,0,0,0-1.1-3.11,2.37,2.37,0,0,0-1.57-.57,2.18,2.18,0,0,0-2,1,5.55,5.55,0,0,0,0,5.18,2.19,2.19,0,0,0,2,1A2.29,2.29,0,0,0,130.65,187.94Z"/><path class="cls-1" d="M147.11,189.71a6.54,6.54,0,0,1-9.12,0,7.36,7.36,0,0,1,0-8.91,6.47,6.47,0,0,1,9.12,0A7.36,7.36,0,0,1,147.11,189.71ZM144.63,188a5.54,5.54,0,0,0,0-5.5,2.76,2.76,0,0,0-4.19,0,5.5,5.5,0,0,0,0,5.5A2.75,2.75,0,0,0,144.63,188Z"/><path class="cls-1" d="M153.24,187.37a2.07,2.07,0,0,0,.43,1.18,2.89,2.89,0,0,0,2.14.62,3.28,3.28,0,0,0,1.46-.27,0.91,0.91,0,0,0,.11-1.61,17.93,17.93,0,0,0-3.25-.94,6.73,6.73,0,0,1-2.85-1.25,2.71,2.71,0,0,1-.83-2.13,3.7,3.7,0,0,1,1.29-2.83,5.2,5.2,0,0,1,3.64-1.18,6.69,6.69,0,0,1,3.63.89,3.8,3.8,0,0,1,1.61,3.07h-3.1a1.84,1.84,0,0,0-.34-0.95,2.14,2.14,0,0,0-1.75-.63,2.52,2.52,0,0,0-1.45.32,0.91,0.91,0,0,0-.43.74,0.81,0.81,0,0,0,.46.77,19.79,19.79,0,0,0,3.24.86,5.94,5.94,0,0,1,2.78,1.32,3,3,0,0,1,.92,2.23,3.61,3.61,0,0,1-1.31,2.88,7.9,7.9,0,0,1-8.2-.07,3.84,3.84,0,0,1-1.34-3h3.15Z"/></svg>