<svg id="Capa_1" data-name="Capa 1" xmlns="http://www.w3.org/2000/svg" viewBox="0 0 458.57 116.99"><defs><style>.cls-1{fill:#fbe900;}.cls-2{fill:#f8e941;}.cls-3{fill:#fff;}.cls-4{fill:#664388;}</style></defs><title>landing-svg</title><rect class="cls-1" x="32.43" y="45.75" width="393.69" height="38.53"/><rect class="cls-2" x="19.74" y="25.65" width="18.01" height="18.01"/><rect class="cls-3" x="10.58" y="12.6" width="11.4" height="11.4"/><rect class="cls-3" x="426.78" y="86.7" width="16.36" height="16.36"/><path class="cls-4" d="M61.19,54.12h1.75V65.47c0,4.26,2,5.88,5.37,5.88s5.42-1.62,5.39-5.88V54.12h1.75V65.85c0,3.78-2,7-7.14,7s-7.11-3.21-7.11-7V54.12Z"/><path class="cls-4" d="M80.68,59.2h1.62v2.29h0.05a4.49,4.49,0,0,1,4.24-2.67c3.72,0,4.85,2,4.85,5.11v8.53H89.82V64.18c0-2.29-.75-4-3.36-4s-4.11,2-4.16,4.55v7.73H80.68V59.2Z"/><path class="cls-4" d="M96.39,63.26c0.15-3.11,2.34-4.44,5.37-4.44,2.34,0,4.88.72,4.88,4.26v7a0.86,0.86,0,0,0,1,1,1.52,1.52,0,0,0,.51-0.1v1.36a4.46,4.46,0,0,1-1.05.1c-1.64,0-1.9-.92-1.9-2.31h-0.05a5.05,5.05,0,0,1-4.83,2.7c-2.44,0-4.44-1.21-4.44-3.88,0-3.72,3.62-3.85,7.11-4.26,1.34-.15,2.08-0.33,2.08-1.8,0-2.18-1.57-2.72-3.47-2.72s-3.49.92-3.54,3.08H96.39Zm8.63,2H105a2,2,0,0,1-1.36.59c-2.75.49-6.16,0.46-6.16,3.06a2.76,2.76,0,0,0,3,2.62c2.47,0,4.65-1.57,4.62-4.16V65.21Z"/><path class="cls-4" d="M123.68,59.2h2.7v1.36h-2.7V69.5c0,1.05.15,1.67,1.31,1.75a12.56,12.56,0,0,0,1.39-.08v1.39c-0.49,0-1,.05-1.44.05-2.16,0-2.9-.72-2.88-3V60.56h-2.31V59.2h2.31v-4h1.62v4Z"/><path class="cls-4" d="M131.72,66.26c0,2.36,1.26,5.21,4.37,5.21a4,4,0,0,0,4.16-3.39h1.62c-0.69,3-2.44,4.75-5.78,4.75-4.21,0-6-3.24-6-7,0-3.49,1.77-7,6-7s6,3.72,5.83,7.45h-10.2Zm8.58-1.36c-0.08-2.44-1.59-4.73-4.21-4.73s-4.11,2.31-4.37,4.73h8.58Z"/><path class="cls-4" d="M146.17,54.12h1.62V72.45h-1.62V54.12Z"/><path class="cls-4" d="M153.9,66.26c0,2.36,1.26,5.21,4.37,5.21a4,4,0,0,0,4.16-3.39H164c-0.69,3-2.44,4.75-5.78,4.75-4.21,0-6-3.24-6-7,0-3.49,1.77-7,6-7s6,3.72,5.83,7.45H153.9Zm8.58-1.36c-0.08-2.44-1.59-4.73-4.21-4.73s-4.11,2.31-4.37,4.73h8.58Z"/><path class="cls-4" d="M173.44,60.56h-2.62V72.45h-1.62V60.56h-2.26V59.2h2.26V58c0-2.29.62-3.88,3.21-3.88a8.55,8.55,0,0,1,1.36.1v1.39a6.6,6.6,0,0,0-1.18-.13c-1.8,0-1.75,1.13-1.77,2.57V59.2h2.62v1.36Z"/><path class="cls-4" d="M188.9,65.83c0,3.8-2.21,7-6.27,7s-6.27-3.21-6.27-7,2.21-7,6.27-7S188.9,62,188.9,65.83Zm-10.91,0c0,2.82,1.54,5.65,4.65,5.65s4.65-2.82,4.65-5.65-1.54-5.65-4.65-5.65S178,63,178,65.83Z"/><path class="cls-4" d="M193.34,59.2H195v2.29H195a4.49,4.49,0,0,1,4.24-2.67c3.72,0,4.85,2,4.85,5.11v8.53h-1.62V64.18c0-2.29-.74-4-3.36-4s-4.11,2-4.16,4.55v7.73h-1.62V59.2Z"/><path class="cls-4" d="M209.82,57.35h-1.31l2.7-3.62h2Zm-0.59,15.1V59.2h1.62V72.45h-1.62Z"/><path class="cls-4" d="M215.86,63.26c0.15-3.11,2.34-4.44,5.37-4.44,2.34,0,4.88.72,4.88,4.26v7a0.86,0.86,0,0,0,1,1,1.52,1.52,0,0,0,.51-0.1v1.36a4.46,4.46,0,0,1-1.05.1c-1.64,0-1.9-.92-1.9-2.31h-0.05a5.05,5.05,0,0,1-4.83,2.7c-2.44,0-4.44-1.21-4.44-3.88,0-3.72,3.62-3.85,7.11-4.26,1.33-.15,2.08-0.33,2.08-1.8,0-2.18-1.57-2.72-3.47-2.72s-3.49.92-3.54,3.08h-1.62Zm8.63,2h-0.05a2,2,0,0,1-1.36.59c-2.75.49-6.16,0.46-6.16,3.06a2.76,2.76,0,0,0,3,2.62c2.47,0,4.65-1.57,4.62-4.16V65.21Z"/><path class="cls-4" d="M240.43,59.18h3.47v1.69h0.05a4.42,4.42,0,0,1,4-2.05c4.16,0,6,3.36,6,7.14,0,3.54-2,6.86-5.83,6.86a4.71,4.71,0,0,1-4-2h-0.05v6.32h-3.65v-18Zm9.86,6.68c0-2.11-.85-4.29-3.18-4.29s-3.16,2.13-3.16,4.29,0.82,4.21,3.18,4.21S250.29,68,250.29,65.85Z"/><path class="cls-4" d="M258,63.26c0.21-3.42,3.26-4.44,6.24-4.44,2.65,0,5.83.59,5.83,3.77V69.5a6.8,6.8,0,0,0,.46,3h-3.7a5.43,5.43,0,0,1-.26-1.28,6.09,6.09,0,0,1-4.47,1.64c-2.52,0-4.52-1.26-4.52-4,0-3,2.26-3.72,4.52-4s4.31-.26,4.31-1.75-1.08-1.8-2.36-1.8-2.29.56-2.41,2H258Zm8.42,2.7c-0.62.54-1.9,0.56-3,.77s-2.16.62-2.16,2,1.05,1.69,2.23,1.69a2.71,2.71,0,0,0,3-3.06V66Z"/><path class="cls-4" d="M275,59.18h3.47v2.47h0.05a4.69,4.69,0,0,1,4.24-2.82,2.71,2.71,0,0,1,.8.13v3.39a6.64,6.64,0,0,0-1.31-.13c-2.67,0-3.6,1.93-3.6,4.26v6H275V59.18Z"/><path class="cls-4" d="M286.85,63.26c0.21-3.42,3.26-4.44,6.24-4.44,2.65,0,5.83.59,5.83,3.77V69.5a6.81,6.81,0,0,0,.46,3h-3.7a5.43,5.43,0,0,1-.26-1.28A6.09,6.09,0,0,1,291,72.81c-2.52,0-4.52-1.26-4.52-4,0-3,2.26-3.72,4.52-4s4.31-.26,4.31-1.75-1.08-1.8-2.36-1.8-2.29.56-2.41,2h-3.65Zm8.42,2.7c-0.62.54-1.9,0.56-3,.77s-2.16.62-2.16,2,1.05,1.69,2.23,1.69a2.71,2.71,0,0,0,3-3.06V66Z"/><path class="cls-4" d="M325.45,72.45H322V70.6H321.9a4.73,4.73,0,0,1-4.06,2.21c-3.88,0-4.85-2.18-4.85-5.47V59.18h3.65v7.5c0,2.18.64,3.26,2.34,3.26,2,0,2.83-1.1,2.83-3.8v-7h3.65V72.45Z"/><path class="cls-4" d="M333.09,68.14c0,1.59,1.36,2.23,2.8,2.23,1.05,0,2.39-.41,2.39-1.69,0-1.1-1.51-1.49-4.13-2.05-2.11-.46-4.21-1.21-4.21-3.54,0-3.39,2.93-4.26,5.78-4.26s5.57,1,5.85,4.24H338.1c-0.1-1.41-1.18-1.8-2.49-1.8-0.82,0-2,.15-2,1.23,0,1.31,2.05,1.49,4.13,2s4.21,1.26,4.21,3.72c0,3.49-3,4.62-6.06,4.62s-6.09-1.16-6.24-4.67h3.47Z"/><path class="cls-4" d="M346,63.26c0.21-3.42,3.26-4.44,6.24-4.44,2.64,0,5.83.59,5.83,3.77V69.5a6.82,6.82,0,0,0,.46,3h-3.7a5.38,5.38,0,0,1-.26-1.28,6.09,6.09,0,0,1-4.47,1.64c-2.52,0-4.52-1.26-4.52-4,0-3,2.26-3.72,4.52-4s4.31-.26,4.31-1.75-1.08-1.8-2.36-1.8-2.29.56-2.41,2H346Zm8.42,2.7c-0.62.54-1.9,0.56-3,.77s-2.16.62-2.16,2,1.05,1.69,2.23,1.69a2.71,2.71,0,0,0,3-3.06V66Z"/><path class="cls-4" d="M362.9,59.18h3.47v2.47h0.05a4.69,4.69,0,0,1,4.24-2.82,2.73,2.73,0,0,1,.8.13v3.39a6.65,6.65,0,0,0-1.31-.13c-2.67,0-3.6,1.93-3.6,4.26v6H362.9V59.18Z"/><path class="cls-4" d="M375,54.12h3.65V72.45H375V54.12Z"/><path class="cls-4" d="M383.47,63.26c0.21-3.42,3.26-4.44,6.24-4.44,2.65,0,5.83.59,5.83,3.77V69.5a6.8,6.8,0,0,0,.46,3h-3.7a5.43,5.43,0,0,1-.26-1.28,6.09,6.09,0,0,1-4.47,1.64c-2.52,0-4.52-1.26-4.52-4,0-3,2.26-3.72,4.52-4s4.31-.26,4.31-1.75-1.08-1.8-2.36-1.8-2.29.56-2.41,2h-3.65Zm8.42,2.7c-0.62.54-1.9,0.56-3,.77s-2.16.62-2.16,2,1.05,1.69,2.23,1.69a2.71,2.71,0,0,0,3-3.06V66Z"/></svg>