<svg id="Capa_1" data-name="Capa 1" xmlns="http://www.w3.org/2000/svg" viewBox="0 0 462.76 99.67"><defs><style>.cls-1{fill:none;stroke:#fbe900;stroke-linecap:round;stroke-linejoin:round;stroke-width:2px;}.cls-2{fill:#fff;}</style></defs><title>landing-svg</title><line class="cls-1" x1="121.5" y1="68.81" x2="121.5" y2="14.77"/><line class="cls-1" x1="234.25" y1="68.81" x2="234.25" y2="14.77"/><line class="cls-1" x1="347" y1="68.81" x2="347" y2="14.77"/><path class="cls-2" d="M58.81,67.22a4.66,4.66,0,1,0,4.66,4.66,4.66,4.66,0,0,0-4.66-4.66m0,5.72a1.06,1.06,0,1,1,1.06-1.06,1.06,1.06,0,0,1-1.06,1.06"/><path class="cls-2" d="M80.77,67.22a4.66,4.66,0,1,0,4.66,4.66,4.66,4.66,0,0,0-4.66-4.66m0,5.72a1.06,1.06,0,1,1,1.06-1.06,1.06,1.06,0,0,1-1.06,1.06"/><path class="cls-2" d="M88,62.1H51.54a1.8,1.8,0,0,0,0,3.6H88a1.8,1.8,0,0,0,0-3.6"/><path class="cls-2" d="M94.56,30.48c-0.75-.91-3-1.39-3-1.39a2.11,2.11,0,0,0-.36,0H46.66l-0.36,0L46,28.9a0.49,0.49,0,0,1-.19-0.27L43.6,17.8a5,5,0,0,0-5.2-4.26H30a1.8,1.8,0,0,0,0,3.59h8.36a1.61,1.61,0,0,1,1.68,1.38L43,32.89,43,33.24S46.3,50.11,47.4,55.73c0,0.1.33,4.27,5.2,4.27H85.85c4.91,0,5.07-3.59,5.2-4.27,1-5.43,4.28-21.71,4.28-21.71a2.18,2.18,0,0,0,0-.36s0-2.26-.8-3.18m-46,11.25a0.23,0.23,0,0,1-.22-0.18L46.66,33a0.56,0.56,0,0,1,0-.23v0a0.35,0.35,0,0,1,.19-0.1l0.36,0h5.88a0.23,0.23,0,0,1,.22.18L55,41.55a0.14,0.14,0,0,1-.14.18H48.59ZM57.85,56.4H52.59A1.74,1.74,0,0,1,50.92,55l-0.16-.81-0.07-.35L49.16,45.5a0.15,0.15,0,0,1,.15-0.18h6.31a0.23,0.23,0,0,1,.22.18L58,56.23a0.14,0.14,0,0,1-.15.18M68,56.22a0.18,0.18,0,0,1-.18.18H61.88a0.23,0.23,0,0,1-.22-0.18L59.51,45.5a0.14,0.14,0,0,1,.14-0.18h8.16a0.18,0.18,0,0,1,.18.18V56.22Zm0-14.67a0.18,0.18,0,0,1-.18.18H58.93a0.23,0.23,0,0,1-.21-0.18L57,32.83a0.14,0.14,0,0,1,.14-0.18H67.81a0.18,0.18,0,0,1,.18.18v8.72Zm9.92,14.67a0.23,0.23,0,0,1-.22.18H71.76a0.18,0.18,0,0,1-.18-0.18V45.5a0.18,0.18,0,0,1,.18-0.18h8.16a0.14,0.14,0,0,1,.15.18Zm2.74-14.5H71.76a0.18,0.18,0,0,1-.18-0.18V32.83a0.18,0.18,0,0,1,.18-0.18H82.47a0.14,0.14,0,0,1,.14.18l-1.75,8.73a0.23,0.23,0,0,1-.22.18M87.52,55a1.67,1.67,0,0,1-1.67,1.37H81.72a0.14,0.14,0,0,1-.15-0.18L83.73,45.5a0.23,0.23,0,0,1,.22-0.18h5.3a0.14,0.14,0,0,1,.15.18L87.52,55M91.84,33a2.54,2.54,0,0,1,0,.36l-1.62,8.23a0.23,0.23,0,0,1-.21.18H84.67a0.14,0.14,0,0,1-.14-0.18l1.76-8.73a0.23,0.23,0,0,1,.21-0.18h4.75l0.36,0a0.35,0.35,0,0,1,.19.1,0.33,0.33,0,0,1,.06.2"/><path class="cls-2" d="M283.16,59.07a0.77,0.77,0,1,0,1.54,0,0.76,0.76,0,0,0-.77-0.77,0.78,0.78,0,0,0-.77.77"/><path class="cls-2" d="M264.86,23.18l0,51.56a1.71,1.71,0,0,0,1.71,1.7h32.68a1.69,1.69,0,0,0,1.7-1.69V18a1.71,1.71,0,0,0-1.7-1.7H271.73Zm14.67,22.66,0,9.09a4,4,0,0,1-4.64-.06l0-9h4.63ZM269,54.56h0.54l0-5.9H269A3,3,0,0,1,272,45.86H274l0,8.82a6.9,6.9,0,0,0-5,2.64V54.56Zm3,17.79a3,3,0,0,1-3-2.78h0.52l0-5.9h-0.54V60.82a6.43,6.43,0,0,0,5.3,2.7l0,8.83h-2.32Zm3.19,0,0-9.1a4,4,0,0,1,4.64.06l0,9h-4.64Zm10.48-8.72h-0.53v5.9h0.52a3,3,0,0,1-2.94,2.8h-2.05l0-8.82a6.88,6.88,0,0,0,5-2.64v2.77Zm0-4a6.06,6.06,0,0,1-5.29,3.27c-3.08-2-5.3-.4-5.81,0a5.66,5.66,0,0,1-5.57-3.43V58.59a6.08,6.08,0,0,1,5.29-3.28c3.08,2,5.31.41,5.81,0a5.65,5.65,0,0,1,5.57,3.43v0.86Zm-0.06-11h-0.52l0,5.9h0.54v2.86a6.43,6.43,0,0,0-5.3-2.7l0-8.83h2.33a3,3,0,0,1,3,2.78"/><path class="cls-2" d="M307.4,63.68a5.73,5.73,0,0,0,4.84,6V60.19a10,10,0,0,0-1.45-.41c-4.53-1.22-9.06-3-9.06-9,0-6.21,5.07-9.38,10.5-9.69V37.6h2.67v3.49c5.39,0.59,9.82,3.4,10.19,9.64h-6.43c0-2.4-1.72-4.35-3.76-4.35v8c0.72,0.18,1.49.36,2.31,0.59,8.83,2.44,9,7.47,9,10.5,0,2.58-2.31,8.88-11.32,9.46V78.8h-2.67V75c-6.7-.5-10.59-4.17-11.27-11.27h6.43Zm4.84-17.29a3.79,3.79,0,0,0-4.07,3.76c0,2,1.18,2.94,4.07,3.62V46.39Zm2.67,23.27c2.22-.23,4.89-1.53,4.89-4.43,0-2.41-1.31-3.26-4.89-4.26v8.69Z"/><polygon class="cls-2" points="391.6 42.68 392.5 46.75 396.95 44.62 397.01 44.62 397.01 63.14 402.33 63.14 402.33 39.8 397.78 39.8 391.6 42.68"/><path class="cls-2" d="M419.49,49.51a10.66,10.66,0,0,0-6.13-1.68,9.89,9.89,0,0,0-1.51.08l0.5-3.58h9.08V39.8H408.55L407,52a20.26,20.26,0,0,1,3.15-.21c4.66,0,6.56,1.48,6.56,3.88s-2.4,3.55-4.66,3.55a13.47,13.47,0,0,1-5.27-1.15l-1,4.09a14.86,14.86,0,0,0,6.49,1.33c6.27,0,10-3.84,10-8.18a6.63,6.63,0,0,0-2.84-5.85"/><path class="cls-2" d="M428.72,21.05V23.9a5.26,5.26,0,0,1-5.22,5.24h-0.27A5.28,5.28,0,0,1,418,23.9V20.68h-5.71V23.9A5.28,5.28,0,0,1,407,29.14h-0.26a5.26,5.26,0,0,1-5.23-5.24V20.68h-5.81V23.9a5.21,5.21,0,0,1-5.17,5.24H390.3a5.24,5.24,0,0,1-5.2-5.24V21.09A8.3,8.3,0,0,0,379.39,29V66.12a8.3,8.3,0,0,0,8.33,8.31h38.49a8.29,8.29,0,0,0,8.32-8.31V29a8.36,8.36,0,0,0-5.8-8m1.67,44.31a4.82,4.82,0,0,1-4.81,4.84H388.35a4.83,4.83,0,0,1-4.82-4.84V39a3.26,3.26,0,0,1,3.28-3.26h40.32A3.25,3.25,0,0,1,430.39,39V65.36Z"/><path class="cls-2" d="M390.3,25.23h0.27a2.68,2.68,0,0,0,2.71-2.68V18.85a2.71,2.71,0,0,0-.78-1.91h0a2.7,2.7,0,0,0-1.92-.77H390.3a2.7,2.7,0,0,0-1.92.77h0a2.7,2.7,0,0,0-.79,1.91v3.69a2.67,2.67,0,0,0,.67,1.76,2.71,2.71,0,0,0,2.07.93"/><path class="cls-2" d="M405.21,24.79h0a2.7,2.7,0,0,0,1.5.43H407a2.66,2.66,0,0,0,1.29-.31h0a2.69,2.69,0,0,0,1.38-2.37V18.85a2.71,2.71,0,0,0-1.06-2.17h0v0a2.65,2.65,0,0,0-1.62-.52h-0.26a2.7,2.7,0,0,0-1.83.69h0a2.72,2.72,0,0,0-.9,2v3.69a2.74,2.74,0,0,0,1.21,2.25"/><path class="cls-2" d="M423.23,25.23h0.27a2.74,2.74,0,0,0,2.08-.93,2.68,2.68,0,0,0,.68-1.76V18.85a2.75,2.75,0,0,0-1.43-2.39h0l-0.21-.1h0l-0.05,0-0.07,0h-0.13a2.71,2.71,0,0,0-.81-0.1h-0.27a2.61,2.61,0,0,0-.4,0,2.69,2.69,0,0,0-2.29,2.67v3.7a2.66,2.66,0,0,0,2.69,2.68"/><path class="cls-2" d="M175.79,14.77a32.78,32.78,0,1,0,32.78,32.78A32.78,32.78,0,0,0,175.79,14.77Zm-8.22,45.4H160V45.63h-5.91V40.41c3.66,0.07,7.29-1.31,7.51-5.48h5.95V60.17Zm11.92-.39-1.84-3.21-1.9,3.21H172l3.89-5.72-3.54-5h3.89L177.81,52l1.6-2.92h3.68l-3.45,5.06,3.84,5.69h-4Zm18,0.39h-7.54V45.63H184V40.41c3.66,0.07,7.29-1.31,7.51-5.48h5.95V60.17Z"/></svg>