<svg id="Capa_1" data-name="Capa 1" xmlns="http://www.w3.org/2000/svg" viewBox="0 0 455.08 160.06"><defs><style>.cls-1{fill:#fff;}.cls-2{fill:#faeb15;}</style></defs><title>landing-svg</title><path class="cls-1" d="M88.28,29.06c-0.42-3.93-3-5.63-6.83-5.63-3.08,0-6.17,1.12-6.17,4.7,0,3.39,4.4,3.89,8.83,4.9s8.79,2.54,8.79,7.94c0,5.86-5.75,8.21-10.76,8.21-6.17,0-11.37-3-11.37-9.72h3.47c0,4.63,3.86,6.63,8,6.63,3.32,0,7-1,7-5,0-3.78-4.4-4.43-8.79-5.4s-8.83-2.24-8.83-7.29c0-5.59,5-8.06,10-8.06,5.63,0,9.91,2.66,10.14,8.71H88.28Z"/><path class="cls-1" d="M112.84,42.21c-0.89,4.4-4,6.79-8.52,6.79-6.36,0-9.37-4.4-9.56-10.49,0-6,3.93-10.37,9.37-10.37,7.06,0,9.22,6.59,9,11.41H98.23c-0.12,3.47,1.85,6.55,6.21,6.55,2.7,0,4.59-1.31,5.17-3.89h3.24Zm-3.16-5.55A5.74,5.74,0,0,0,103.93,31c-3.43,0-5.47,2.58-5.71,5.63h11.45Z"/><path class="cls-1" d="M115.58,28.6h3.08v3.16h0.08a6.94,6.94,0,0,1,6.48-3.62c5.24,0,6.86,3,6.86,7.29V48.54H128.8V35a3.76,3.76,0,0,0-4-4c-4,0-5.9,2.66-5.9,6.25V48.54h-3.28V28.6Zm15-7.48a7.26,7.26,0,0,1-1.2,3.08,3.79,3.79,0,0,1-3,1.2,8.07,8.07,0,0,1-2.54-.77,8.83,8.83,0,0,0-2.58-.73,1.76,1.76,0,0,0-1.85,1.62h-2c0.62-2.28,1.62-4.24,4-4.24a7.31,7.31,0,0,1,2.85.77,6.84,6.84,0,0,0,2.54.77,2,2,0,0,0,1.77-1.7h2Z"/><path class="cls-1" d="M153.71,48.46a4.42,4.42,0,0,1-2.35.54c-1.7,0-2.78-.93-2.78-3.08a8.85,8.85,0,0,1-7,3.08c-3.62,0-6.59-1.62-6.59-5.59,0-4.51,3.35-5.48,6.75-6.13,3.63-.69,6.71-0.46,6.71-2.93,0-2.85-2.35-3.32-4.43-3.32-2.78,0-4.82.85-5,3.78h-3.28c0.19-4.94,4-6.67,8.44-6.67,3.59,0,7.48.81,7.48,5.48V43.87c0,1.54,0,2.24,1,2.24a2.81,2.81,0,0,0,1-.19v2.54Zm-5.32-10.22c-1.27.92-3.74,1-5.94,1.35s-4,1.16-4,3.59c0,2.16,1.85,2.93,3.86,2.93,4.32,0,6.09-2.7,6.09-4.51V38.24Z"/><path class="cls-1" d="M156,21h3.28V48.54H156V21Z"/><path class="cls-1" d="M191,48.54h-3.28v-2.7H187.6C186.52,48,184,49,181.24,49c-6.13,0-9.18-4.86-9.18-10.49s3-10.37,9.1-10.37c2,0,5,.77,6.44,3.12h0.08V21H191V48.54Zm-9.25-2.43c4.4,0,6.09-3.78,6.09-7.52,0-3.93-1.77-7.56-6.29-7.56s-6,3.82-6,7.71C175.53,42.48,177.46,46.11,181.7,46.11Z"/><path class="cls-1" d="M198.51,25h-3.28V21h3.28v4Zm-3.28,3.59h3.28V48.54h-3.28V28.6Z"/><path class="cls-1" d="M204.64,42.25c0.12,2.93,2.66,3.86,5.36,3.86,2,0,4.82-.46,4.82-3s-3.24-3-6.52-3.7-6.52-1.81-6.52-5.63c0-4,4-5.67,7.44-5.67,4.4,0,7.9,1.39,8.17,6.25h-3.28C213.9,31.84,211.66,31,209.5,31c-2,0-4.24.54-4.24,2.54,0,2.35,3.47,2.74,6.52,3.47,3.28,0.73,6.52,1.81,6.52,5.67,0,4.74-4.43,6.29-8.48,6.29-4.47,0-8.25-1.81-8.44-6.75h3.28Z"/><path class="cls-1" d="M221.07,28.6h3.28v2.7h0.08c1.08-2.2,3.62-3.16,6.36-3.16,6.13,0,9.18,4.86,9.18,10.49S237,49,230.86,49c-2,0-5-.77-6.44-3.12h-0.08V56.17h-3.28V28.6ZM230.32,31c-4.4,0-6.09,3.78-6.09,7.52,0,3.93,1.77,7.56,6.29,7.56s6-3.82,6-7.71C236.49,34.65,234.56,31,230.32,31Z"/><path class="cls-1" d="M251.45,28.14c6.32,0,9.68,4.59,9.68,10.45S257.78,49,251.45,49s-9.68-4.59-9.68-10.41S245.13,28.14,251.45,28.14Zm0,18c3.43,0,6.21-2.7,6.21-7.52S254.88,31,251.45,31s-6.21,2.7-6.21,7.56S248,46.11,251.45,46.11Z"/><path class="cls-1" d="M264,28.6h3.08v3.16h0.08a6.94,6.94,0,0,1,6.48-3.62c5.24,0,6.86,3,6.86,7.29V48.54h-3.28V35a3.76,3.76,0,0,0-4-4c-4,0-5.9,2.66-5.9,6.25V48.54H264V28.6Z"/><path class="cls-1" d="M288,25h-3.28V21H288v4Zm-3.28,3.59H288V48.54h-3.28V28.6Z"/><path class="cls-1" d="M292.21,21h3.28V31.3h0.08c1.08-2.2,3.62-3.16,6.36-3.16,6.13,0,9.18,4.86,9.18,10.49S308.09,49,302,49c-2,0-5-.77-6.44-3.12h-0.08v2.66h-3.28V21Zm9.25,10c-4.4,0-6.09,3.78-6.09,7.52,0,3.93,1.77,7.56,6.29,7.56s6-3.82,6-7.71C307.63,34.65,305.7,31,301.46,31Z"/><path class="cls-1" d="M314.19,21h3.28V48.54h-3.28V21Z"/><path class="cls-1" d="M338.59,42.21c-0.89,4.4-4,6.79-8.52,6.79-6.36,0-9.37-4.4-9.56-10.49,0-6,3.93-10.37,9.37-10.37,7.06,0,9.22,6.59,9,11.41H324c-0.12,3.47,1.85,6.55,6.21,6.55,2.7,0,4.59-1.31,5.17-3.89h3.24Zm-3.16-5.55A5.74,5.74,0,0,0,329.69,31c-3.43,0-5.47,2.58-5.71,5.63h11.45Z"/><path class="cls-1" d="M368.09,42.21c-0.89,4.4-4,6.79-8.52,6.79-6.36,0-9.37-4.4-9.56-10.49,0-6,3.93-10.37,9.37-10.37,7.06,0,9.22,6.59,9,11.41H353.48c-0.12,3.47,1.85,6.55,6.21,6.55,2.7,0,4.59-1.31,5.17-3.89h3.24Zm-3.16-5.55A5.74,5.74,0,0,0,359.18,31c-3.43,0-5.48,2.58-5.71,5.63h11.45Z"/><path class="cls-1" d="M370.83,28.6h3.08v3.16H374a6.94,6.94,0,0,1,6.48-3.62c5.24,0,6.86,3,6.86,7.29V48.54h-3.28V35a3.76,3.76,0,0,0-4-4c-4,0-5.9,2.66-5.9,6.25V48.54h-3.28V28.6Z"/><path class="cls-2" d="M32.5,77c3.08,0.25,7.51-.35,7.51-4.39a4.69,4.69,0,0,0-5-4.69c-3.58,0-5.5,2.67-5.45,6.3H22.77C23,67,27.71,62,35,62c5.65,0,11.85,3.48,11.85,9.78,0,3.33-1.66,6.3-4.94,7.21v0.1a7.88,7.88,0,0,1,6.25,8c0,7.41-6.2,11.6-13.11,11.6C27.1,98.7,21.76,94,21.91,85.85h6.81c0.15,3.83,2.07,7,6.2,7a5.46,5.46,0,0,0,5.75-5.55C40.66,81.92,36,82,32.5,82V77Z"/><path class="cls-2" d="M49.64,76.27C49.39,68.2,54,62,62.45,62c6.45,0,12.1,4.13,12.1,11,0,5.29-2.82,8.22-6.3,10.69s-7.61,4.49-10.18,8.12H74.75V98H48.84c0-8.17,5-11.65,11.14-15.78,3.13-2.12,7.36-4.29,7.41-8.62a5.1,5.1,0,0,0-5.29-5.44c-4.23,0-5.6,4.39-5.6,8.12H49.64Z"/><path class="cls-2" d="M108.63,94.67h-0.1c-1.66,2.82-4.59,4-7.92,4-7.87,0-11.7-6.76-11.7-14,0-7,3.88-13.51,11.54-13.51a9,9,0,0,1,7.71,3.88h0.1V62h7.16V98h-6.81V94.67Zm-6.25-18c-4.69,0-6.3,4-6.3,8.32,0,4.08,1.87,8.37,6.3,8.37,4.74,0,6.15-4.13,6.15-8.42S107,76.62,102.38,76.62Z"/><path class="cls-2" d="M125.48,86.7c0.2,4.54,2.42,6.6,6.4,6.6,2.87,0,5.19-1.76,5.65-3.38h6.3c-2,6.15-6.3,8.77-12.2,8.77-8.22,0-13.31-5.65-13.31-13.71,0-7.81,5.39-13.76,13.31-13.76,8.87,0,13.16,7.46,12.65,15.48h-18.8Zm11.65-4.54c-0.66-3.63-2.22-5.55-5.7-5.55a5.64,5.64,0,0,0-5.95,5.55h11.65Z"/><path class="cls-2" d="M147.26,71.93h6.81v3.33h0.1a8.67,8.67,0,0,1,7.76-4c8.17,0,11.85,6.6,11.85,14,0,7-3.83,13.46-11.44,13.46a9.25,9.25,0,0,1-7.81-3.93h-0.1v12.4h-7.16V71.93ZM166.62,85c0-4.13-1.66-8.42-6.25-8.42s-6.2,4.18-6.2,8.42,1.61,8.27,6.25,8.27S166.62,89.28,166.62,85Z"/><path class="cls-2" d="M176.5,79.95c0.4-6.71,6.4-8.72,12.25-8.72,5.19,0,11.44,1.16,11.44,7.41V92.2c0,2.37.25,4.74,0.91,5.8h-7.26a10.68,10.68,0,0,1-.5-2.52c-2.27,2.37-5.6,3.23-8.77,3.23-4.94,0-8.87-2.47-8.87-7.81,0-5.9,4.44-7.31,8.87-7.92s8.47-.5,8.47-3.43c0-3.08-2.12-3.53-4.64-3.53-2.72,0-4.49,1.11-4.74,3.93H176.5ZM193,85.24c-1.21,1.06-3.73,1.11-5.95,1.51s-4.24,1.21-4.24,3.83,2.07,3.33,4.39,3.33c5.6,0,5.8-4.44,5.8-6V85.24Z"/><path class="cls-2" d="M204.49,71.93h6.81v4.84h0.1a9.22,9.22,0,0,1,8.32-5.55,5.34,5.34,0,0,1,1.56.25v6.66a13.07,13.07,0,0,0-2.57-.25c-5.24,0-7.06,3.78-7.06,8.37V98h-7.16V71.93Z"/><path class="cls-2" d="M231.91,71.93h5.24v4.79h-5.24V89.63c0,2.42.61,3,3,3a11,11,0,0,0,2.22-.2V98a27.51,27.51,0,0,1-4.18.25c-4.39,0-8.22-1-8.22-6.2V76.72h-4.34V71.93h4.34V64.12h7.16v7.81Z"/><path class="cls-2" d="M239,79.95c0.4-6.71,6.4-8.72,12.25-8.72,5.19,0,11.44,1.16,11.44,7.41V92.2c0,2.37.25,4.74,0.91,5.8h-7.26a10.68,10.68,0,0,1-.5-2.52c-2.27,2.37-5.6,3.23-8.77,3.23-4.94,0-8.87-2.47-8.87-7.81,0-5.9,4.44-7.31,8.87-7.92s8.47-.5,8.47-3.43c0-3.08-2.12-3.53-4.64-3.53-2.72,0-4.49,1.11-4.74,3.93H239Zm16.54,5.29c-1.21,1.06-3.73,1.11-5.95,1.51s-4.23,1.21-4.23,3.83,2.07,3.33,4.39,3.33c5.6,0,5.8-4.44,5.8-6V85.24Z"/><path class="cls-2" d="M267.21,71.93H274v3.53h0.1a9.41,9.41,0,0,1,8-4.24c3.28,0,6.2,1.21,7.61,4.34a9.47,9.47,0,0,1,7.86-4.34c5.55,0,9.53,2.57,9.53,9.33V98h-7.16V83.23c0-3.48-.3-6.35-4.39-6.35s-4.79,3.33-4.79,6.6V98h-7.16V83.38c0-3,.2-6.5-4.34-6.5-1.41,0-4.84.91-4.84,6V98h-7.16V71.93Z"/><path class="cls-2" d="M317.33,86.7c0.2,4.54,2.42,6.6,6.4,6.6,2.87,0,5.19-1.76,5.65-3.38h6.3c-2,6.15-6.3,8.77-12.2,8.77-8.22,0-13.31-5.65-13.31-13.71,0-7.81,5.39-13.76,13.31-13.76,8.87,0,13.16,7.46,12.65,15.48h-18.8ZM329,82.17c-0.66-3.63-2.22-5.55-5.7-5.55a5.64,5.64,0,0,0-5.95,5.55H329Z"/><path class="cls-2" d="M339.11,71.93h6.81v3.63h0.15a9.3,9.3,0,0,1,8-4.34c7.61,0,9.53,4.29,9.53,10.74V98H356.4V83.28c0-4.29-1.26-6.4-4.59-6.4-3.88,0-5.54,2.17-5.54,7.46V98h-7.16V71.93Z"/><path class="cls-2" d="M376.83,71.93h5.24v4.79h-5.24V89.63c0,2.42.61,3,3,3a11,11,0,0,0,2.22-.2V98a27.51,27.51,0,0,1-4.18.25c-4.39,0-8.22-1-8.22-6.2V76.72h-4.34V71.93h4.34V64.12h7.16v7.81Z"/><path class="cls-2" d="M396.89,71.23c8.22,0,13.51,5.45,13.51,13.76S405.11,98.7,396.89,98.7,383.43,93.26,383.43,85,388.73,71.23,396.89,71.23Zm0,22.08c4.89,0,6.35-4.18,6.35-8.32s-1.46-8.37-6.35-8.37-6.3,4.18-6.3,8.37S392.05,93.31,396.89,93.31Z"/><path class="cls-2" d="M419.33,89.53c0.05,3.13,2.67,4.39,5.5,4.39,2.07,0,4.69-.81,4.69-3.33,0-2.17-3-2.92-8.12-4-4.13-.91-8.27-2.37-8.27-7,0-6.66,5.75-8.37,11.34-8.37s10.94,1.92,11.49,8.32h-6.81C429,76.77,426.84,76,424.27,76c-1.61,0-4,.3-4,2.42,0,2.57,4,2.92,8.12,3.88s8.27,2.47,8.27,7.31c0,6.86-5.95,9.08-11.9,9.08s-11.95-2.27-12.25-9.18h6.81Z"/><path class="cls-1" d="M124.5,145.93h-5v-3.25H119.4c-1.39,2.74-4.41,3.9-7.43,3.9-7.57,0-11.23-5.62-11.23-12.81,0-8.68,5.15-12.49,10.4-12.49,3,0,6.36,1.11,8,3.76h0.09V112.79h5.29v33.14Zm-11.84-3.53c4.74,0,6.73-4.32,6.73-8.5,0-5.29-2.55-8.45-6.64-8.45-5,0-6.73,4.41-6.73,8.73C106,138.31,108.07,142.4,112.66,142.4Z"/><path class="cls-1" d="M133.22,135.3c0,3.76,2,7.1,6.45,7.1,3.06,0,4.92-1.35,5.85-4h5c-1.16,5.25-5.62,8.17-10.86,8.17-7.52,0-11.74-5.25-11.74-12.62,0-6.82,4.46-12.67,11.6-12.67,7.57,0,12.21,6.82,11.33,14H133.22Zm12.35-3.48c-0.19-3.34-2.46-6.36-6-6.36a6.27,6.27,0,0,0-6.31,6.36h12.35Z"/><path class="cls-1" d="M188.6,123.32c-1-3.81-3.44-6.59-8.26-6.59-7.1,0-10.07,6.27-10.07,12.63s3,12.63,10.07,12.63c5.15,0,8-3.85,8.45-8.68h5.66c-0.46,7.94-6.08,13.42-14.11,13.42-9.93,0-15.87-7.89-15.87-17.36S170.4,112,180.33,112c7.47,0,13.37,4.18,14.06,11.33h-5.8Z"/><path class="cls-1" d="M196.71,133.9c0-7.33,4.41-12.63,12.12-12.63s12.11,5.29,12.11,12.63-4.41,12.67-12.11,12.67S196.71,141.29,196.71,133.9Zm18.94,0c0-4.13-2.09-8.45-6.82-8.45S202,129.77,202,133.9s2.09,8.5,6.82,8.5S215.65,138.08,215.65,133.9Z"/><path class="cls-1" d="M224.33,112.79h5.29v33.14h-5.29V112.79Z"/><path class="cls-1" d="M233.1,133.9c0-7.33,4.41-12.63,12.12-12.63s12.12,5.29,12.12,12.63-4.41,12.67-12.12,12.67S233.1,141.29,233.1,133.9Zm18.94,0c0-4.13-2.09-8.45-6.82-8.45s-6.82,4.32-6.82,8.45,2.09,8.5,6.82,8.5S252,138.08,252,133.9Z"/><path class="cls-1" d="M260.57,121.93h5v3.34h0.14a8,8,0,0,1,7.38-4c2.92,0,5.66,1.25,6.73,4a8.66,8.66,0,0,1,7.52-4c5.06,0,8,2.23,8,8.08v16.57h-5.29v-14c0-3.81-.23-6.45-4.36-6.45-3.57,0-5.11,2.37-5.11,6.41v14.06h-5.29V130.52c0-3.3-1-5.06-4.22-5.06-2.74,0-5.25,2.23-5.25,6.22v14.25h-5.29v-24Z"/><path class="cls-1" d="M299.93,112.79h5.29V125h0.09a8.74,8.74,0,0,1,7.15-3.76c7.57,0,11.23,5.76,11.23,12.76,0,6.45-3.25,12.53-10.35,12.53-3.25,0-6.73-.79-8.31-3.95h-0.09v3.3h-5V112.79Zm11.84,12.67c-4.46,0-6.73,3.39-6.73,8.49,0,4.83,2.46,8.45,6.73,8.45,4.83,0,6.64-4.27,6.64-8.45C318.4,129.59,316.13,125.46,311.77,125.46Z"/><path class="cls-1" d="M327.13,112.79h5.29v5h-5.29v-5Zm0,9.14h5.29v24h-5.29v-24Z"/><path class="cls-1" d="M357.11,140.59c0,1.3.28,1.81,1.25,1.81a7.32,7.32,0,0,0,1.3-.09V146a13.29,13.29,0,0,1-3.34.6c-2.14,0-3.67-.74-4.08-2.92-2.09,2-5.48,2.92-8.31,2.92-4.32,0-8.22-2.32-8.22-7,0-6,4.78-7,9.24-7.47,3.81-.7,7.2-0.28,7.2-3.39,0-2.74-2.83-3.25-5-3.25-3,0-5.06,1.21-5.29,3.81h-5.29c0.37-6.17,5.62-8,10.91-8,4.69,0,9.61,1.9,9.61,7v12.35Zm-5.29-6.68c-1.62,1.07-4.18,1-6.5,1.44s-4.32,1.21-4.32,4c0,2.37,3,3.06,4.87,3.06,2.32,0,5.94-1.21,5.94-4.55V133.9Z"/></svg>