<svg id="Capa_1" data-name="Capa 1" xmlns="http://www.w3.org/2000/svg" viewBox="0 0 353.83 411.08"><defs><style>.cls-1{fill:#faeb15;}.cls-2{fill:#704790;}</style></defs><title>landing-svg</title><circle class="cls-1" cx="176.92" cy="170.17" r="133"/><path class="cls-2" d="M113,162.37H89V141.18c14.86,0.29,29.58-5.3,30.46-22.22h24.13V221.38H113v-59Z"/><path class="cls-2" d="M234.25,162.37h-24V141.18c14.86,0.29,29.58-5.3,30.46-22.22h24.13V221.38H234.25v-59Z"/><path class="cls-2" d="M177.13,196.58l-14.36-20.41h15.77l6.6,11.86,6.48-11.86h14.91l-14,20.54,15.59,23.1h-16.2l-7.46-13-7.7,13h-15.4Z"/><path class="cls-1" d="M101.45,330.23V327.8a15.8,15.8,0,0,0,2.36-.22,3.32,3.32,0,0,0,1.75-1,3.13,3.13,0,0,0,.7-1.3,3,3,0,0,0,.14-0.73h3v18.14h-3.65V330.23h-4.27Z"/><path class="cls-1" d="M134.18,330.56a7.27,7.27,0,0,1,1.67,5.18,8.18,8.18,0,0,1-1.63,5.49,5.29,5.29,0,0,1-4.2,1.89,4.4,4.4,0,0,1-2.72-.81,5.26,5.26,0,0,1-1.16-1.31v7.11h-3.53v-19H126v2a5.71,5.71,0,0,1,1.23-1.4,4.55,4.55,0,0,1,2.85-.91A5.39,5.39,0,0,1,134.18,330.56Zm-2.74,2.57a2.54,2.54,0,0,0-2.36-1.21,2.68,2.68,0,0,0-2.69,1.84,6.91,6.91,0,0,0-.38,2.48,3.93,3.93,0,0,0,1.28,3.34,2.93,2.93,0,0,0,1.8.56,2.61,2.61,0,0,0,2.29-1.15A6,6,0,0,0,131.44,333.13Z"/><path class="cls-1" d="M145.94,328.78l0.31,0v3.65l-0.6-.05h-0.43a3,3,0,0,0-2.89,1.4,5.45,5.45,0,0,0-.41,2.43v6.52h-3.59V329.1h3.4v2.38a7.54,7.54,0,0,1,1.44-1.86,3.92,3.92,0,0,1,2.6-.84h0.17Z"/><path class="cls-1" d="M159.71,341.07a7.51,7.51,0,0,1-10.49,0,8.46,8.46,0,0,1,0-10.25,7.43,7.43,0,0,1,10.49,0A8.46,8.46,0,0,1,159.71,341.07Zm-2.85-2a6.37,6.37,0,0,0,0-6.32,3.17,3.17,0,0,0-4.81,0,6.33,6.33,0,0,0,0,6.32A3.16,3.16,0,0,0,156.86,339.1Z"/><path class="cls-1" d="M171.22,329.32a4.33,4.33,0,0,1,1.56,1.51v-6.51h3.62v18.42h-3.47v-1.89a5,5,0,0,1-1.74,1.76,4.88,4.88,0,0,1-2.43.55,5.07,5.07,0,0,1-4-1.93,7.42,7.42,0,0,1-1.63-5,8.54,8.54,0,0,1,1.61-5.49,5.23,5.23,0,0,1,4.3-2A4.4,4.4,0,0,1,171.22,329.32ZM172.1,339a5,5,0,0,0,.79-2.92,4.47,4.47,0,0,0-1.26-3.58,2.72,2.72,0,0,0-1.8-.65,2.51,2.51,0,0,0-2.3,1.18,6.37,6.37,0,0,0,0,6,2.52,2.52,0,0,0,2.26,1.13A2.63,2.63,0,0,0,172.1,339Z"/><path class="cls-1" d="M183.2,329.1v8.22a4.32,4.32,0,0,0,.27,1.75,1.89,1.89,0,0,0,1.9,1,2.49,2.49,0,0,0,2.49-1.48,5.36,5.36,0,0,0,.35-2.11V329.1h3.62v13.64h-3.47v-1.93l-0.25.38a2.53,2.53,0,0,1-.47.55,5,5,0,0,1-1.62,1,5.51,5.51,0,0,1-1.83.28q-3,0-4.07-2.18a8.36,8.36,0,0,1-.59-3.54V329.1h3.65Z"/><path class="cls-1" d="M203.45,334a3.16,3.16,0,0,0-.51-1.38,2.16,2.16,0,0,0-1.87-.83,2.46,2.46,0,0,0-2.47,1.79,7.42,7.42,0,0,0-.35,2.52,6.82,6.82,0,0,0,.35,2.41,2.38,2.38,0,0,0,2.41,1.7,2.13,2.13,0,0,0,1.78-.68,3.36,3.36,0,0,0,.64-1.75h3.64a6,6,0,0,1-1.18,3.08,5.73,5.73,0,0,1-5,2.34,5.82,5.82,0,0,1-4.85-2,7.88,7.88,0,0,1-1.55-5.06,8,8,0,0,1,1.72-5.46,6,6,0,0,1,4.73-2,7.13,7.13,0,0,1,4.2,1.15,5.35,5.35,0,0,1,1.94,4.07h-3.65Z"/><path class="cls-1" d="M208.15,331.77v-2.54H210v-3.8h3.53v3.8h2.21v2.54h-2.21V339a1.62,1.62,0,0,0,.21,1,2.34,2.34,0,0,0,1.3.21h0.34l0.36,0v2.67l-1.69.06q-2.53.09-3.45-.88a2.61,2.61,0,0,1-.6-1.89v-8.4h-1.9Z"/><path class="cls-1" d="M229.46,341.07a7.51,7.51,0,0,1-10.49,0,8.46,8.46,0,0,1,0-10.25,7.43,7.43,0,0,1,10.49,0A8.46,8.46,0,0,1,229.46,341.07Zm-2.85-2a6.37,6.37,0,0,0,0-6.32,3.17,3.17,0,0,0-4.81,0,6.32,6.32,0,0,0,0,6.32A3.16,3.16,0,0,0,226.6,339.1Z"/><path class="cls-1" d="M253.66,331.39v3.29H240.1v-3.29h13.55Zm0,5.84v3.29H240.1v-3.29h13.55Z"/><path class="cls-1" d="M125.31,356.2v-2.43a15.8,15.8,0,0,0,2.36-.22,3.32,3.32,0,0,0,1.75-1,3.13,3.13,0,0,0,.7-1.3,3,3,0,0,0,.14-0.73h3v18.14h-3.65V356.2h-4.27Z"/><path class="cls-1" d="M163.58,355.12a4,4,0,0,1,1.59,1.23,3.92,3.92,0,0,1,.78,1.75,12.14,12.14,0,0,1,.13,2l0,8.6h-3.65V360a2.86,2.86,0,0,0-.25-1.28,1.78,1.78,0,0,0-1.75-1,2.05,2.05,0,0,0-2,1.23,3.86,3.86,0,0,0-.29,1.56v8.12h-3.59v-8.12a4.56,4.56,0,0,0-.25-1.76,1.75,1.75,0,0,0-1.76-1,2.11,2.11,0,0,0-2.05,1,3.8,3.8,0,0,0-.29,1.68v8.21H146.5V355.1H150v2a5.73,5.73,0,0,1,1.25-1.51,5,5,0,0,1,5.22-.11,4,4,0,0,1,1.18,1.64,4.54,4.54,0,0,1,1.74-1.76,5.31,5.31,0,0,1,2.45-.56A4.75,4.75,0,0,1,163.58,355.12Z"/><path class="cls-1" d="M173,353.45H169.4v-3.29H173v3.29Zm-3.62,1.63H173v13.64H169.4V355.07Z"/><path class="cls-1" d="M187.47,355.86a4.51,4.51,0,0,1,1.34,3.67v9.18h-3.65v-8.3a3.81,3.81,0,0,0-.29-1.65,2,2,0,0,0-2-1.05,2.46,2.46,0,0,0-2.47,1.54,5.32,5.32,0,0,0-.35,2.08v7.38H176.5V355.1h3.45v2a6.06,6.06,0,0,1,1.3-1.51,4.5,4.5,0,0,1,2.78-.83A5.23,5.23,0,0,1,187.47,355.86Z"/><path class="cls-1" d="M195.68,355.07v8.22A4.32,4.32,0,0,0,196,365a1.89,1.89,0,0,0,1.9,1,2.49,2.49,0,0,0,2.49-1.48,5.36,5.36,0,0,0,.35-2.11v-7.42h3.62v13.64h-3.47v-1.93l-0.25.38a2.53,2.53,0,0,1-.47.55,5,5,0,0,1-1.62,1,5.51,5.51,0,0,1-1.83.28q-3,0-4.07-2.18a8.36,8.36,0,0,1-.59-3.54v-8.22h3.65Z"/><path class="cls-1" d="M206.38,357.74V355.2h1.9v-3.8h3.53v3.8H214v2.54h-2.21v7.21a1.62,1.62,0,0,0,.21,1,2.34,2.34,0,0,0,1.3.21h0.34l0.36,0v2.67l-1.69.06q-2.53.09-3.45-.88a2.61,2.61,0,0,1-.6-1.89v-8.4h-1.9Z"/><path class="cls-1" d="M227.69,367a7.51,7.51,0,0,1-10.49,0,8.46,8.46,0,0,1,0-10.25,7.43,7.43,0,0,1,10.49,0A8.46,8.46,0,0,1,227.69,367Zm-2.85-2a6.37,6.37,0,0,0,0-6.32,3.17,3.17,0,0,0-4.81,0,6.32,6.32,0,0,0,0,6.32A3.16,3.16,0,0,0,224.83,365.07Z"/></svg>