<svg id="Capa_1" data-name="Capa 1" xmlns="http://www.w3.org/2000/svg" viewBox="0 0 353.83 491.76"><defs><style>.cls-1{fill:#faeb15;}.cls-2{fill:#704790;}</style></defs><title>landing-svg</title><path class="cls-1" d="M20.4,328.24a2.28,2.28,0,0,0,1.39,0,2.67,2.67,0,0,1,1.38,0c1.4,0.89,1.9,2.77,3.22,3.78,3.86,3,9.24,3.5,12.91,6.63,2.46,2.11,4.69-2.25,6.47.48,0.35,0.53-.26,1.31,0,1.88,1,2.33,3.37,1.78,5.08,2.37,1.53,0.51,1,6.33,1.83,7.54,1.45,2.08,5.3-.11,6.95.47s2.19,2.62,3.7,3.3c3.23,1.46,6.53-.55,9.26,0,1.14,0.23,6.38,2,7.41.48s-0.6-5.73,2.79-5.65c6.95,0.16,9.17,6.33,13.89,9.89,2.31,1.74,2.83,0,5.1.47,3.18,0.71,6.51,5.07,9.75,5.17,1.75,0.05,1.76-2.82,4.63-1.41,1.17,0.56,5.71,5.65,7,4.7,0.45-.35.37-1.31,0.93-1.41,1-.2,2.49,2.53,2.33,3.29-0.09.43-1.21,0.6-.93,0.94l4.18,0.94c2,1.12,5.47,5,6.51,7,0.67,1.28.37,2.9,0.94,4.23,0.06,0.16,2.39,2.64,1.86,2.81-6.45,2.19,6.21,4.11,6.51,4.22,0.79,0.3.31,1.79,0.94,2.35l2.79,0.93c1.55,1.1,1.43,3,3.73,3.28,2.08,0.3,4.06-.46,5.59,1.87,0.61,0.92-.05,2.32.47,3.29,1,1.8,3.56,1.16,2.81,4.21-0.41,1.67-2.74.93-1.38,3.29,3.08,5.3,7.9.28,9.31,2.8,0.81,1.42,2.61,6.85,2.38,8.44,0,0.16-2.28,3.12-2.3,3.29-0.15,1.06,2.29,4.21,3.28,4.21,0.58,0,1.88-2.53,3.25,0,0.38,0.7-.17,1.89.49,2.34,1.11,0.76,4.8-2.5,6-1.89,0.58,0.29-.13,1.67.48,1.87,1.06,0.35.74-2.57,1.83-2.82,1.74-.39,5.18,3,7,3.27s2.79-1.22,3.25-1.41c1-.44,2.25.89,3.26,0.47,3.56-1.51-1.26-1.32,2.31-2.82,1-.43,2.23.86,3.26,0.46,2.2-.86,3.52-4.4,5.55-5.64,1.12-.68,2.35,1.54,2.65,1.72,1,0.59,2.5-.1,3.42.61l0.94,2.8c0.74,0.25.69-2.21,1.38-1.87,1.31,0.65,1.2,3.76,1.42,3.75,4.68-.4,4.82-1.89,7.89-3.3h2.79c0.37-.5-0.48-1.46,0-1.87s1.25,0.16,1.87.23a5.69,5.69,0,0,1,1.87.23c2.63,1.36,4.27,5.53,7,6.54,1,0.39,3.26-.89,4.66,0,2.62,1.68,3.9.7,3.73,1.4s-0.6,2,0,1.87,0.83-1,1.39-.94c1.25,0.13,1.87,1.66,2.81,2.48s4.66,0.12,4.21,2.64c-1,5.49-18.74,26.45-18.39,30,0.06,0.53,5,2.45,5.6,2.32l4.17-2.35c3.28,0,9.69,13.1,12.19,9.78,1.93-2.55,3.25-17.16,3.9-21,2.49-14.93,5-29.86,7.79-44.72,0.87-4.6,4.19-13.33,3.21-17.48s-6.54-8.16-6.55-12.15c0-2.51,2.41-3.71,0-6.54-2.08-2.43-6.49-3-8.87-5.14a17.46,17.46,0,0,1-3.27-4.68v-4.56q0-4.56,0-9.12c0-1.51,0-3.05,0-4.56,0-.78-0.44-1.71,0-2.34,0.31-.45,1.09,0,1.63,0,3.11,0,5.72-2.81,8.63-2.8,0.7,0,1.17,1,1.87.94,1.78-.14,1.88-3.12,4.19-2.34,3.23,1.09,5.61,4.3,9.33,2.81,0.55-.23-0.39-1.13-0.7-1.65-1.86-3.12,1.18-1.94-1.16-5.84-0.66-1.1-.43-3.06-2.32-3.75-3-1.07-9.27-1-12.12-1.41a7.4,7.4,0,0,0-1.87.23c-0.62.08-1.44,0.7-1.86,0.23v-4.56c0-2.29,0-4.55,0-6.84,0-1.52,0-3,0-4.55,0-.77-0.41-1.65,0-2.29,0.6-.91,7.25-1,8.24-1.08,5.21-.65-0.18-0.39,4.81.62a13.29,13.29,0,0,0,2.47,0l4.93,0.07L301,314c3,0,9.82.28,9.87,0.15,0.58-1.54-3.22-1.7-3.72-3.28a30.29,30.29,0,0,1,2.35-5.13c3.9-.87,3.39,7.68,7,7.49,6.78-.38,10.52-11.48,15-11.2,1.89,0.12,9.21,12.32,9.77,14.48a8.72,8.72,0,0,1-.11,2.43q-0.14,3.64-.29,7.28c0,0.81-.55,1.75-0.1,2.43,0.93,1.4,5-.21,6.07-0.46-2.21-3.65-1.74-9.52-3.23-13.55-1-2.66-3.58-5.17-4.18-7.94s0.8-2-.92-4.67c-2.13-3.34.92-5.43-.91-7-2.57-2.22-7.83-5.79-10.23-8-0.85-.76,0-2.56-0.93-3.27-2.21-1.82-8.83,2-7-1.88,2.22-4.69,14.77-10.9,15.94-14.91,0.5-1.72-1.68-1.66-2.33-2.34-1.54-1.64-1.54-5-3.22-6.54l-3.25-.47c-0.65-.65-5.14-12.5-5.5-14-0.5-2,.31-4.61-0.42-6.53-0.28-.72-1.2-1.12-1.38-1.87-1.08-4.39,2.6-10,2-14.46-0.25-1.85-2.21-4.95-1.34-7,1.12-2.65,5.7-4.09,6.58-6.51,0.79-2.12-1.55-4.39.08-7,0.9-1.45,5.5-3.95,5.63-5.58,0.13-1.45-2.08-2.3-2.28-3.74-0.13-.9,1.78-1.49,1.41-2.33-1-2.3-8.69-3.13-10.66-2.83-1.67.25-3,2.47-4.67,2.78l-4.17-.48c-4.53.46-9.4,2.29-14,2.27-3.69,0-8.85-3.48-12.52-1.92-1.42.61-2.27,3.62-4.22,3.25a3.2,3.2,0,0,1-1.15-.94,3.19,3.19,0,0,0-1.15-.94c-1-.18-1.92,1.37-2.8.92-4.09-2-14.86-22.64-18.68-24.37-1.1-.51-3.87,1.48-5.12,1.37-3.26-.29-5-3-7.35-4.25-3.81-2-7.91,1.44-11.16,2.27-5.14,1.33-11-1.68-16.19-1.5-3,.1-6.3,2.06-9.29,1.81-8.44-.71-6.23-9.72-8.12-11.28-1.23-1-4.57.28-6-.5-2.22-1.22-1-17.18.4-18.24,0.48-.38,1.35.38,1.84,0s0-.93,0-1.4a11,11,0,0,0,0-1.4c-1-8.55-5.81-7.59-8.91-13.64-1.66-3.24.06-11-2.42-13.58-2-2.06-2.73.72-4.62,0.43-1.74-.28-0.49-5.62-1.69-5.63a6,6,0,0,0-2.21.92c-0.62.24-7.87,3.5-8,2.72-0.56-2.81,10.65-14.12,11.58-18.59,0.29-1.38-.48-2.81-0.34-4.21,1-10.38,6.85-17.9,11.83-26.5C192.27,53.95,193,50.85,194,50c1.81-1.37,5.17-.2,6.46-0.87,2.9-1.52,5.27-12.13,8.25-14.37,3.52-2.64,13.4-2.66,18-4.94H227a3.21,3.21,0,0,1,.71-1.87c3.53-4.13,7.73-.51,3.46-8.19-0.56-1-.69-2.81-1.72-3.44A91.81,91.81,0,0,0,220.9,13a7.7,7.7,0,0,0-3.71,1.36c-0.25.18,0.24,1.08,0,.93-0.49-.25-0.36-1.23-0.87-1.4-0.81-.29,1,2.8-2.38,2.77-0.47,0,.46-1.18,0-1.4-1.1-.59-4.29,2.16-4.2,2.28,0.47,0.63,5.44.79,1.29,2.81-0.3.15-3.57,2.23-2.75,0,1.17-3.24,2.18-2.14-1.77-1.88-0.92.06-1.56-.28-2.3,0.43-0.22.22,1,3.11,0.79,3.75-0.51,2-2.44,4.17-3.42,6-0.75,1.43-6,2.26-7.42,2.72a58.63,58.63,0,0,0-6.94,2.26c-1.5.73-2.38,2.8-3.79,3.69-3.24,2-10.23,7.82-13.58,8.24a13.07,13.07,0,0,1-1.94,0l-5.85-.06-2.75,0a3.1,3.1,0,0,1-.92,0c-1.75-.54-4-2.26-5.86-2.41-2.08-.15-1.93.91-3.24,0.89-0.34,0-.08-0.94-0.42-0.95-2.2,0-3.48,15.18-7,16.76-2.62,1.16-1.55-.67-2.23-1.9-1.47-2.68-.69,3.48-1.9,1.85-0.34-.45-0.58-0.83-0.82-1.16a1.78,1.78,0,0,1-1,.2c-0.47,0,0-.94.05-1.4s-0.36-1.17,0-1.4a3,3,0,0,1,2.29,0c0.42,0.12.45,0.94,0.89,0.94,0,0-1.55-2.49-.34-3.28,0.75-.49,5.92,1.13,6-0.86,0-.47-0.92.14-1.38,0.22a10.07,10.07,0,0,1-3.68.18c-3.39-.48-7.84-4.31-10.82-4.34-0.93,0-4.09,5.6-4.82,6.49-1,1.25-5.65,1.49-6.51,2.73s1.54,2.12.82,2.35c-0.45.15-.87-0.48-1.35-0.48a69.56,69.56,0,0,0-7,4.59c-0.47.6,0.21,1.37,0.76,2.15,0.24,0,.34.23,0.35,0.56a1.12,1.12,0,0,1,.12,1.06c-0.41.77-.09-0.33-0.12-1.06-0.11-.19-0.22-0.38-0.35-0.56-0.31,0-.85.41-1.82,1.58-1.48,1.8,3.7.21,1.24,3.77a2.23,2.23,0,0,1-1.85.44c-0.22,0-.29-0.63-0.44-0.48s-3.06,3.6-3.36,4.18,5-2.88,5.12-2.28c0.06,0.3-3.8,13.14-4.15,13.55s-1.78.82-1.43,1.39,7.89-.48,2.06,7.06c-3,3.9-6.8-2.43-12.5,3.13-2.54,2.49-3.75,6.24-5.37,9.33-0.09.18-6.87,5.54-7.55,6-1.76,1.26-11,4.61-11.69,6.45,0,0.09,4.26,2,4.91,4.29,0.3,1,.42,13.26,0,13.63-1.34,1.31-5.06,0-5-1.94,0.14-4.36,2.2,3.24,2.4-3.26,0-.36.77-0.74,0.49-0.94-1.37-1-2.83,2.36-3.21,0-0.09-.56,1.08-0.85,1-1.4s-1.2,0-1.37-.49c-0.23-.62,1-1.4.51-1.87s-1.59.27-2.3,0c-1.53-.65-1.72-3.3-2.61-4.27s-2.3-.68-3.17-1.44c-1.18-1-1.69-5.67-3-5.69-0.4.62-3.57,4.55-3.39,5.14,0.4,1.26,2.7,1.15,3.14,2.39,0,0-.12,3.26-0.11,3.29,0.79,2.11,6.83,6.82,5.67,9.47-0.6,1.34-3,.48-4.17,1.36-2.85,2.17-.43,3.31-0.62,5.17-0.12,1.21-5.92,4.82-7,5.1-0.9.22-3-4.62-4.44-5.23-0.14-.06-0.4-0.14-0.46,0-1.48,3.48,1,2.21.77,4.71-0.47,4.42-1,.15-2.82,1.86-1,1-1.64,5.64-2,7.05l-0.21.49c2,1.39,5.06,3.61,5.58,4.74,1.91,4.17-1.4,1.45-.16,5.65,0.09,0.3-.29-0.95,0-0.94,1.79,0,3.7,3.28,4,4.74,0.09,0.47-.51,1.42,0,1.42,0.78,0,1.11-1.3,1.88-1.39,1.19-.14,3.17,4.11,3.3,5.68,0.82,9.26-1-5.8-1.2,2.35,0,0.56,1.07.89,0.88,1.41s-1.16-.42-1.38,0c0,0,1.27,4.25-.57,4.23a2,2,0,0,1,0-.47c-0.53-.57-1.05-1.62-1.8-1.44l-0.09,3.3c-0.08,3.17,7.15,7.42,6.15,12.76C58,203.9,55,202.89,53,203.9a15.07,15.07,0,0,0-2.82,2.8c8.06,2.13,4,10.54,5.17,17.94,0.34,2.15,3.08,3.76,2.69,4.25s-1.5-.51-1.85,0,0.77,0.87.9,1.42c0.07,0.3-.81-0.29-0.92,0a33.74,33.74,0,0,0-.57,5.65,1.76,1.76,0,0,0,.47,0c-0.59.59-2,2.67-1.91,3.76,0.28,2.71,1.71,1.64,3.2,1.9,0.34,0,1.07.17,0.91,0.48-2.29,4.52-5-4.4-5.16,5.62,0,0.93-1.25.94,0,1.88,0.9,0.7.74,1.58,1.35,1.89,0.2,0.1,2.21-7.28,5.15-4.21,0.24,0.25-.3.63-0.48,0.94-0.34.55,0.16,1.89-.49,1.89s-4-.57-2.8,1.86c1.92,4,6.87-1.81,7.86-.43,1.26,1.75-3.38,3-3.28,3.28s0.1,0.31.16,0.45c1.07-1.06.93,2.56,0,0a3.86,3.86,0,0,0-.64,1,0.17,0.17,0,0,0,.12.19l0.11,0.05c0.11,0.05.22,0.06,0.32,0.11,0.28,0.09.53,0.13,0.36,0.13a1,1,0,0,1-.36-0.13,2.9,2.9,0,0,1-.32-0.11L60,256.4a1,1,0,0,0-1-.19c-0.41.27,0,1.19,0.44,1.41l0.22,0.1c-0.73-3.48,3.67,1.78,0,0a8.73,8.73,0,0,0,.23.85c0.13,0.43,1.39-.46,1.38,0s-0.92.35-1.39,0.47a0.9,0.9,0,0,0-.47,0c-0.6.6-.15,2.08-1,2.34-2.54.86-1.54-.15-2.77,0.46-0.7.35,1.7,1.2,1.36,1.89a1.07,1.07,0,0,1-1.39,0c-0.25-.18.23-1.16,0-0.94-0.94.93-.16,2.26-0.51,3.29,0,0-.9-1.29-0.92,0,0,0.9,2.27,2.36,1.36,2.36-2,0,.21-1.36-1.82-1.89-0.43-.11-0.51.83-0.94,0.94s-0.59-.58-0.92-0.47c-2.41.8,3.37,1.43,0.88,3.3-0.9.68-2.86,0.36-3.27,2.35-0.17.79,0.69,2.39-.51,3.29-0.64.49-4.15,0-4.15,0-3,3,1.84.56,1.82,2.36,0,0.69,1.78,1.9-.49,2.35-0.55.11-.85-1.13-1.38-0.95s0.48,0.95.92,0.95,1.2,0.28.92,0.48c-0.87.58-3.24,0.46-2.79,1.4,0.25,0.51,1.94,1,1.38,1s-1.15-1-1.84-1a3.11,3.11,0,0,0-1.86,1.41c-0.95,1.42,1.81,3.45,1.8,4.72-0.06,5.26-4.23-1.77-5.07-1.43-2.33.94,1,3.36-1.42,3.77-1,.16-2.08-1.65-2.76-1s1,1.89-.94,1.89c-1,0-3.13-2.07-3.67-1.91-10.74,3.24,7.92.06-2.81,3.3-0.48.14-1.88-3.07-2.75-1.9-0.39.52,0,1.48-.49,1.89s-1.32-.32-1.85,0c-1,.61.06,3.73-0.92-0.47-0.05-.25-0.12.49-0.24,0.71s-2,3.6-2.12,4c-0.3,1.74-.81,7.73-0.53,8s0.83-.94,1.39-0.93c0.81,0,2.08,5.72.86,7.55-0.36.55-.76-1.16-1.37-1.42a49.15,49.15,0,0,0-6-.49c-1.86.18-5.1,4.21-5.57,5.65s5.33,1.57,5.52,2.38a23.2,23.2,0,0,1,.52,3.25l0.38,0.05c2.35,2.22,4.79,4.9,6.88,6.63"/><polygon class="cls-2" points="144.3 253.85 132.33 253.85 147.39 238.94 147.54 238.94 144.3 253.85"/><path class="cls-2" d="M165.3,182.25a76.85,76.85,0,1,0,76.84,76.85A76.84,76.84,0,0,0,165.3,182.25Zm-55.41,42.39a2.1,2.1,0,0,1,2.1-2.1h27.94a2.1,2.1,0,1,1,0,4.2H112A2.1,2.1,0,0,1,109.89,224.64Zm5.29,6.77a2.1,2.1,0,0,1,2.1-2.1h17.36a2.1,2.1,0,0,1,0,4.19H117.28A2.1,2.1,0,0,1,115.19,231.41Zm4.88,21.23,29.81-28h14.9l-6,29.2h6.77l-2.41,12.8h-6.85L153.94,277H139l2.18-10.39h-24Zm51.3,42.73H151.75a2.1,2.1,0,1,1,0-4.19h19.62A2.1,2.1,0,1,1,171.37,295.37Zm0-6.77H139.79a2.1,2.1,0,0,1,0-4.2h31.58A2.1,2.1,0,1,1,171.37,288.61Zm15.42,7.58H176.62l3.1-15h2.62l-2.64,12.7h7.55Zm4.66,0h-2.62l2.64-12.7h-4.93l0.46-2.26h12.33l-0.48,2.26h-4.76Zm19.9-12.7H203l-0.82,3.92h7.71l-0.44,2.14h-7.73l-0.9,4.38h8.38l-0.46,2.26h-11l3.1-15h10.9Zm2.89-6.46H203.77l0.45-5.19-0.15-.15c-3.46,4.67-8.81,6.62-14.53,6.62-18.82,0-21.83-16-21.83-22.65,0-16.86,9.63-33.65,30.71-33.65,12,0,22.13,6.1,22.28,20.1H205c-0.45-5-3.39-6.7-7.6-6.7-9.11,0-13.17,9.71-13.17,19,0,6.32,2.71,10.54,9.41,10.54,4.44,0,8.21-1.58,9.86-5.95H196l2.41-11.52h22Z"/><path class="cls-2" d="M109.18,136.92a18.26,18.26,0,1,0,18.27,18.26A18.25,18.25,0,0,0,109.18,136.92Zm-0.47,6.21a2.35,2.35,0,1,1-2.34,2.34A2.34,2.34,0,0,1,108.71,143.14Zm-10.81,7.63a1.15,1.15,0,1,1-1.16,1.15A1.15,1.15,0,0,1,97.89,150.76Zm2.55,10a0.86,0.86,0,0,1-.85.85h-4a0.86,0.86,0,0,1-.85-0.85v-9.33a0.69,0.69,0,1,1,1.39,0v2.21h3.42a0.86,0.86,0,0,1,.85.86v6.26Zm19.85-9.85a1.48,1.48,0,1,1-1.5,1.48A1.48,1.48,0,0,1,120.29,150.92Zm3.29,12.92a1.11,1.11,0,0,1-1.1,1.1h-5.11a1.11,1.11,0,0,1-1.09-1.1v-12a0.9,0.9,0,1,1,1.79,0v2.85h4.41a1.11,1.11,0,0,1,1.1,1.11v8.09Zm-9.66-.25a1.74,1.74,0,0,1-1.74,1.73h-8.05a1.75,1.75,0,0,1-1.75-1.73V144.52a1.41,1.41,0,1,1,2.83,0v4.53h7a1.74,1.74,0,0,1,1.74,1.73v12.8Z"/><path class="cls-2" d="M282.71,253.85A18.26,18.26,0,1,0,301,272.1,18.25,18.25,0,0,0,282.71,253.85Zm-0.47,6.21a2.35,2.35,0,1,1-2.34,2.34A2.34,2.34,0,0,1,282.24,260.06Zm-10.81,7.63a1.15,1.15,0,1,1-1.16,1.15A1.15,1.15,0,0,1,271.43,267.69Zm2.55,10a0.86,0.86,0,0,1-.85.85h-4a0.86,0.86,0,0,1-.85-0.85v-9.33a0.69,0.69,0,1,1,1.39,0v2.21h3.42a0.86,0.86,0,0,1,.85.86v6.26Zm19.85-9.85a1.48,1.48,0,1,1-1.5,1.48A1.48,1.48,0,0,1,293.82,267.84Zm3.29,12.92a1.11,1.11,0,0,1-1.1,1.1h-5.11a1.11,1.11,0,0,1-1.09-1.1v-12a0.9,0.9,0,1,1,1.79,0v2.85H296a1.11,1.11,0,0,1,1.1,1.11v8.09Zm-9.66-.25a1.74,1.74,0,0,1-1.74,1.73h-8.05a1.75,1.75,0,0,1-1.75-1.73V261.44a1.41,1.41,0,1,1,2.83,0V266h7a1.74,1.74,0,0,1,1.74,1.73v12.8Z"/><path class="cls-2" d="M176.9,348.16a18.26,18.26,0,1,0,18.27,18.26A18.25,18.25,0,0,0,176.9,348.16Zm-0.47,6.21a2.35,2.35,0,1,1-2.34,2.34A2.34,2.34,0,0,1,176.43,354.37ZM165.62,362a1.15,1.15,0,1,1-1.16,1.15A1.15,1.15,0,0,1,165.62,362Zm2.55,10a0.86,0.86,0,0,1-.85.85h-4a0.86,0.86,0,0,1-.85-0.85v-9.33a0.69,0.69,0,1,1,1.39,0v2.21h3.42a0.86,0.86,0,0,1,.85.86V372ZM188,362.16a1.48,1.48,0,1,1-1.5,1.48A1.48,1.48,0,0,1,188,362.16Zm3.29,12.92a1.11,1.11,0,0,1-1.1,1.1H185.1a1.11,1.11,0,0,1-1.09-1.1V363a0.9,0.9,0,1,1,1.79,0v2.85h4.41a1.11,1.11,0,0,1,1.1,1.11v8.09Zm-9.66-.25a1.74,1.74,0,0,1-1.74,1.73h-8.05a1.75,1.75,0,0,1-1.75-1.73V355.76a1.41,1.41,0,1,1,2.83,0v4.53h7a1.74,1.74,0,0,1,1.74,1.73v12.8Z"/><path class="cls-2" d="M76.52,293.27a18.26,18.26,0,1,0,18.27,18.26A18.25,18.25,0,0,0,76.52,293.27Zm-0.47,6.21a2.35,2.35,0,1,1-2.34,2.34A2.34,2.34,0,0,1,76.05,299.49Zm-10.81,7.63a1.15,1.15,0,1,1-1.16,1.15A1.15,1.15,0,0,1,65.24,307.12Zm2.55,10a0.86,0.86,0,0,1-.85.85H63a0.86,0.86,0,0,1-.85-0.85v-9.33a0.69,0.69,0,1,1,1.39,0V310h3.42a0.86,0.86,0,0,1,.85.86v6.26Zm19.85-9.85a1.48,1.48,0,1,1-1.5,1.48A1.48,1.48,0,0,1,87.64,307.27Zm3.29,12.92a1.11,1.11,0,0,1-1.1,1.1H84.72a1.11,1.11,0,0,1-1.09-1.1v-12a0.9,0.9,0,1,1,1.79,0V311h4.41a1.11,1.11,0,0,1,1.1,1.11v8.09Zm-9.66-.25a1.74,1.74,0,0,1-1.74,1.73H71.48a1.75,1.75,0,0,1-1.75-1.73V300.87a1.41,1.41,0,1,1,2.83,0v4.53h7a1.74,1.74,0,0,1,1.74,1.73v12.8Z"/><path class="cls-2" d="M149.64,72.56a12.6,12.6,0,1,0,12.6,12.6A12.59,12.59,0,0,0,149.64,72.56Zm-0.32,4.29a1.62,1.62,0,1,1-1.62,1.62A1.61,1.61,0,0,1,149.32,76.85Zm-7.46,5.26a0.79,0.79,0,1,1-.8.79A0.79,0.79,0,0,1,141.85,82.11Zm1.76,6.9a0.59,0.59,0,0,1-.59.59H140.3a0.59,0.59,0,0,1-.59-0.59V82.58a0.48,0.48,0,1,1,1,0V84.1H143a0.6,0.6,0,0,1,.59.59V89Zm13.69-6.8a1,1,0,1,1-1,1A1,1,0,0,1,157.31,82.22Zm2.27,8.91a0.77,0.77,0,0,1-.76.76H155.3a0.76,0.76,0,0,1-.76-0.76V82.82a0.62,0.62,0,1,1,1.24,0v2h3a0.77,0.77,0,0,1,.76.77v5.58ZM152.92,91a1.2,1.2,0,0,1-1.2,1.2h-5.56A1.2,1.2,0,0,1,145,91V77.81a1,1,0,1,1,2,0v3.13h4.81a1.2,1.2,0,0,1,1.2,1.2V91Z"/><path class="cls-2" d="M260,216.72a12.6,12.6,0,1,0,12.6,12.6A12.59,12.59,0,0,0,260,216.72ZM259.63,221a1.62,1.62,0,1,1-1.62,1.62A1.61,1.61,0,0,1,259.63,221Zm-7.46,5.26a0.79,0.79,0,1,1-.8.79A0.79,0.79,0,0,1,252.17,226.27Zm1.76,6.9a0.59,0.59,0,0,1-.59.59h-2.73a0.59,0.59,0,0,1-.59-0.59v-6.44a0.48,0.48,0,1,1,1,0v1.52h2.36a0.6,0.6,0,0,1,.59.59v4.32Zm13.69-6.8a1,1,0,1,1-1,1A1,1,0,0,1,267.62,226.37Zm2.27,8.91a0.77,0.77,0,0,1-.76.76h-3.52a0.76,0.76,0,0,1-.76-0.76V227a0.62,0.62,0,1,1,1.24,0v2h3a0.77,0.77,0,0,1,.76.77v5.58Zm-6.67-.17a1.2,1.2,0,0,1-1.2,1.2h-5.56a1.2,1.2,0,0,1-1.21-1.2V222a1,1,0,1,1,2,0v3.13H262a1.2,1.2,0,0,1,1.2,1.2v8.84Z"/><path class="cls-2" d="M238.76,318.8a12.6,12.6,0,1,0,12.6,12.6A12.59,12.59,0,0,0,238.76,318.8Zm-0.32,4.29a1.62,1.62,0,1,1-1.62,1.62A1.61,1.61,0,0,1,238.44,323.09ZM231,328.35a0.79,0.79,0,1,1-.8.79A0.79,0.79,0,0,1,231,328.35Zm1.76,6.9a0.59,0.59,0,0,1-.59.59h-2.73a0.59,0.59,0,0,1-.59-0.59v-6.44a0.48,0.48,0,1,1,1,0v1.52h2.36a0.6,0.6,0,0,1,.59.59v4.32Zm13.69-6.8a1,1,0,1,1-1,1A1,1,0,0,1,246.43,328.46Zm2.27,8.91a0.77,0.77,0,0,1-.76.76h-3.52a0.76,0.76,0,0,1-.76-0.76v-8.31a0.62,0.62,0,1,1,1.24,0v2h3a0.77,0.77,0,0,1,.76.77v5.58ZM242,337.2a1.2,1.2,0,0,1-1.2,1.2h-5.56a1.2,1.2,0,0,1-1.21-1.2V324a1,1,0,1,1,2,0v3.13h4.81a1.2,1.2,0,0,1,1.2,1.2v8.84Z"/><path class="cls-2" d="M226.17,389.72a12.6,12.6,0,1,0,12.6,12.6A12.59,12.59,0,0,0,226.17,389.72ZM225.84,394a1.62,1.62,0,1,1-1.62,1.62A1.61,1.61,0,0,1,225.84,394Zm-7.46,5.26a0.79,0.79,0,1,1-.8.79A0.79,0.79,0,0,1,218.38,399.27Zm1.76,6.9a0.59,0.59,0,0,1-.59.59h-2.73a0.59,0.59,0,0,1-.59-0.59v-6.44a0.48,0.48,0,1,1,1,0v1.52h2.36a0.6,0.6,0,0,1,.59.59v4.32Zm13.69-6.8a1,1,0,1,1-1,1A1,1,0,0,1,233.83,399.38Zm2.27,8.91a0.77,0.77,0,0,1-.76.76h-3.52a0.76,0.76,0,0,1-.76-0.76V400a0.62,0.62,0,1,1,1.24,0v2h3a0.77,0.77,0,0,1,.76.77v5.58Zm-6.67-.17a1.2,1.2,0,0,1-1.2,1.2h-5.56a1.2,1.2,0,0,1-1.21-1.2V395a1,1,0,1,1,2,0v3.13h4.81a1.2,1.2,0,0,1,1.2,1.2v8.84Z"/><path class="cls-2" d="M162.24,134.24a12.6,12.6,0,1,0,12.6,12.6A12.59,12.59,0,0,0,162.24,134.24Zm-0.32,4.29a1.62,1.62,0,1,1-1.62,1.62A1.61,1.61,0,0,1,161.91,138.53Zm-7.46,5.26a0.79,0.79,0,1,1-.8.79A0.79,0.79,0,0,1,154.45,143.79Zm1.76,6.9a0.59,0.59,0,0,1-.59.59h-2.73a0.59,0.59,0,0,1-.59-0.59v-6.44a0.48,0.48,0,1,1,1,0v1.52h2.36a0.6,0.6,0,0,1,.59.59v4.32Zm13.69-6.8a1,1,0,1,1-1,1A1,1,0,0,1,169.91,143.9Zm2.27,8.91a0.77,0.77,0,0,1-.76.76h-3.52a0.76,0.76,0,0,1-.76-0.76V144.5a0.62,0.62,0,1,1,1.24,0v2h3a0.77,0.77,0,0,1,.76.77v5.58Zm-6.67-.17a1.2,1.2,0,0,1-1.2,1.2h-5.56a1.2,1.2,0,0,1-1.21-1.2V139.48a1,1,0,1,1,2,0v3.13h4.81a1.2,1.2,0,0,1,1.2,1.2v8.84Z"/><path class="cls-2" d="M301,206.86a7.56,7.56,0,1,0,7.56,7.56A7.55,7.55,0,0,0,301,206.86Zm-0.19,2.57a1,1,0,1,1-1,1A1,1,0,0,1,300.78,209.43Zm-4.48,3.16a0.47,0.47,0,1,1-.48.47A0.47,0.47,0,0,1,296.3,212.59Zm1.06,4.14a0.36,0.36,0,0,1-.35.35h-1.64a0.35,0.35,0,0,1-.35-0.35v-3.86a0.29,0.29,0,1,1,.57,0v0.91H297a0.36,0.36,0,0,1,.35.36v2.59Zm8.22-4.08a0.61,0.61,0,1,1-.62.61A0.61,0.61,0,0,1,305.57,212.65Zm1.36,5.35a0.46,0.46,0,0,1-.46.46h-2.11a0.46,0.46,0,0,1-.45-0.46v-5a0.37,0.37,0,1,1,.74,0v1.18h1.83a0.46,0.46,0,0,1,.46.46V218Zm-4-.1a0.72,0.72,0,0,1-.72.72h-3.33a0.72,0.72,0,0,1-.72-0.72V210a0.59,0.59,0,1,1,1.17,0v1.88h2.89a0.72,0.72,0,0,1,.72.72v5.3Z"/><path class="cls-2" d="M36.22,304a7.56,7.56,0,1,0,7.56,7.56A7.55,7.55,0,0,0,36.22,304ZM36,306.55a1,1,0,1,1-1,1A1,1,0,0,1,36,306.55Zm-4.48,3.16a0.47,0.47,0,1,1-.48.47A0.47,0.47,0,0,1,31.55,309.7Zm1.06,4.14a0.36,0.36,0,0,1-.35.35H30.62a0.35,0.35,0,0,1-.35-0.35V310a0.29,0.29,0,1,1,.57,0v0.91h1.41a0.36,0.36,0,0,1,.35.36v2.59Zm8.22-4.08a0.61,0.61,0,1,1-.62.61A0.61,0.61,0,0,1,40.82,309.77Zm1.36,5.35a0.46,0.46,0,0,1-.46.46H39.62a0.46,0.46,0,0,1-.45-0.46v-5a0.37,0.37,0,1,1,.74,0v1.18h1.83a0.46,0.46,0,0,1,.46.46v3.35Zm-4-.1a0.72,0.72,0,0,1-.72.72H34.14a0.72,0.72,0,0,1-.72-0.72v-7.89a0.59,0.59,0,1,1,1.17,0V309h2.89a0.72,0.72,0,0,1,.72.72V315Z"/><path class="cls-2" d="M136.74,114.17a7.56,7.56,0,1,0,7.56,7.56A7.55,7.55,0,0,0,136.74,114.17Zm-0.19,2.57a1,1,0,1,1-1,1A1,1,0,0,1,136.54,116.75Zm-4.48,3.16a0.47,0.47,0,1,1-.48.47A0.47,0.47,0,0,1,132.06,119.9Zm1.06,4.14a0.36,0.36,0,0,1-.35.35h-1.64a0.35,0.35,0,0,1-.35-0.35v-3.86a0.29,0.29,0,1,1,.57,0v0.91h1.41a0.36,0.36,0,0,1,.35.36V124Zm8.22-4.08a0.61,0.61,0,1,1-.62.61A0.61,0.61,0,0,1,141.34,120Zm1.36,5.35a0.46,0.46,0,0,1-.46.46h-2.11a0.46,0.46,0,0,1-.45-0.46v-5a0.37,0.37,0,1,1,.74,0v1.18h1.83a0.46,0.46,0,0,1,.46.46v3.35Zm-4-.1a0.72,0.72,0,0,1-.72.72h-3.33a0.72,0.72,0,0,1-.72-0.72v-7.89a0.59,0.59,0,1,1,1.17,0v1.88H138a0.72,0.72,0,0,1,.72.72v5.3Z"/><path class="cls-2" d="M245.39,180.39a7.56,7.56,0,1,0,7.56,7.56A7.55,7.55,0,0,0,245.39,180.39ZM245.2,183a1,1,0,1,1-1,1A1,1,0,0,1,245.2,183Zm-4.48,3.16a0.47,0.47,0,1,1-.48.47A0.47,0.47,0,0,1,240.72,186.12Zm1.06,4.14a0.36,0.36,0,0,1-.35.35h-1.64a0.35,0.35,0,0,1-.35-0.35V186.4a0.29,0.29,0,1,1,.57,0v0.91h1.41a0.36,0.36,0,0,1,.35.36v2.59Zm8.22-4.08a0.61,0.61,0,1,1-.62.61A0.61,0.61,0,0,1,250,186.18Zm1.36,5.35a0.46,0.46,0,0,1-.46.46h-2.11a0.46,0.46,0,0,1-.45-0.46v-5a0.37,0.37,0,1,1,.74,0v1.18h1.83a0.46,0.46,0,0,1,.46.46v3.35Zm-4-.1a0.72,0.72,0,0,1-.72.72H243.3a0.72,0.72,0,0,1-.72-0.72v-7.89a0.59,0.59,0,1,1,1.17,0v1.88h2.89a0.72,0.72,0,0,1,.72.72v5.3Z"/><path class="cls-2" d="M83.62,187.95a12.6,12.6,0,1,0,12.6,12.6A12.59,12.59,0,0,0,83.62,187.95Zm-0.32,4.29a1.62,1.62,0,1,1-1.62,1.62A1.61,1.61,0,0,1,83.29,192.24Zm-7.46,5.26a0.79,0.79,0,1,1-.8.79A0.79,0.79,0,0,1,75.83,197.5Zm1.76,6.9A0.59,0.59,0,0,1,77,205H74.27a0.59,0.59,0,0,1-.59-0.59V198a0.48,0.48,0,1,1,1,0v1.52H77a0.6,0.6,0,0,1,.59.59v4.32Zm13.69-6.8a1,1,0,1,1-1,1A1,1,0,0,1,91.29,197.61Zm2.27,8.91a0.77,0.77,0,0,1-.76.76H89.27a0.76,0.76,0,0,1-.76-0.76v-8.31a0.62,0.62,0,1,1,1.24,0v2h3a0.77,0.77,0,0,1,.76.77v5.58Zm-6.67-.17a1.2,1.2,0,0,1-1.2,1.2H80.14a1.2,1.2,0,0,1-1.21-1.2V193.19a1,1,0,1,1,2,0v3.13h4.81a1.2,1.2,0,0,1,1.2,1.2v8.84Z"/></svg>