<svg id="Capa_1" data-name="Capa 1" xmlns="http://www.w3.org/2000/svg" viewBox="0 0 194.79 71.42"><defs><style>.cls-1{fill:#faeb15;}.cls-2{fill:#fcf373;}.cls-3{fill:#bbb010;}.cls-4{fill:#704790;}</style></defs><title>landing-svg</title><rect class="cls-1" x="17.94" y="14.65" width="158.9" height="42.13" rx="9.2" ry="9.2"/><path class="cls-2" d="M176.85,23.85v1a8.93,8.93,0,0,0-8.93-8.93h-141a8.93,8.93,0,0,0-8.93,8.93v-1a9.2,9.2,0,0,1,9.2-9.2h140.5A9.2,9.2,0,0,1,176.85,23.85Z"/><path class="cls-3" d="M176.85,46.61v1a9.2,9.2,0,0,1-9.21,9.21H27.14a9.2,9.2,0,0,1-9.2-9.21v-1a8.92,8.92,0,0,0,8.93,8.92h141A8.92,8.92,0,0,0,176.85,46.61Z"/><path class="cls-4" d="M52.68,31.81a3.77,3.77,0,0,0-4-3c-3.41,0-4.86,2.81-4.86,5.8,0,3.27,1.44,6,4.88,6,2.51,0,4-1.77,4.13-4.13h1.91c-0.36,3.57-2.59,5.74-6.2,5.74-4.45,0-6.62-3.29-6.62-7.46s2.37-7.54,6.78-7.54c3,0,5.46,1.61,5.9,4.66H52.68Z"/><path class="cls-4" d="M61.18,31.21c3.29,0,5,2.39,5,5.44s-1.75,5.42-5,5.42-5-2.39-5-5.42S57.89,31.21,61.18,31.21Zm0,9.35c1.79,0,3.23-1.41,3.23-3.91S63,32.71,61.18,32.71,58,34.12,58,36.65,59.4,40.56,61.18,40.56Z"/><path class="cls-4" d="M68.12,31.45h1.61v1.65h0a3.61,3.61,0,0,1,3.37-1.89c2.73,0,3.57,1.56,3.57,3.79v6.82H75v-7a2,2,0,0,0-2.11-2.09c-2.07,0-3.07,1.38-3.07,3.25v5.86H68.12V31.45Z"/><path class="cls-4" d="M83.65,31.21c3.29,0,5,2.39,5,5.44s-1.75,5.42-5,5.42-5-2.39-5-5.42S80.36,31.21,83.65,31.21Zm0,9.35c1.79,0,3.23-1.41,3.23-3.91s-1.44-3.93-3.23-3.93-3.23,1.4-3.23,3.93S81.87,40.56,83.65,40.56Z"/><path class="cls-4" d="M97.64,34.78a2.42,2.42,0,0,0-2.57-2.07c-2.47,0-3.23,1.95-3.23,4.05,0,1.91.86,3.79,3,3.79A2.68,2.68,0,0,0,97.72,38h1.75a4.31,4.31,0,0,1-4.57,4c-3.17,0-4.86-2.21-4.86-5.3s1.61-5.56,4.9-5.56c2.35,0,4.23,1.1,4.47,3.57H97.64Z"/><path class="cls-4" d="M110.12,38.53a4.18,4.18,0,0,1-4.43,3.53c-3.31,0-4.88-2.29-5-5.46s2-5.4,4.88-5.4c3.67,0,4.8,3.43,4.7,5.94h-7.77a3.06,3.06,0,0,0,3.23,3.41,2.5,2.5,0,0,0,2.69-2h1.69Zm-1.64-2.89a3,3,0,0,0-3-2.93,3,3,0,0,0-3,2.93h6Z"/><path class="cls-4" d="M117.42,31.45H119V33h0a3.82,3.82,0,0,1,3.35-1.77A2.75,2.75,0,0,1,125.26,33a3.84,3.84,0,0,1,3.25-1.77c2.07,0,3.45.86,3.45,3v7.6h-1.71V35c0-1.28-.34-2.31-2-2.31a2.51,2.51,0,0,0-2.71,2.65v6.46h-1.71V35c0-1.34-.42-2.31-1.95-2.31a2.8,2.8,0,0,0-2.77,2.65v6.46h-1.71V31.45Z"/><path class="cls-4" d="M143.62,41.78a2.3,2.3,0,0,1-1.22.28A1.36,1.36,0,0,1,141,40.46a4.6,4.6,0,0,1-3.65,1.61c-1.89,0-3.43-.84-3.43-2.91,0-2.35,1.75-2.85,3.51-3.19s3.49-.24,3.49-1.52c0-1.49-1.22-1.73-2.31-1.73-1.44,0-2.51.44-2.59,2h-1.71c0.1-2.57,2.09-3.47,4.39-3.47,1.87,0,3.89.42,3.89,2.85v5.34c0,0.8,0,1.16.54,1.16a1.47,1.47,0,0,0,.52-0.1v1.32Zm-2.77-5.32c-0.66.48-1.95,0.5-3.09,0.7s-2.09.6-2.09,1.87,1,1.53,2,1.53c2.25,0,3.17-1.41,3.17-2.35V36.46ZM139,27.15h2.19L138.6,30h-1.28Z"/><path class="cls-4" d="M146.15,38.55c0.06,1.52,1.38,2,2.79,2,1.06,0,2.51-.24,2.51-1.55s-1.69-1.54-3.39-1.93-3.39-.94-3.39-2.93,2.07-2.95,3.87-2.95c2.29,0,4.11.72,4.25,3.25h-1.71c-0.12-1.32-1.28-1.75-2.41-1.75s-2.21.28-2.21,1.32c0,1.22,1.81,1.42,3.39,1.81s3.39,0.94,3.39,2.95c0,2.47-2.31,3.27-4.41,3.27-2.33,0-4.29-.94-4.39-3.51h1.71Z"/></svg>