<svg id="Capa_1" data-name="Capa 1" xmlns="http://www.w3.org/2000/svg" viewBox="0 0 176.17 212.73"><defs><style>.cls-1{fill:#faeb15;}.cls-2{fill:#704790;}</style></defs><title>landing-svg</title><path class="cls-1" d="M47.29,149.53h3.79l5.68,16H53.13l-1.06-3.3H46.16l-1.09,3.3H41.56Zm-0.22,10h4.11l-2-6.31Z"/><path class="cls-1" d="M65.65,158a2.75,2.75,0,0,0-.45-1.2,1.88,1.88,0,0,0-1.63-.72,2.14,2.14,0,0,0-2.15,1.56,6.46,6.46,0,0,0-.31,2.19,5.93,5.93,0,0,0,.31,2.1,2.07,2.07,0,0,0,2.09,1.48,1.85,1.85,0,0,0,1.55-.59,2.93,2.93,0,0,0,.56-1.52H68.8a5.18,5.18,0,0,1-1,2.68,5,5,0,0,1-4.33,2,5.06,5.06,0,0,1-4.22-1.7,6.86,6.86,0,0,1-1.35-4.4,7,7,0,0,1,1.49-4.75,5.2,5.2,0,0,1,4.12-1.7,6.21,6.21,0,0,1,3.66,1A4.66,4.66,0,0,1,68.83,158H65.65Z"/><path class="cls-1" d="M74,153.71v7.15a3.74,3.74,0,0,0,.24,1.52,1.65,1.65,0,0,0,1.66.9A2.17,2.17,0,0,0,78.11,162a4.67,4.67,0,0,0,.3-1.84v-6.46h3.15v11.87h-3V163.9l-0.22.33a2.24,2.24,0,0,1-.41.48,4.3,4.3,0,0,1-1.41.89,4.77,4.77,0,0,1-1.59.24,3.54,3.54,0,0,1-3.54-1.89,7.27,7.27,0,0,1-.51-3.08v-7.15H74Z"/><path class="cls-1" d="M99.38,153.75a3.44,3.44,0,0,1,1.38,1.07,3.39,3.39,0,0,1,.67,1.52,10.56,10.56,0,0,1,.11,1.75l0,7.48H98.34V158a2.49,2.49,0,0,0-.22-1.11,1.55,1.55,0,0,0-1.53-.83,1.78,1.78,0,0,0-1.77,1.07,3.34,3.34,0,0,0-.25,1.36v7.07H91.45v-7.07a4,4,0,0,0-.22-1.54,1.52,1.52,0,0,0-1.54-.86,1.83,1.83,0,0,0-1.79.86,3.31,3.31,0,0,0-.25,1.46v7.14H84.52V153.73h3v1.73a5,5,0,0,1,1.09-1.32,4.31,4.31,0,0,1,4.54-.1,3.49,3.49,0,0,1,1,1.43,3.94,3.94,0,0,1,1.51-1.53,4.61,4.61,0,0,1,2.13-.49A4.14,4.14,0,0,1,99.38,153.75Z"/><path class="cls-1" d="M107.49,153.71v7.15a3.76,3.76,0,0,0,.24,1.52,1.65,1.65,0,0,0,1.66.9,2.16,2.16,0,0,0,2.17-1.29,4.65,4.65,0,0,0,.3-1.84v-6.46H115v11.87h-3V163.9l-0.22.33a2.18,2.18,0,0,1-.41.48,4.28,4.28,0,0,1-1.41.89,4.76,4.76,0,0,1-1.59.24,3.54,3.54,0,0,1-3.54-1.89,7.27,7.27,0,0,1-.51-3.08v-7.15h3.18Z"/><path class="cls-1" d="M121.19,165.58h-3.1v-16h3.1v16Z"/><path class="cls-1" d="M128.91,158.36a4.9,4.9,0,0,0,1.24-.27,0.93,0.93,0,0,0,.67-0.88,1,1,0,0,0-.51-1,3.23,3.23,0,0,0-1.51-.28,2,2,0,0,0-1.58.54,2.24,2.24,0,0,0-.44,1.09h-3a4.54,4.54,0,0,1,.88-2.56q1.23-1.57,4.24-1.57a7.56,7.56,0,0,1,3.48.77,3,3,0,0,1,1.52,2.92v5.44q0,0.57,0,1.37a1.72,1.72,0,0,0,.18.83,1.11,1.11,0,0,0,.46.36v0.46h-3.37a3.49,3.49,0,0,1-.2-0.67q-0.05-.32-0.09-0.72a6.38,6.38,0,0,1-1.49,1.19,4.5,4.5,0,0,1-2.28.58,3.93,3.93,0,0,1-2.68-.92,3.27,3.27,0,0,1-1.06-2.61,3.38,3.38,0,0,1,1.7-3.17,7.62,7.62,0,0,1,2.74-.76Zm1.9,1.45a3.35,3.35,0,0,1-.6.3,5,5,0,0,1-.83.21l-0.71.13a4.63,4.63,0,0,0-1.43.42,1.42,1.42,0,0,0-.73,1.32,1.37,1.37,0,0,0,.45,1.15,1.69,1.69,0,0,0,1.09.35,3.24,3.24,0,0,0,1.87-.59,2.49,2.49,0,0,0,.89-2.14v-1.15Z"/><path class="cls-1" d="M45.57,180.37v-2.21h1.65v-3.31H50.3v3.31h1.93v2.21H50.3v6.27a1.41,1.41,0,0,0,.19.91,2,2,0,0,0,1.13.18h0.3l0.31,0V190l-1.47.05a3.94,3.94,0,0,1-3-.76,2.27,2.27,0,0,1-.52-1.64v-7.3H45.57Z"/><path class="cls-1" d="M57.31,178v7.15a3.76,3.76,0,0,0,.24,1.52,1.65,1.65,0,0,0,1.66.9,2.17,2.17,0,0,0,2.17-1.29,4.69,4.69,0,0,0,.3-1.84V178h3.15v11.87h-3v-1.68l-0.22.33a2.23,2.23,0,0,1-.41.48,4.31,4.31,0,0,1-1.41.89,4.77,4.77,0,0,1-1.59.24,3.54,3.54,0,0,1-3.54-1.89,7.26,7.26,0,0,1-.51-3.08V178h3.18Z"/><path class="cls-1" d="M76.44,186.13a2.06,2.06,0,0,0,.43,1.18,2.89,2.89,0,0,0,2.14.62,3.28,3.28,0,0,0,1.46-.27,0.91,0.91,0,0,0,.1-1.61,17.93,17.93,0,0,0-3.25-.94,6.73,6.73,0,0,1-2.85-1.25,2.71,2.71,0,0,1-.83-2.13,3.7,3.7,0,0,1,1.29-2.83,5.2,5.2,0,0,1,3.64-1.18,6.69,6.69,0,0,1,3.63.89,3.8,3.8,0,0,1,1.61,3.07h-3.1a1.83,1.83,0,0,0-.34-0.95,2.13,2.13,0,0,0-1.75-.63,2.52,2.52,0,0,0-1.45.32,0.91,0.91,0,0,0-.43.74,0.81,0.81,0,0,0,.46.77,19.84,19.84,0,0,0,3.24.86,5.94,5.94,0,0,1,2.78,1.32,3,3,0,0,1,.91,2.23,3.6,3.6,0,0,1-1.31,2.88,6.18,6.18,0,0,1-4.06,1.12,6.13,6.13,0,0,1-4.14-1.18,3.84,3.84,0,0,1-1.34-3h3.15Z"/><path class="cls-1" d="M91.13,182.7a4.92,4.92,0,0,0,1.24-.27,0.93,0.93,0,0,0,.67-0.88,1,1,0,0,0-.51-1,3.24,3.24,0,0,0-1.51-.28,2,2,0,0,0-1.58.54,2.25,2.25,0,0,0-.44,1.09H86a4.54,4.54,0,0,1,.87-2.56q1.24-1.57,4.24-1.57a7.56,7.56,0,0,1,3.48.77,3,3,0,0,1,1.52,2.92v5.44q0,0.57,0,1.37a1.72,1.72,0,0,0,.19.83,1.11,1.11,0,0,0,.46.36v0.46H93.41a3.43,3.43,0,0,1-.2-0.67q-0.05-.32-0.09-0.72a6.4,6.4,0,0,1-1.49,1.19,4.5,4.5,0,0,1-2.28.58,3.93,3.93,0,0,1-2.68-.92,3.27,3.27,0,0,1-1.06-2.61,3.38,3.38,0,0,1,1.7-3.17,7.61,7.61,0,0,1,2.74-.76Zm1.9,1.45a3.45,3.45,0,0,1-.6.3,5,5,0,0,1-.83.21l-0.71.13a4.65,4.65,0,0,0-1.43.42,1.42,1.42,0,0,0-.73,1.32,1.38,1.38,0,0,0,.45,1.15,1.7,1.7,0,0,0,1.09.35,3.24,3.24,0,0,0,1.87-.59A2.49,2.49,0,0,0,93,185.3v-1.15Z"/><path class="cls-1" d="M102,189.92H98.9v-16H102v16Z"/><path class="cls-1" d="M111.32,178.24a3.76,3.76,0,0,1,1.36,1.31v-5.66h3.15v16h-3v-1.64a4.37,4.37,0,0,1-1.51,1.54,4.25,4.25,0,0,1-2.11.48,4.41,4.41,0,0,1-3.5-1.68,6.46,6.46,0,0,1-1.42-4.32,7.42,7.42,0,0,1,1.4-4.78,4.55,4.55,0,0,1,3.74-1.74A3.82,3.82,0,0,1,111.32,178.24Zm0.76,8.45a4.33,4.33,0,0,0,.69-2.54,3.89,3.89,0,0,0-1.1-3.11,2.37,2.37,0,0,0-1.57-.57,2.18,2.18,0,0,0-2,1,5.55,5.55,0,0,0,0,5.18,2.19,2.19,0,0,0,2,1A2.29,2.29,0,0,0,112.08,186.69Z"/><path class="cls-1" d="M128.54,188.46a6.54,6.54,0,0,1-9.12,0,7.36,7.36,0,0,1,0-8.91,6.47,6.47,0,0,1,9.12,0A7.36,7.36,0,0,1,128.54,188.46Zm-2.48-1.71a5.55,5.55,0,0,0,0-5.5,2.76,2.76,0,0,0-4.19,0,5.5,5.5,0,0,0,0,5.5A2.75,2.75,0,0,0,126.06,186.75Z"/><circle class="cls-1" cx="88.08" cy="79.8" r="62.23"/><path class="cls-2" d="M73.85,39.95a9.47,9.47,0,0,0-9.31,7.59h47.08a9.47,9.47,0,0,0-9.31-7.59H73.85ZM64.36,51.33v53.13H111.8V51.33H64.36Zm23.54,9.49a16.92,16.92,0,0,1,13.46,6.67v-1a1.9,1.9,0,1,1,3.8,0v5.69a1.9,1.9,0,0,1-1.9,1.9H97.57a1.9,1.9,0,0,1,0-3.8h1.16a13.12,13.12,0,0,0-10.82-5.69c-7.27,0-13.1,5.79-13.1,12.39A1.9,1.9,0,0,1,71,77C71,68.21,78.62,60.82,87.91,60.82Zm15.36,16.13a1.9,1.9,0,0,1,1.9,1.84c0,8.8-7.61,16.19-16.9,16.19A16.92,16.92,0,0,1,74.8,88.31v1a1.9,1.9,0,1,1-3.8,0V83.59a1.9,1.9,0,0,1,1.9-1.9H78.6a1.9,1.9,0,0,1,0,3.8H77.44a13.12,13.12,0,0,0,10.82,5.69c7.27,0,13.1-5.8,13.1-12.39A1.9,1.9,0,0,1,103.26,76.95Zm-38.9,31.31v1.9a9.47,9.47,0,0,0,9.49,9.49h28.46a9.47,9.47,0,0,0,9.49-9.49v-1.9H64.36Zm16.13,3.8H95.67a1.9,1.9,0,1,1,0,3.8H80.49A1.9,1.9,0,1,1,80.49,112.05Z"/></svg>