<svg id="Capa_1" data-name="Capa 1" xmlns="http://www.w3.org/2000/svg" viewBox="0 0 629.99 172.49"><defs><style>.cls-1{fill:#fbe900;}</style></defs><title>landing-svg</title><path class="cls-1" d="M32.92,65.7H67.15L78.3,111.63h0.22L89.68,65.7h34.23v78.08H101.16V93.69h-0.22L87.38,143.78H69.45L55.89,93.69H55.67v50.09H32.92V65.7Z"/><path class="cls-1" d="M160.11,145.2c-21.32,0-30.95-14.11-30.95-29.86s9.62-29.75,30.95-29.75,30.95,14,30.95,29.75S181.43,145.2,160.11,145.2Zm3.61-63.65H148.84l10.83-16.29h22.86Zm-3.61,19.79c-8.2,0-9.29,8-9.29,14s1.09,14.11,9.29,14.11,9.3-8.09,9.3-14.11S168.31,101.35,160.11,101.35Z"/><path class="cls-1" d="M233.27,143.78H207.68L189.09,87h22.86l8.86,34.56H221L230,87h22.09Z"/><path class="cls-1" d="M274.61,80.9H253V65.7h21.65V80.9ZM253,87h21.65v56.76H253V87Z"/><path class="cls-1" d="M283,65.7h21.65v78.08H283V65.7Z"/><path class="cls-1" d="M345.15,65.7h64.63v20H369.21v9.73h36.86V114H369.21v9.73H411v20H345.15V65.7ZM381,60.23H366.15L377,43.93h22.86Z"/><path class="cls-1" d="M429.8,113.92L412,87h23.84L442,98.29,448.39,87h23.18l-17.83,26.9,20.12,29.85H450l-8.31-13.89-8,13.89H410Z"/><path class="cls-1" d="M496,80.9H474.31V65.7H496V80.9ZM474.31,87H496v56.76H474.31V87Z"/><path class="cls-1" d="M530,87h11.59v13.34H530v19.79c0,5.25,1.2,7.55,6.67,7.55a37.2,37.2,0,0,0,4.92-.33v16.4c-4.37,0-9.3.66-13.89,0.66-9.19,0-19.36-1.42-19.36-17V100.36H498.7V87h9.62V69.74H530V87Z"/><path class="cls-1" d="M572.63,145.2c-21.33,0-30.95-14.11-30.95-29.86s9.62-29.75,30.95-29.75,30.95,14,30.95,29.75S594,145.2,572.63,145.2Zm0-43.85c-8.2,0-9.3,8-9.3,14s1.09,14.11,9.3,14.11,9.3-8.09,9.3-14.11S580.83,101.35,572.63,101.35Z"/><path class="cls-1" d="M33.56,18H50.2c6.72,0,11.13,3.94,11.13,10.71S56.91,39.42,50.2,39.42H37.13V55.48H33.56V18Zm3.57,18.37H49.41c4.93,0,8.34-2.52,8.34-7.66s-3.41-7.66-8.34-7.66H37.13V36.38Z"/><path class="cls-1" d="M63.58,36.69c0.31-6.35,4.78-9.08,11-9.08,4.78,0,10,1.47,10,8.71V50.7a1.76,1.76,0,0,0,1.94,2,3.11,3.11,0,0,0,1-.21v2.78a9.05,9.05,0,0,1-2.15.21c-3.36,0-3.88-1.89-3.88-4.72h-0.1c-2.31,3.52-4.67,5.51-9.87,5.51-5,0-9.08-2.47-9.08-7.92,0-7.61,7.4-7.87,14.54-8.71,2.73-.31,4.25-0.68,4.25-3.67,0-4.46-3.2-5.56-7.08-5.56-4.09,0-7.14,1.89-7.24,6.3H63.58Zm17.63,4H81.11c-0.42.79-1.89,1-2.78,1.21-5.61,1-12.59.94-12.59,6.24,0,3.31,2.94,5.35,6,5.35,5,0,9.5-3.2,9.45-8.5v-4.3ZM73.92,24.62H71.24l5.51-7.4h4.09Z"/><path class="cls-1" d="M105.24,36.33c-0.16-4.09-3.31-5.93-7.08-5.93-2.94,0-6.4,1.15-6.4,4.67,0,2.94,3.36,4,5.61,4.56l4.41,1c3.78,0.58,7.71,2.78,7.71,7.5,0,5.88-5.83,8.13-10.86,8.13-6.3,0-10.6-2.94-11.12-9.55h3.31c0.26,4.46,3.57,6.77,8,6.77,3.1,0,7.4-1.36,7.4-5.14,0-3.15-2.94-4.2-5.93-4.93L96,42.47c-4.3-1.15-7.56-2.62-7.56-7.24,0-5.51,5.41-7.61,10.18-7.61,5.4,0,9.71,2.83,9.92,8.71h-3.31Z"/><path class="cls-1" d="M111.86,36.69c0.32-6.35,4.78-9.08,11-9.08,4.78,0,10,1.47,10,8.71V50.7a1.76,1.76,0,0,0,1.94,2,3.1,3.1,0,0,0,1-.21v2.78a9,9,0,0,1-2.15.21c-3.36,0-3.88-1.89-3.88-4.72h-0.11c-2.31,3.52-4.67,5.51-9.87,5.51-5,0-9.08-2.47-9.08-7.92,0-7.61,7.4-7.87,14.54-8.71,2.73-.31,4.25-0.68,4.25-3.67,0-4.46-3.2-5.56-7.08-5.56-4.09,0-7.14,1.89-7.24,6.3h-3.31Zm17.63,4h-0.1c-0.42.79-1.89,1-2.78,1.21-5.62,1-12.59.94-12.59,6.24,0,3.31,2.94,5.35,6,5.35,5,0,9.5-3.2,9.45-8.5v-4.3Z"/><path class="cls-1" d="M142.56,28.4h5.51v2.78h-5.51V49.45c0,2.15.31,3.41,2.68,3.57a25.64,25.64,0,0,0,2.83-.16v2.83c-1,0-1.94.1-2.94,0.1-4.41,0-5.93-1.47-5.88-6.09V31.18h-4.72V28.4h4.72V20.27h3.31V28.4Z"/><path class="cls-1" d="M152.68,42.83c0.05,4.83,2.57,10.65,8.92,10.65,4.83,0,7.45-2.83,8.5-6.93h3.31c-1.42,6.14-5,9.71-11.81,9.71-8.61,0-12.23-6.61-12.23-14.33,0-7.14,3.62-14.33,12.23-14.33s12.17,7.61,11.91,15.22H152.68Zm17.53-2.78c-0.16-5-3.25-9.66-8.61-9.66s-8.4,4.72-8.92,9.66h17.53Z"/><path class="cls-1" d="M188.05,36.69c0.32-6.35,4.78-9.08,11-9.08,4.78,0,10,1.47,10,8.71V50.7a1.76,1.76,0,0,0,1.94,2,3.1,3.1,0,0,0,1-.21v2.78a9,9,0,0,1-2.15.21c-3.36,0-3.88-1.89-3.88-4.72h-0.11c-2.31,3.52-4.67,5.51-9.87,5.51-5,0-9.08-2.47-9.08-7.92,0-7.61,7.4-7.87,14.54-8.71,2.73-.31,4.25-0.68,4.25-3.67,0-4.46-3.2-5.56-7.08-5.56-4.09,0-7.14,1.89-7.24,6.3h-3.31Zm17.63,4h-0.1c-0.42.79-1.89,1-2.78,1.21-5.62,1-12.59.94-12.59,6.24,0,3.31,2.94,5.35,6,5.35,5,0,9.5-3.2,9.45-8.5v-4.3Z"/></svg>